<svg width="38" height="44" viewBox="0 0 38 44" fill="none" xmlns="http://www.w3.org/2000/svg">
<path d="M37.3763 31.9121C36.3542 34.1748 35.8653 35.1875 34.5529 37.1873C32.7186 39.9805 30.1297 43.4657 26.9281 43.4894C24.0801 43.513 23.3454 41.6314 19.4809 41.6626C15.6165 41.6815 14.8109 43.5244 11.9601 43.495C8.75847 43.4657 6.30762 40.3256 4.47137 37.5381C-0.66199 29.7175 -1.20379 20.5524 1.96851 15.6762C4.21324 12.2183 7.7647 10.1873 11.0996 10.1873C14.496 10.1873 16.6311 12.0538 19.4393 12.0538C22.1644 12.0538 23.8238 10.1826 27.7516 10.1826C30.7225 10.1826 33.8636 11.8013 36.1083 14.5945C28.7652 18.6178 29.9585 29.1058 37.3763 31.9121ZM24.7703 7.06133C26.199 5.22697 27.2826 2.63901 26.8902 0C24.5585 0.158851 21.8325 1.64808 20.2393 3.57605C18.7964 5.33193 17.6003 7.93974 18.0664 10.4625C20.6099 10.5447 23.2423 9.02806 24.7703 7.06133Z" fill="black"/>
</svg>
