<svg width="54" height="54" viewBox="0 0 54 54" fill="none" xmlns="http://www.w3.org/2000/svg">
<path d="M26.9082 50.1375C14.0743 50.1375 3.6795 39.7427 3.6795 26.9089C3.6795 14.0751 14.0743 3.68024 26.9082 3.68024C39.742 3.68024 50.1368 14.0751 50.1368 26.9089C50.1368 39.7427 39.742 50.1375 26.9082 50.1375Z" fill="url(#paint0_linear_103_403)"/>
<path d="M20.437 18.2926C18.9052 19.5651 17.7033 21.2383 17.0671 23.1707C16.7136 24.2075 16.5251 25.3387 16.5251 26.4934V39.0539C16.5251 40.1379 15.6531 41.0098 14.5691 41.0098C13.4851 41.0098 12.6132 40.1379 12.6132 39.0539V26.4934C12.6132 22.6758 14.0978 19.1881 16.5015 16.6194C18.1511 14.852 20.2484 13.4852 22.605 12.7311C23.8775 12.3069 25.1736 13.2495 25.1736 14.5692C25.1736 15.4176 24.6316 16.1481 23.8304 16.4309C22.5814 16.8079 21.4267 17.4678 20.437 18.2926Z" fill="white"/>
<path d="M41.6457 26.3992C41.6928 34.3408 35.2358 40.9156 27.2942 40.9863C27.2471 40.9863 27.1764 40.9863 27.1292 40.9863C23.4294 40.9863 20.4366 37.9699 20.4366 34.2701V26.5877C20.4366 26.5641 20.4366 26.517 20.4366 26.4934C20.4366 22.6287 23.7122 19.518 27.6241 19.8008C30.9469 20.0364 33.6334 22.7465 33.8454 26.0692C33.9868 28.3551 32.9735 30.4289 31.3475 31.725C30.0985 32.7383 28.2133 31.7957 28.2133 30.1932C28.2133 29.6041 28.4725 29.0621 28.9202 28.685C29.5801 28.143 29.9807 27.3182 29.9571 26.4227C29.91 24.9616 28.7317 23.7598 27.2706 23.6891C25.6446 23.6184 24.3014 24.9145 24.3014 26.517C24.3014 26.5405 24.3014 26.5877 24.3014 26.6112V34.0816C24.3014 35.7783 25.6917 37.1687 27.3885 37.1215C27.412 37.1215 27.4592 37.1215 27.4827 37.1215C32.8793 36.933 37.3332 32.644 37.7102 27.2475C38.0401 22.228 34.8823 17.892 30.4049 16.4309C29.6036 16.1717 29.0616 15.4411 29.0616 14.6163V14.5456C29.0616 13.2495 30.3106 12.3069 31.5596 12.7075C37.3803 14.5456 41.5985 19.9657 41.6457 26.3992Z" fill="white"/>
<path d="M52.8178 26.9089C52.8178 41.218 41.218 52.8178 26.9089 52.8178C12.5998 52.8178 1 41.218 1 26.9089C1 12.5998 12.5998 1 26.9089 1C41.218 1 52.8178 12.5998 52.8178 26.9089Z" stroke="#F58220" stroke-width="2"/>
<defs>
<linearGradient id="paint0_linear_103_403" x1="3.6795" y1="26.9089" x2="50.1368" y2="26.9089" gradientUnits="userSpaceOnUse">
<stop stop-color="#F58220"/>
<stop offset="1" stop-color="#EB7816"/>
</linearGradient>
</defs>
</svg>
