<svg width="49" height="49" viewBox="0 0 49 49" fill="none" xmlns="http://www.w3.org/2000/svg">
<path d="M43.8134 20.1762H42.1949V20.0928H24.1114V28.1299H35.4668C33.8102 32.8086 29.3586 36.1671 24.1114 36.1671C17.4536 36.1671 12.0557 30.7691 12.0557 24.1114C12.0557 17.4536 17.4536 12.0557 24.1114 12.0557C27.1846 12.0557 29.9805 13.215 32.1093 15.1088L37.7926 9.42553C34.204 6.08108 29.4038 4.01855 24.1114 4.01855C13.0151 4.01855 4.01855 13.0151 4.01855 24.1114C4.01855 35.2076 13.0151 44.2042 24.1114 44.2042C35.2076 44.2042 44.2042 35.2076 44.2042 24.1114C44.2042 22.7642 44.0656 21.4491 43.8134 20.1762Z" fill="#FFC107"/>
<path d="M6.33527 14.7592L12.9368 19.6005C14.723 15.1781 19.049 12.0557 24.1114 12.0557C27.1846 12.0557 29.9805 13.215 32.1093 15.1088L37.7926 9.42553C34.204 6.08108 29.4038 4.01855 24.1114 4.01855C16.3937 4.01855 9.70081 8.37568 6.33527 14.7592Z" fill="#FF3D00"/>
<path d="M24.1114 44.2042C29.3014 44.2042 34.0172 42.218 37.5826 38.9881L31.3639 33.7258C29.3466 35.2539 26.839 36.1671 24.1114 36.1671C18.8852 36.1671 14.4477 32.8347 12.776 28.1842L6.22375 33.2325C9.54912 39.7396 16.3023 44.2042 24.1114 44.2042Z" fill="#4CAF50"/>
<path d="M43.8134 20.1762H42.1949V20.0928H24.1114V28.13H35.4668C34.6712 30.3773 33.2255 32.3153 31.3609 33.7268L31.3639 33.7248L37.5826 38.9871C37.1426 39.387 44.2042 34.1578 44.2042 24.1114C44.2042 22.7642 44.0656 21.4491 43.8134 20.1762Z" fill="#1976D2"/>
</svg>
