<svg xmlns="http://www.w3.org/2000/svg" width="1250" height="363" viewBox="0 0 1250 363">
<g>
<path d="M 279.13 227.02 C276.55,230.10 276.10,230.25 267.33,230.75 C259.10,231.21 258.12,231.08 257.29,229.38 C256.20,227.16 256.26,226.47 257.92,222.50 C258.61,220.85 259.54,217.48 259.98,215.00 C260.42,212.52 263.13,201.50 265.99,190.50 C268.86,179.50 271.59,168.25 272.07,165.50 C273.00,160.06 276.45,146.86 280.03,135.00 C282.86,125.59 283.18,114.83 280.74,110.32 C279.67,108.35 277.67,106.65 275.47,105.85 C272.78,104.88 271.99,104.07 272.21,102.53 C272.50,100.52 273.01,100.50 337.50,100.20 C392.70,99.94 402.79,100.11 404.44,101.32 C406.33,102.71 406.34,102.94 404.71,108.63 C403.78,111.86 402.91,115.62 402.76,117.00 C402.40,120.44 398.58,120.97 396.93,117.81 C395.30,114.67 392.56,112.16 389.49,111.00 C388.03,110.44 370.88,109.97 349.28,109.89 C312.44,109.75 311.59,109.79 309.96,111.80 C308.04,114.17 304.66,129.95 305.56,132.31 C305.94,133.28 308.35,134.32 311.84,134.99 C314.95,135.60 318.90,136.86 320.61,137.80 C325.00,140.20 331.00,145.69 331.00,147.30 C331.00,148.04 332.12,149.71 333.50,151.00 C334.88,152.29 336.03,154.51 336.07,155.92 C336.11,157.34 336.47,159.33 336.86,160.34 C337.26,161.35 337.10,166.87 336.51,172.61 C335.81,179.44 335.77,183.37 336.42,184.02 C338.25,185.85 345.92,185.08 350.88,182.56 C354.85,180.55 359.28,176.16 359.50,174.00 C359.70,172.07 361.99,169.78 363.24,170.26 C364.55,170.76 364.48,172.02 362.76,180.17 C361.67,185.30 359.93,192.29 358.89,195.71 C357.85,199.12 357.00,203.22 357.00,204.80 C357.00,208.47 353.36,212.19 351.95,209.96 C351.44,209.16 351.23,207.94 351.48,207.25 C351.73,206.56 351.43,206.00 350.80,206.00 C350.18,206.00 349.94,205.73 350.27,205.39 C350.91,204.75 350.33,203.91 345.45,198.43 L 342.40 195.01 L 316.95 194.79 C301.89,194.66 290.89,194.96 290.00,195.53 C288.14,196.72 283.53,211.68 282.25,220.66 C282.01,222.39 280.60,225.25 279.13,227.02 ZM 281.72 288.14 C278.03,288.58 227.80,288.41 225.85,287.96 C224.97,287.75 224.37,287.62 224.30,287.35 C224.17,286.81 226.23,285.72 232.58,282.35 L 232.80 282.23 C241.76,277.48 246.00,272.83 246.00,267.77 C246.00,266.24 247.12,262.66 248.50,259.81 C251.35,253.90 251.55,252.13 249.65,249.54 C248.41,247.84 246.49,247.70 223.90,247.75 C210.48,247.78 198.56,247.59 197.42,247.33 C194.99,246.79 194.58,244.02 196.92,243.97 C203.28,243.83 216.21,230.86 217.59,223.24 C217.96,221.18 218.66,218.73 219.15,217.79 C220.11,215.92 222.81,203.89 223.70,197.52 C224.00,195.33 224.83,192.63 225.53,191.52 C226.23,190.41 227.11,187.48 227.48,185.00 C228.25,179.88 231.99,167.06 233.21,165.38 C234.58,163.50 245.07,161.90 250.49,162.74 C256.51,163.68 257.18,165.35 254.04,171.64 C252.84,174.03 252.12,176.39 252.43,176.89 C252.74,177.39 252.35,179.98 251.57,182.65 C250.78,185.32 249.18,191.32 247.99,196.00 C246.81,200.68 245.19,206.77 244.40,209.54 C242.46,216.26 241.01,224.16 240.34,231.60 L 239.79 237.69 L 245.64 238.27 C254.82,239.18 275.02,237.67 278.50,235.82 C280.15,234.94 282.62,233.73 284.00,233.13 C285.38,232.52 287.61,231.24 288.96,230.27 C290.86,228.90 291.24,228.84 290.64,230.00 C290.21,230.82 291.36,229.87 293.18,227.87 C295.01,225.87 298.23,220.02 300.35,214.87 C302.47,209.72 304.54,204.82 304.96,204.00 C305.54,202.85 308.05,202.43 315.87,202.21 C325.93,201.93 326.03,201.95 326.99,204.46 C328.07,207.31 327.57,209.02 322.75,219.00 C319.53,225.68 308.79,237.79 306.64,237.17 C306.01,236.98 305.83,237.17 306.24,237.57 C307.45,238.79 304.94,241.00 302.36,241.00 C301.04,241.00 297.82,242.12 295.20,243.49 C292.43,244.94 287.77,246.26 284.10,246.65 C277.96,247.29 273.86,249.56 273.29,252.64 C270.53,267.35 270.72,279.29 273.71,280.44 C274.58,280.78 275.00,281.33 274.66,281.67 C273.71,282.62 277.21,284.93 279.64,284.97 C281.91,285.00 283.80,287.90 281.72,288.14 ZM 981.36 329.19 C977.70,331.67 976.66,331.83 961.50,332.35 C949.18,332.76 944.01,332.54 939.00,331.37 L 931.00 329.50 C930.17,329.31 929.16,329.12 928.75,329.08 C928.34,329.03 928.00,328.44 928.00,327.75 C928.00,327.06 926.87,325.19 925.50,323.59 C923.16,320.87 923.00,319.99 923.00,309.48 C923.00,296.50 924.22,288.85 926.85,285.23 C929.79,281.19 936.14,280.09 956.86,280.04 C974.89,280.00 975.32,280.05 980.11,282.66 C982.80,284.12 985.00,285.83 985.00,286.46 C985.00,289.62 982.53,290.00 961.86,290.00 C948.89,290.00 940.88,290.38 940.49,291.02 C940.14,291.58 939.48,291.79 939.00,291.50 C937.50,290.57 936.72,295.17 936.81,304.47 C936.90,315.58 937.13,317.11 938.93,319.00 C940.09,320.22 944.35,320.56 962.10,320.80 C979.49,321.05 984.08,321.39 985.03,322.54 C986.71,324.56 985.82,326.17 981.36,329.19 ZM 275.56 86.58 C272.99,88.46 240.06,88.66 238.20,86.80 C237.35,85.95 237.00,80.22 237.00,67.41 C237.00,51.74 237.22,49.13 238.58,48.61 C241.00,47.68 274.32,47.91 275.82,48.87 C276.83,49.51 277.19,53.97 277.32,67.43 C277.49,83.94 277.37,85.26 275.56,86.58 ZM 909.25 331.53 C908.29,331.94 898.03,332.39 886.45,332.53 C870.22,332.73 864.84,332.47 862.95,331.43 C861.60,330.68 859.71,330.05 858.75,330.04 C857.79,330.02 857.00,329.52 857.00,328.94 C857.00,328.36 856.62,328.11 856.17,328.40 C854.94,329.15 854.86,328.19 854.33,308.50 C854.01,296.58 854.23,289.21 854.99,286.67 C856.81,280.54 859.23,280.00 884.99,280.00 L 907.05 280.00 L 908.02 282.57 C908.68,284.28 908.65,285.78 907.95,287.10 C906.95,288.95 905.83,289.06 888.24,288.95 C871.40,288.85 869.46,289.01 868.28,290.63 C866.61,292.91 867.08,320.48 868.82,322.22 C869.58,322.98 875.98,323.31 888.66,323.24 C899.06,323.18 908.18,323.56 909.19,324.10 C911.58,325.38 911.62,330.52 909.25,331.53 ZM 1065.75 330.70 C1063.76,332.21 1056.67,332.14 1054.68,330.59 C1053.17,329.42 1052.90,327.91 1053.08,321.63 C1053.39,311.08 1053.28,311.00 1039.28,311.00 C1026.07,311.00 1022.95,309.84 1020.63,304.05 C1019.38,300.94 1019.39,300.39 1020.70,299.64 C1021.53,299.17 1028.47,299.00 1036.14,299.26 C1052.77,299.82 1053.00,299.68 1053.00,288.98 C1053.00,285.20 1053.51,281.89 1054.20,281.20 C1054.86,280.54 1057.54,280.00 1060.16,280.00 C1063.85,280.00 1065.16,280.44 1065.96,281.93 C1067.55,284.89 1067.35,329.49 1065.75,330.70 ZM 1010.72 330.49 C1008.33,332.16 1002.31,332.48 1000.06,331.06 C998.92,330.34 998.56,326.31 998.27,311.33 C998.08,300.97 998.27,289.80 998.71,286.50 L 999.50 280.50 L 1004.63 280.20 L 1004.88 280.19 C1007.52,280.03 1009.30,279.93 1010.51,280.71 C1013.05,282.36 1013.03,287.95 1012.96,305.29 L 1012.96 306.08 C1012.88,328.36 1012.82,329.01 1010.72,330.49 ZM 294.34 184.31 C295.53,184.54 298.76,184.79 301.53,184.86 C307.65,185.03 311.00,183.02 311.00,179.19 C311.00,177.71 311.94,174.02 313.09,171.00 C314.68,166.83 315.03,164.33 314.55,160.66 C313.56,153.20 308.29,146.00 303.82,146.00 C302.08,146.00 297.77,155.56 297.50,160.00 C297.38,161.93 297.00,164.18 296.64,165.00 C295.45,167.78 292.92,177.47 292.55,180.69 C292.24,183.32 292.56,183.96 294.34,184.31 ZM 843.19 288.33 C841.60,289.77 837.92,289.97 813.37,289.97 C793.16,289.96 785.04,289.64 784.18,288.78 C782.61,287.21 782.67,282.52 784.28,281.19 C785.09,280.51 795.74,280.05 813.93,279.92 C840.44,279.73 842.41,279.84 843.66,281.55 C845.50,284.07 845.34,286.38 843.19,288.33 ZM 819.35 330.54 C816.88,332.41 810.52,332.37 808.62,330.48 C807.37,329.23 807.15,326.22 807.34,313.49 C807.50,303.25 807.98,297.62 808.76,296.84 C810.25,295.35 817.10,297.21 819.13,299.66 C820.10,300.83 820.60,305.34 820.85,315.22 C821.16,327.82 821.02,329.27 819.35,330.54 ZM 162.53 144.73 C162.00,146.87 161.47,147.00 153.45,147.00 C147.26,147.00 144.80,146.63 144.42,145.66 C144.14,144.93 144.04,140.76 144.21,136.41 L 144.50 128.50 L 162.50 128.50 L 162.80 135.48 C162.97,139.32 162.85,143.48 162.53,144.73 ZM 202.23 53.63 C200.84,55.77 188.79,55.89 186.25,53.79 C185.49,53.16 185.00,50.27 185.00,46.43 C185.00,38.56 186.68,37.00 195.12,37.00 C200.60,37.00 200.84,37.12 201.90,40.15 C203.14,43.71 203.35,51.92 202.23,53.63 ZM 903.93 307.13 C903.04,308.80 901.74,308.99 891.71,308.86 C878.56,308.70 876.58,308.41 874.86,306.33 C873.77,305.02 873.96,304.45 876.03,302.76 C878.29,300.91 879.45,300.79 889.89,301.34 C902.41,302.00 905.91,303.44 903.93,307.13 ZM 141.61 65.23 C141.00,65.64 137.89,65.98 134.70,65.98 C128.97,66.00 128.88,65.95 127.38,62.37 C126.16,59.44 126.09,58.19 127.05,55.87 C128.19,53.12 128.51,53.00 134.92,53.00 C138.59,53.00 142.08,53.48 142.67,54.07 C143.99,55.39 143.15,64.21 141.61,65.23 ZM 271.07 140.33 C270.49,143.18 270.03,143.53 266.43,143.80 C261.75,144.14 261.00,143.61 261.00,139.96 C261.00,136.57 263.21,134.67 267.14,134.67 C270.86,134.67 271.91,136.18 271.07,140.33 Z" fill="rgb(5,150,53)"/>
<path d="M 981.00 331.82 C978.36,332.99 973.22,333.43 960.00,333.60 C950.38,333.73 941.38,333.64 940.00,333.40 C930.53,331.77 926.37,329.33 923.15,323.50 C921.82,321.08 921.50,317.58 921.50,305.50 C921.50,287.60 922.44,285.05 930.52,281.00 C935.35,278.58 936.12,278.50 956.00,278.51 C972.92,278.52 977.14,278.81 980.17,280.18 C983.86,281.84 986.23,284.62 987.44,288.68 L 988.09 290.87 L 964.46 291.18 C962.72,291.21 961.10,291.22 959.58,291.24 C946.39,291.39 941.22,291.45 939.22,293.99 C937.93,295.63 937.95,298.31 937.99,302.71 C937.99,303.49 938.00,304.34 938.00,305.24 C938.00,314.37 938.18,315.27 940.45,317.55 L 942.91 320.00 L 989.25 320.00 L 988.61 323.18 C987.81,327.19 985.47,329.85 981.00,331.82 ZM 912.00 322.00 L 912.00 334.00 L 888.25 333.90 C875.19,333.84 862.93,333.43 861.02,332.98 C859.10,332.53 856.51,330.97 855.27,329.52 C853.07,326.97 853.00,326.27 853.01,306.19 C853.03,291.55 853.40,284.77 854.29,283.00 C856.44,278.74 860.56,278.12 886.75,278.06 L 911.00 278.00 L 911.00 290.00 L 869.00 290.00 L 869.00 322.00 ZM 278.77 68.25 L 278.50 89.50 L 257.25 89.77 L 236.00 90.04 L 236.00 47.00 L 279.04 47.00 ZM 981.36 329.19 C985.82,326.17 986.71,324.56 985.03,322.54 C984.08,321.39 979.49,321.05 962.10,320.80 C944.35,320.56 940.09,320.22 938.93,319.00 C937.13,317.11 936.90,315.58 936.81,304.47 C936.72,295.17 937.50,290.57 939.00,291.50 C939.48,291.79 940.14,291.58 940.49,291.02 C940.88,290.38 948.89,290.00 961.86,290.00 C982.53,290.00 985.00,289.62 985.00,286.46 C985.00,285.83 982.80,284.12 980.11,282.66 C975.32,280.05 974.89,280.00 956.86,280.04 C936.14,280.09 929.79,281.19 926.85,285.23 C924.22,288.85 923.00,296.50 923.00,309.48 C923.00,319.99 923.16,320.87 925.50,323.59 C926.87,325.19 928.00,327.06 928.00,327.75 C928.00,328.44 928.34,329.03 928.75,329.08 C929.16,329.12 930.17,329.31 931.00,329.50 L 939.00 331.37 C944.01,332.54 949.18,332.76 961.50,332.35 C976.66,331.83 977.70,331.67 981.36,329.19 ZM 275.56 86.58 C277.37,85.26 277.49,83.94 277.32,67.43 C277.19,53.97 276.83,49.51 275.82,48.87 C274.32,47.91 241.00,47.68 238.58,48.61 C237.22,49.13 237.00,51.74 237.00,67.41 C237.00,80.22 237.35,85.95 238.20,86.80 C240.06,88.66 272.99,88.46 275.56,86.58 ZM 909.25 331.53 C911.62,330.52 911.58,325.38 909.19,324.10 C908.18,323.56 899.06,323.18 888.66,323.24 C875.98,323.31 869.58,322.98 868.82,322.22 C867.08,320.48 866.61,292.91 868.28,290.63 C869.46,289.01 871.40,288.85 888.24,288.95 C905.83,289.06 906.95,288.95 907.95,287.10 C908.65,285.78 908.68,284.28 908.02,282.57 L 907.05 280.00 L 884.99 280.00 C859.23,280.00 856.81,280.54 854.99,286.67 C854.23,289.21 854.01,296.58 854.33,308.50 C854.86,328.19 854.94,329.15 856.17,328.40 C856.62,328.11 857.00,328.36 857.00,328.94 C857.00,329.52 857.79,330.02 858.75,330.04 C859.71,330.05 861.60,330.68 862.95,331.43 C864.84,332.47 870.22,332.73 886.45,332.53 C898.03,332.39 908.29,331.94 909.25,331.53 ZM 279.13 227.02 C280.60,225.25 282.01,222.39 282.25,220.66 C283.53,211.68 288.14,196.72 290.00,195.53 C290.89,194.96 301.89,194.66 316.95,194.79 L 342.40 195.01 L 345.45 198.43 C350.33,203.91 350.91,204.75 350.27,205.39 C349.94,205.73 350.18,206.00 350.80,206.00 C351.43,206.00 351.73,206.56 351.48,207.25 C351.23,207.94 351.44,209.16 351.95,209.96 C353.36,212.19 357.00,208.47 357.00,204.80 C357.00,203.22 357.85,199.12 358.89,195.71 C359.93,192.29 361.67,185.30 362.76,180.17 C364.48,172.02 364.55,170.76 363.24,170.26 C361.99,169.78 359.70,172.07 359.50,174.00 C359.28,176.16 354.85,180.55 350.88,182.56 C345.92,185.08 338.25,185.85 336.42,184.02 C336.28,183.88 336.18,183.61 336.11,183.20 C337.40,184.14 341.61,183.98 345.54,182.64 C351.82,180.50 356.56,176.54 360.26,170.36 C362.70,166.28 364.03,165.00 365.85,165.00 C367.83,165.00 368.13,165.38 367.64,167.25 C367.31,168.49 364.49,179.51 361.37,191.75 L 355.69 214.00 L 352.85 214.00 C350.22,214.00 350.00,213.70 350.00,210.25 C349.99,205.60 347.05,200.61 342.76,197.99 C339.74,196.15 337.68,196.01 314.72,196.00 C295.77,196.00 289.84,196.29 289.54,197.25 C289.32,197.94 287.42,205.25 285.32,213.50 L 281.50 228.50 L 276.50 230.21 C273.33,231.29 268.27,231.93 262.68,231.96 C254.74,232.00 253.92,231.83 254.38,230.25 C254.66,229.29 258.54,214.10 262.99,196.50 C267.44,178.90 271.70,163.15 272.46,161.50 C273.22,159.85 274.37,155.57 275.01,152.00 C275.66,148.43 277.50,140.08 279.09,133.46 C280.69,126.83 282.00,120.04 282.00,118.35 C282.00,113.89 278.17,108.83 272.75,106.14 C269.06,104.31 268.00,103.25 268.00,101.39 L 268.00 99.00 L 409.04 99.00 L 408.42 101.75 C403.64,122.91 400.70,128.01 397.59,120.57 C396.76,118.57 394.37,115.95 391.90,114.32 L 387.65 111.50 L 350.16 111.21 C329.54,111.06 312.32,111.28 311.89,111.71 C311.15,112.46 305.82,132.25 306.28,132.52 C306.40,132.59 309.29,133.15 312.70,133.76 C321.05,135.24 328.07,139.91 333.00,147.26 C338.63,155.66 339.75,161.78 337.62,172.59 C336.94,176.06 336.30,179.34 335.96,181.10 C335.94,179.16 336.13,176.31 336.51,172.61 C337.10,166.87 337.26,161.35 336.86,160.34 C336.47,159.33 336.11,157.34 336.07,155.92 C336.03,154.51 334.88,152.29 333.50,151.00 C332.12,149.71 331.00,148.04 331.00,147.30 C331.00,145.69 325.00,140.20 320.61,137.80 C318.90,136.86 314.95,135.60 311.84,134.99 C308.35,134.32 305.94,133.28 305.56,132.31 C304.66,129.95 308.04,114.17 309.96,111.80 C311.59,109.79 312.44,109.75 349.28,109.89 C370.88,109.97 388.03,110.44 389.49,111.00 C392.56,112.16 395.30,114.67 396.93,117.81 C398.58,120.97 402.40,120.44 402.76,117.00 C402.91,115.62 403.78,111.86 404.71,108.63 C406.34,102.94 406.33,102.71 404.44,101.32 C402.79,100.11 392.70,99.94 337.50,100.20 C273.01,100.50 272.50,100.52 272.21,102.53 C271.99,104.07 272.78,104.88 275.47,105.85 C277.67,106.65 279.67,108.35 280.74,110.32 C283.18,114.83 282.86,125.59 280.03,135.00 C276.45,146.86 273.00,160.06 272.07,165.50 C271.59,168.25 268.86,179.50 265.99,190.50 C263.13,201.50 260.42,212.52 259.98,215.00 C259.54,217.48 258.61,220.85 257.92,222.50 C256.26,226.47 256.20,227.16 257.29,229.38 C258.12,231.08 259.10,231.21 267.33,230.75 C276.10,230.25 276.55,230.10 279.13,227.02 ZM 1014.00 278.00 L 1014.00 334.00 L 997.00 334.00 L 997.00 278.00 ZM 846.00 278.00 L 846.00 291.00 L 781.00 291.00 L 781.00 278.00 ZM 281.72 288.14 C283.80,287.90 281.91,285.00 279.64,284.97 C277.21,284.93 273.71,282.62 274.66,281.67 C275.00,281.33 274.58,280.78 273.71,280.44 C270.72,279.29 270.53,267.35 273.29,252.64 C273.86,249.56 277.96,247.29 284.10,246.65 C287.77,246.26 292.43,244.94 295.20,243.49 C297.82,242.12 301.04,241.00 302.36,241.00 C302.85,241.00 303.34,240.92 303.79,240.78 C297.52,244.52 290.53,247.15 283.88,248.16 L 276.25 249.32 L 274.13 258.15 C271.07,270.84 271.25,276.41 274.84,280.00 C276.41,281.56 279.58,283.35 281.90,283.97 C285.41,284.92 286.07,285.48 285.81,287.31 L 285.50 289.50 L 252.64 289.76 C222.90,290.00 219.83,289.88 220.39,288.43 C220.72,287.55 221.00,286.46 221.00,286.00 C221.00,285.54 222.46,284.84 224.25,284.46 C232.10,282.76 239.77,277.25 242.98,271.00 C245.17,266.74 249.00,254.09 249.00,251.14 C249.00,249.00 248.98,249.00 219.93,249.00 L 190.87 249.00 L 191.18 246.26 C191.45,244.00 192.11,243.42 195.00,242.94 C202.86,241.62 211.51,234.81 214.55,227.53 C215.27,225.82 219.06,211.61 222.98,195.96 C226.90,180.31 230.57,166.04 231.13,164.25 L 232.16 161.00 L 245.08 161.00 C253.78,161.00 258.00,161.36 258.00,162.10 C258.00,162.70 253.95,179.18 249.00,198.72 C244.05,218.26 240.00,234.87 240.00,235.62 C240.00,236.73 242.96,237.00 255.25,236.98 C275.32,236.96 283.29,235.07 289.75,228.81 C293.58,225.10 298.14,218.87 300.47,214.57 L 300.35 214.87 C298.23,220.02 295.01,225.87 293.18,227.87 C291.36,229.87 290.21,230.82 290.64,230.00 C291.24,228.84 290.86,228.90 288.96,230.27 C287.61,231.24 285.38,232.52 284.00,233.13 C282.62,233.73 280.15,234.94 278.50,235.82 C275.02,237.67 254.82,239.18 245.64,238.27 L 239.79 237.69 L 240.34 231.60 C241.01,224.16 242.46,216.26 244.40,209.54 C245.19,206.77 246.81,200.68 247.99,196.00 C249.18,191.32 250.78,185.32 251.57,182.65 C252.35,179.98 252.74,177.39 252.43,176.89 C252.12,176.39 252.84,174.03 254.04,171.64 C257.18,165.35 256.51,163.68 250.49,162.74 C245.07,161.90 234.58,163.50 233.21,165.38 C231.99,167.06 228.25,179.88 227.48,185.00 C227.11,187.48 226.23,190.41 225.53,191.52 C224.83,192.63 224.00,195.33 223.70,197.52 C222.81,203.89 220.11,215.92 219.15,217.79 C218.66,218.73 217.96,221.18 217.59,223.24 C216.21,230.86 203.28,243.83 196.92,243.97 C194.58,244.02 194.99,246.79 197.42,247.33 C198.56,247.59 210.48,247.78 223.90,247.75 C246.49,247.70 248.41,247.84 249.65,249.54 C251.55,252.13 251.35,253.90 248.50,259.81 C247.12,262.66 246.00,266.24 246.00,267.77 C246.00,272.83 241.76,277.48 232.80,282.23 L 232.58 282.35 L 232.58 282.35 C226.23,285.72 224.17,286.81 224.30,287.35 C224.37,287.62 224.97,287.75 225.85,287.96 C227.80,288.41 278.03,288.58 281.72,288.14 ZM 1010.72 330.49 C1012.82,329.01 1012.88,328.36 1012.96,306.08 L 1012.96 305.29 C1013.03,287.95 1013.05,282.36 1010.51,280.71 C1009.30,279.93 1007.52,280.03 1004.88,280.19 L 1004.63 280.20 L 999.50 280.50 L 998.71 286.50 C998.27,289.80 998.08,300.97 998.27,311.33 C998.56,326.31 998.92,330.34 1000.06,331.06 C1002.31,332.48 1008.33,332.16 1010.72,330.49 ZM 823.00 297.24 L 823.00 334.00 L 806.00 334.00 L 806.00 292.77 L 808.25 293.40 C809.49,293.74 813.31,294.75 816.75,295.63 ZM 843.19 288.33 C845.34,286.38 845.50,284.07 843.66,281.55 C842.41,279.84 840.44,279.73 813.93,279.92 C795.74,280.05 785.09,280.51 784.28,281.19 C782.67,282.52 782.61,287.21 784.18,288.78 C785.04,289.64 793.16,289.96 813.37,289.97 C837.92,289.97 841.60,289.77 843.19,288.33 ZM 165.00 127.00 L 165.00 149.00 L 143.21 149.00 L 142.78 144.75 C142.54,142.41 142.56,137.46 142.81,133.75 L 143.27 127.00 ZM 819.35 330.54 C821.02,329.27 821.16,327.82 820.85,315.22 C820.60,305.34 820.10,300.83 819.13,299.66 C817.10,297.21 810.25,295.35 808.76,296.84 C807.98,297.62 807.50,303.25 807.34,313.49 C807.15,326.22 807.37,329.23 808.62,330.48 C810.52,332.37 816.88,332.41 819.35,330.54 ZM 204.78 46.25 L 204.50 56.50 L 194.25 56.78 L 184.00 57.07 L 184.00 36.00 L 205.07 36.00 ZM 908.00 310.44 C908.00,310.75 900.60,311.00 891.55,311.00 L 875.09 311.00 L 873.05 306.37 C871.92,303.83 871.00,301.35 871.00,300.87 C871.00,300.39 878.37,300.00 887.38,300.00 L 903.75 300.00 L 905.88 304.94 C907.04,307.65 908.00,310.12 908.00,310.44 ZM 162.53 144.73 C162.85,143.48 162.97,139.32 162.80,135.48 L 162.50 128.50 L 144.50 128.50 L 144.21 136.41 C144.04,140.76 144.14,144.93 144.42,145.66 C144.80,146.63 147.26,147.00 153.45,147.00 C161.47,147.00 162.00,146.87 162.53,144.73 ZM 144.00 51.00 L 144.00 68.00 L 125.00 68.00 L 125.00 51.00 ZM 1065.75 330.70 C1067.35,329.49 1067.55,284.89 1065.96,281.93 C1065.16,280.44 1063.85,280.00 1060.16,280.00 C1057.54,280.00 1054.86,280.54 1054.20,281.20 C1053.51,281.89 1053.00,285.20 1053.00,288.98 C1053.00,299.68 1052.77,299.82 1036.14,299.26 C1028.47,299.00 1021.53,299.17 1020.70,299.64 C1019.39,300.39 1019.38,300.94 1020.63,304.05 C1022.95,309.84 1026.07,311.00 1039.28,311.00 C1045.59,311.00 1049.08,311.02 1050.98,312.00 L 1022.31 312.00 L 1019.18 305.25 L 1016.04 298.50 L 1051.00 297.95 L 1051.00 278.00 L 1068.00 278.00 L 1068.00 334.00 L 1051.00 334.00 L 1051.00 312.01 C1053.30,313.21 1053.25,315.85 1053.08,321.63 C1052.90,327.91 1053.17,329.42 1054.68,330.59 C1056.67,332.14 1063.76,332.21 1065.75,330.70 ZM 202.23 53.63 C203.35,51.92 203.14,43.71 201.90,40.15 C200.84,37.12 200.60,37.00 195.12,37.00 C186.68,37.00 185.00,38.56 185.00,46.43 C185.00,50.27 185.49,53.16 186.25,53.79 C188.79,55.89 200.84,55.77 202.23,53.63 ZM 903.93 307.13 C905.91,303.44 902.41,302.00 889.89,301.34 C879.45,300.79 878.29,300.91 876.03,302.76 C873.96,304.45 873.77,305.02 874.86,306.33 C876.58,308.41 878.56,308.70 891.71,308.86 C901.74,308.99 903.04,308.80 903.93,307.13 ZM 141.61 65.23 C143.15,64.21 143.99,55.39 142.67,54.07 C142.08,53.48 138.59,53.00 134.92,53.00 C128.51,53.00 128.19,53.12 127.05,55.87 C126.09,58.19 126.16,59.44 127.38,62.37 C128.88,65.95 128.97,66.00 134.70,65.98 C137.89,65.98 141.00,65.64 141.61,65.23 ZM 266.26 145.19 C263.17,145.46 262.49,145.99 261.41,149.00 C260.24,152.25 260.15,151.81 260.08,142.75 L 260.00 133.00 L 267.00 133.00 C270.85,133.00 274.00,133.29 274.00,133.63 C274.00,135.10 271.58,142.60 270.75,143.69 C270.25,144.35 268.23,145.03 266.26,145.19 ZM 294.34 184.31 C292.56,183.96 292.24,183.32 292.55,180.69 C292.92,177.47 295.45,167.78 296.64,165.00 C297.00,164.18 297.38,161.93 297.50,160.00 C297.77,155.56 302.08,146.00 303.82,146.00 C308.29,146.00 313.56,153.20 314.55,160.66 C315.03,164.33 314.68,166.83 313.09,171.00 C311.94,174.02 311.00,177.71 311.00,179.19 C311.00,181.80 309.45,183.56 306.53,184.37 C308.29,183.29 308.99,180.34 310.98,172.33 C314.17,159.46 313.70,155.65 308.19,149.75 C303.42,144.64 302.89,145.43 298.01,165.04 C294.14,180.60 293.73,183.22 295.01,184.03 C295.37,184.25 296.16,184.46 297.17,184.63 C295.94,184.53 294.91,184.42 294.34,184.31 ZM 306.12 239.33 C306.61,238.72 306.73,238.06 306.24,237.57 C305.83,237.17 306.01,236.98 306.64,237.17 C308.79,237.79 319.53,225.68 322.75,219.00 C327.57,209.02 328.07,207.31 326.99,204.46 C326.03,201.95 325.93,201.93 315.87,202.21 C308.05,202.43 305.54,202.85 304.96,204.00 C304.65,204.61 303.43,207.44 301.97,210.96 C301.99,210.81 302.01,210.67 302.01,210.55 C302.01,209.42 302.48,206.81 303.05,204.75 L 304.09 201.00 L 330.26 201.00 L 329.58 205.25 C328.33,213.19 321.29,225.94 314.44,232.66 C311.96,235.09 309.15,237.34 306.12,239.33 ZM 271.07 140.33 C271.91,136.18 270.86,134.67 267.14,134.67 C263.21,134.67 261.00,136.57 261.00,139.96 C261.00,143.61 261.75,144.14 266.43,143.80 C270.03,143.53 270.49,143.18 271.07,140.33 Z" fill="rgb(33,134,68)"/>
<path d="M 951.00 261.96 C932.78,264.84 916.76,260.89 907.96,251.34 C904.78,247.89 904.01,246.30 904.03,243.27 C904.07,238.88 906.58,235.39 910.39,234.44 C913.58,233.64 918.47,236.66 921.50,241.30 C922.60,242.99 925.53,245.45 928.00,246.77 C931.95,248.87 933.51,249.12 940.67,248.77 C954.41,248.09 958.21,243.86 959.47,227.83 C959.80,223.61 959.67,219.92 959.19,219.62 C958.70,219.32 957.00,220.45 955.40,222.13 C950.90,226.87 943.72,230.06 936.15,230.67 C919.98,231.97 906.33,220.48 902.48,202.31 C898.84,185.14 902.61,169.16 912.59,159.46 C924.04,148.34 944.23,148.60 956.18,160.03 C959.61,163.30 961.00,163.11 961.00,159.36 C961.00,156.17 966.07,151.00 969.17,151.01 C973.68,151.04 975.72,152.19 977.35,155.61 C978.79,158.63 979.00,163.83 979.00,196.93 C979.00,231.81 978.84,235.29 977.02,241.19 C973.42,252.87 964.76,259.78 951.00,261.96 ZM 583.59 260.56 C578.46,262.10 560.64,263.28 556.00,262.38 C545.47,260.33 536.88,255.75 532.73,249.98 C527.89,243.24 529.85,235.78 536.84,234.38 C539.65,233.82 540.60,234.39 546.74,240.31 C554.71,248.02 556.90,249.01 565.82,248.98 C575.22,248.95 580.50,246.41 582.92,240.78 C585.03,235.87 586.49,221.42 584.98,220.49 C584.43,220.15 582.08,221.42 579.74,223.31 C572.42,229.24 569.30,230.40 560.50,230.44 C551.44,230.49 545.97,228.54 539.73,223.07 C523.59,208.90 522.85,175.33 538.33,160.04 C549.97,148.53 568.38,148.12 580.83,159.09 C583.26,161.22 585.59,162.75 586.01,162.49 C586.43,162.23 587.07,160.46 587.42,158.55 C588.73,151.60 596.38,148.85 601.69,153.41 L 604.50 155.83 L 604.83 193.16 C605.04,218.26 604.77,232.69 604.00,237.18 C601.98,248.83 594.67,257.21 583.59,260.56 ZM 437.76 229.99 C432.58,232.28 423.06,233.31 418.33,232.10 C412.36,230.57 404.55,225.36 400.76,220.40 C395.66,213.72 392.93,205.38 392.29,194.50 C390.80,169.37 402.43,153.02 423.03,151.29 C431.23,150.61 437.50,152.48 445.32,157.96 C448.36,160.09 451.10,161.57 451.42,161.25 C451.74,160.93 452.00,153.43 452.00,144.58 C452.01,130.48 452.24,128.11 453.93,125.35 C457.32,119.79 466.29,119.96 468.87,125.61 C469.66,127.35 470.00,142.94 470.00,177.62 L 470.00 227.15 L 466.95 230.20 C464.32,232.83 463.40,233.17 460.20,232.66 C456.11,232.00 452.01,227.89 452.00,224.42 C452.00,220.91 450.92,220.93 446.54,224.52 C444.23,226.41 440.28,228.87 437.76,229.99 ZM 801.86 230.15 C795.95,232.39 783.44,233.32 777.13,231.99 C765.73,229.58 754.07,219.88 749.90,209.33 C746.80,201.49 746.49,182.98 749.34,176.00 C755.92,159.88 767.90,151.80 785.50,151.61 C796.88,151.48 803.80,153.54 811.79,159.43 C816.85,163.15 818.44,165.12 821.65,171.61 C825.23,178.86 825.50,180.04 825.84,189.93 C826.14,198.78 825.84,201.56 824.02,207.00 C820.35,217.94 812.55,226.08 801.86,230.15 ZM 1043.07 231.89 C1033.18,234.01 1020.71,232.45 1011.97,227.98 C993.78,218.71 987.20,189.84 998.58,169.33 C1003.78,159.98 1012.07,154.27 1023.82,151.96 C1035.87,149.59 1049.10,152.81 1057.45,160.16 C1066.69,168.30 1071.69,184.46 1067.17,191.61 C1064.25,196.22 1059.52,197.00 1034.43,197.00 L 1012.74 197.00 L 1013.40 201.09 C1014.33,206.94 1017.43,212.46 1021.51,215.58 C1024.30,217.70 1026.47,218.37 1031.83,218.76 C1039.86,219.33 1043.89,217.66 1053.23,209.89 C1056.46,207.20 1059.80,205.00 1060.65,205.00 C1063.19,205.00 1068.00,208.99 1068.00,211.11 C1068.00,214.28 1064.40,220.44 1060.60,223.78 C1056.39,227.48 1050.11,230.38 1043.07,231.89 ZM 684.06 230.74 C679.14,234.06 675.52,233.63 670.75,229.19 L 668.00 226.63 L 668.00 178.45 C668.00,131.43 668.05,130.21 670.05,127.67 C671.17,126.24 673.76,124.61 675.80,124.04 C677.92,123.45 691.33,123.01 707.30,123.01 C740.50,123.00 742.00,123.39 742.00,131.97 C742.00,133.52 741.14,135.84 740.09,137.14 C738.19,139.49 738.06,139.50 713.59,139.80 L 689.00 140.10 L 689.00 167.86 L 709.92 168.18 C730.57,168.50 730.86,168.53 732.92,170.90 C736.67,175.23 735.12,180.86 729.60,182.96 C728.06,183.55 718.62,184.00 707.93,184.00 L 689.00 184.00 L 688.90 203.75 C688.85,214.61 688.49,224.62 688.11,225.99 C687.73,227.36 685.91,229.50 684.06,230.74 ZM 256.00 107.00 L 256.00 157.00 L 206.00 157.00 L 206.00 107.00 ZM 857.29 231.91 C852.75,233.98 848.09,232.60 845.31,228.35 C843.66,225.83 843.50,222.74 843.50,192.54 C843.50,161.04 843.60,159.34 845.55,156.00 C848.35,151.21 853.81,149.73 857.77,152.67 C859.27,153.79 860.93,156.01 861.46,157.60 C861.99,159.20 862.54,160.68 862.69,160.90 C862.85,161.12 865.17,159.25 867.86,156.73 C875.02,150.03 880.50,149.43 891.14,154.17 C897.97,157.22 900.10,163.37 895.88,167.90 C894.12,169.79 893.04,170.09 889.63,169.65 C877.07,168.03 874.41,167.96 872.00,169.24 C865.60,172.62 863.00,184.49 863.00,210.32 C863.00,226.46 862.14,229.70 857.29,231.91 ZM 779.46 216.12 C785.51,218.87 790.77,218.53 796.26,215.05 C802.84,210.88 805.24,205.78 805.80,194.80 C806.36,183.80 805.70,180.40 801.93,174.71 C796.67,166.77 787.79,164.07 779.50,167.89 C771.63,171.52 768.09,177.94 767.26,190.08 C766.39,202.79 770.79,212.18 779.46,216.12 ZM 426.24 217.15 C436.01,219.96 445.46,214.11 448.61,203.28 C450.82,195.68 450.14,183.05 447.23,177.41 C438.64,160.76 418.76,163.26 413.41,181.66 C411.34,188.79 411.96,199.87 414.80,206.28 C416.82,210.85 422.24,216.00 426.24,217.15 ZM 932.35 213.94 C937.46,216.47 942.26,216.53 947.50,214.11 C952.28,211.90 955.39,208.71 957.36,203.99 C963.02,190.39 958.30,172.76 947.69,167.95 C942.04,165.38 937.88,165.52 932.05,168.47 C928.08,170.49 926.71,171.92 924.65,176.22 C921.48,182.83 920.50,190.84 921.91,198.49 C923.27,205.84 926.94,211.26 932.35,213.94 ZM 560.41 214.97 C569.01,217.62 578.44,213.27 582.90,204.61 C587.90,194.88 585.51,177.69 578.18,170.68 C574.80,167.45 567.62,165.47 562.65,166.41 C557.61,167.35 551.56,172.98 549.31,178.81 C546.97,184.88 547.01,198.83 549.39,204.26 C551.44,208.95 556.36,213.73 560.41,214.97 ZM 641.60 229.60 C637.96,233.24 635.06,233.79 631.11,231.60 C626.20,228.88 626.07,227.86 626.04,191.20 L 626.00 156.91 L 628.41 154.50 C631.94,150.97 635.63,150.35 639.76,152.57 C641.66,153.59 643.61,155.49 644.11,156.78 C644.60,158.07 645.00,174.22 645.00,192.67 L 645.00 226.20 ZM 504.84 231.59 C500.26,233.95 496.51,233.01 492.80,228.57 C491.23,226.70 491.06,223.25 491.03,192.82 C491.01,173.21 491.41,158.06 491.98,156.56 C493.18,153.38 498.88,150.50 502.27,151.35 C503.63,151.69 505.82,152.84 507.12,153.90 L 509.50 155.82 L 509.79 190.66 C510.10,228.25 510.02,228.90 504.84,231.59 ZM 194.00 80.00 L 194.00 114.00 L 159.00 114.00 L 159.00 80.00 ZM 184.77 178.75 L 185.05 195.00 L 152.00 195.00 L 152.00 161.95 L 168.25 162.23 L 184.50 162.50 ZM 1014.02 182.25 L 1014.00 185.00 L 1049.00 185.00 L 1049.00 181.96 C1049.00,175.34 1042.29,166.88 1035.93,165.49 C1030.99,164.40 1024.33,165.85 1020.86,168.77 C1017.30,171.77 1014.05,178.16 1014.02,182.25 ZM 505.02 139.49 C498.37,142.93 491.00,138.97 491.00,131.96 C491.00,124.50 498.27,120.02 504.85,123.42 C511.83,127.03 511.92,135.92 505.02,139.49 ZM 640.02 139.49 C636.03,141.56 633.88,141.39 629.90,138.72 C626.99,136.76 626.46,135.78 626.20,131.93 C625.80,125.80 629.12,122.50 635.67,122.50 C639.36,122.50 640.61,123.00 642.59,125.31 C646.71,130.10 645.53,136.64 640.02,139.49 Z" fill="rgb(247,105,11)"/>
<path d="M 0.00 181.50 L 0.00 0.00 L 625.00 0.00 L 1250.00 0.00 L 1250.00 181.50 L 1250.00 363.00 L 625.00 363.00 L 0.00 363.00 L 0.00 181.50 ZM 823.00 315.62 L 823.00 297.24 L 816.75 295.63 C813.31,294.75 809.49,293.74 808.25,293.40 L 806.00 292.77 L 806.00 313.38 L 806.00 334.00 L 814.50 334.00 L 823.00 334.00 L 823.00 315.62 ZM 912.00 328.00 L 912.00 322.00 L 890.50 322.00 L 869.00 322.00 L 869.00 306.00 L 869.00 290.00 L 890.00 290.00 L 911.00 290.00 L 911.00 284.00 L 911.00 278.00 L 886.75 278.06 C860.56,278.12 856.44,278.74 854.29,283.00 C853.40,284.77 853.03,291.55 853.01,306.19 C853.00,326.27 853.07,326.97 855.27,329.52 C856.51,330.97 859.10,332.53 861.02,332.98 C862.93,333.43 875.19,333.84 888.25,333.90 L 912.00 334.00 L 912.00 328.00 ZM 981.00 331.82 C985.47,329.85 987.81,327.19 988.61,323.18 L 989.25 320.00 L 966.08 320.00 L 942.91 320.00 L 940.45 317.55 C938.18,315.27 938.00,314.37 938.00,305.24 C938.00,290.58 936.15,291.56 964.46,291.18 L 988.09 290.87 L 987.44 288.68 C986.23,284.62 983.86,281.84 980.17,280.18 C977.14,278.81 972.92,278.52 956.00,278.51 C936.12,278.50 935.35,278.58 930.52,281.00 C922.44,285.05 921.50,287.60 921.50,305.50 C921.50,317.58 921.82,321.08 923.15,323.50 C926.37,329.33 930.53,331.77 940.00,333.40 C941.38,333.64 950.38,333.73 960.00,333.60 C973.22,333.43 978.36,332.99 981.00,331.82 ZM 1014.00 306.00 L 1014.00 278.00 L 1005.50 278.00 L 997.00 278.00 L 997.00 306.00 L 997.00 334.00 L 1005.50 334.00 L 1014.00 334.00 L 1014.00 306.00 ZM 1068.00 306.00 L 1068.00 278.00 L 1059.50 278.00 L 1051.00 278.00 L 1051.00 287.98 L 1051.00 297.95 L 1033.52 298.23 L 1016.04 298.50 L 1019.18 305.25 L 1022.31 312.00 L 1036.66 312.00 L 1051.00 312.00 L 1051.00 323.00 L 1051.00 334.00 L 1059.50 334.00 L 1068.00 334.00 L 1068.00 306.00 ZM 908.00 310.44 C908.00,310.12 907.04,307.65 905.88,304.94 L 903.75 300.00 L 887.38 300.00 C878.37,300.00 871.00,300.39 871.00,300.87 C871.00,301.35 871.92,303.83 873.05,306.37 L 875.09 311.00 L 891.55 311.00 C900.60,311.00 908.00,310.75 908.00,310.44 ZM 846.00 284.50 L 846.00 278.00 L 813.50 278.00 L 781.00 278.00 L 781.00 284.50 L 781.00 291.00 L 813.50 291.00 L 846.00 291.00 L 846.00 284.50 ZM 285.81 287.31 C286.07,285.48 285.41,284.92 281.90,283.97 C279.58,283.35 276.41,281.56 274.84,280.00 C271.25,276.41 271.07,270.84 274.13,258.15 L 276.25 249.32 L 283.88 248.16 C294.67,246.53 306.35,240.60 314.44,232.66 C321.29,225.94 328.33,213.19 329.58,205.25 L 330.26 201.00 L 317.17 201.00 L 304.09 201.00 L 303.05 204.75 C302.48,206.81 302.01,209.42 302.01,210.55 C302.00,213.37 295.14,223.58 289.75,228.81 C283.29,235.07 275.32,236.96 255.25,236.98 C242.96,237.00 240.00,236.73 240.00,235.62 C240.00,234.87 244.05,218.26 249.00,198.72 C253.95,179.18 258.00,162.70 258.00,162.10 C258.00,161.36 253.78,161.00 245.08,161.00 L 232.16 161.00 L 231.13 164.25 C230.57,166.04 226.90,180.31 222.98,195.96 C219.06,211.61 215.27,225.82 214.55,227.53 C211.51,234.81 202.86,241.62 195.00,242.94 C192.11,243.42 191.45,244.00 191.18,246.26 L 190.87 249.00 L 219.93 249.00 C248.98,249.00 249.00,249.00 249.00,251.14 C249.00,254.09 245.17,266.74 242.98,271.00 C239.77,277.25 232.10,282.76 224.25,284.46 C222.46,284.84 221.00,285.54 221.00,286.00 C221.00,286.46 220.72,287.55 220.39,288.43 C219.83,289.88 222.90,290.00 252.64,289.76 L 285.50 289.50 L 285.81 287.31 ZM 583.59 260.56 C594.67,257.21 601.98,248.83 604.00,237.18 C604.77,232.69 605.04,218.26 604.83,193.16 L 604.50 155.83 L 601.69 153.41 C596.38,148.85 588.73,151.60 587.42,158.55 C587.07,160.46 586.43,162.23 586.01,162.49 C585.59,162.75 583.26,161.22 580.83,159.09 C568.38,148.12 549.97,148.53 538.33,160.04 C522.85,175.33 523.59,208.90 539.73,223.07 C545.97,228.54 551.44,230.49 560.50,230.44 C569.30,230.40 572.42,229.24 579.74,223.31 C582.08,221.42 584.43,220.15 584.98,220.49 C586.49,221.42 585.03,235.87 582.92,240.78 C580.50,246.41 575.22,248.95 565.82,248.98 C556.90,249.01 554.71,248.02 546.74,240.31 C540.60,234.39 539.65,233.82 536.84,234.38 C529.85,235.78 527.89,243.24 532.73,249.98 C536.88,255.75 545.47,260.33 556.00,262.38 C560.64,263.28 578.46,262.10 583.59,260.56 ZM 951.00 261.96 C964.76,259.78 973.42,252.87 977.02,241.19 C978.84,235.29 979.00,231.81 979.00,196.93 C979.00,163.83 978.79,158.63 977.35,155.61 C975.72,152.19 973.68,151.04 969.17,151.01 C966.07,151.00 961.00,156.17 961.00,159.36 C961.00,163.11 959.61,163.30 956.18,160.03 C944.23,148.60 924.04,148.34 912.59,159.46 C902.61,169.16 898.84,185.14 902.48,202.31 C906.33,220.48 919.98,231.97 936.15,230.67 C943.72,230.06 950.90,226.87 955.40,222.13 C957.00,220.45 958.70,219.32 959.19,219.62 C959.67,219.92 959.80,223.61 959.47,227.83 C958.21,243.86 954.41,248.09 940.67,248.77 C933.51,249.12 931.95,248.87 928.00,246.77 C925.53,245.45 922.60,242.99 921.50,241.30 C918.47,236.66 913.58,233.64 910.39,234.44 C906.58,235.39 904.07,238.88 904.03,243.27 C904.01,246.30 904.78,247.89 907.96,251.34 C916.76,260.89 932.78,264.84 951.00,261.96 ZM 437.76 229.99 C440.28,228.87 444.23,226.41 446.54,224.52 C450.92,220.93 452.00,220.91 452.00,224.42 C452.01,227.89 456.11,232.00 460.20,232.66 C463.40,233.17 464.32,232.83 466.95,230.20 L 470.00 227.15 L 470.00 177.62 C470.00,142.94 469.66,127.35 468.87,125.61 C466.29,119.96 457.32,119.79 453.93,125.35 C452.24,128.11 452.01,130.48 452.00,144.58 C452.00,153.43 451.74,160.93 451.42,161.25 C451.10,161.57 448.36,160.09 445.32,157.96 C437.50,152.48 431.23,150.61 423.03,151.29 C402.43,153.02 390.80,169.37 392.29,194.50 C392.93,205.38 395.66,213.72 400.76,220.40 C404.55,225.36 412.36,230.57 418.33,232.10 C423.06,233.31 432.58,232.28 437.76,229.99 ZM 504.84 231.59 C510.02,228.90 510.10,228.25 509.79,190.66 L 509.50 155.82 L 507.12 153.90 C505.82,152.84 503.63,151.69 502.27,151.35 C498.88,150.50 493.18,153.38 491.98,156.56 C491.41,158.06 491.01,173.21 491.03,192.82 C491.06,223.25 491.23,226.70 492.80,228.57 C496.51,233.01 500.26,233.95 504.84,231.59 ZM 641.60 229.60 L 645.00 226.20 L 645.00 192.67 C645.00,174.22 644.60,158.07 644.11,156.78 C643.61,155.49 641.66,153.59 639.76,152.57 C635.63,150.35 631.94,150.97 628.41,154.50 L 626.00 156.91 L 626.04 191.20 C626.07,227.86 626.20,228.88 631.11,231.60 C635.06,233.79 637.96,233.24 641.60,229.60 ZM 684.06 230.74 C685.91,229.50 687.73,227.36 688.11,225.99 C688.49,224.62 688.85,214.61 688.90,203.75 L 689.00 184.00 L 707.93 184.00 C718.62,184.00 728.06,183.55 729.60,182.96 C735.12,180.86 736.67,175.23 732.92,170.90 C730.86,168.53 730.57,168.50 709.92,168.18 L 689.00 167.86 L 689.00 153.98 L 689.00 140.10 L 713.59 139.80 C738.06,139.50 738.19,139.49 740.09,137.14 C741.14,135.84 742.00,133.52 742.00,131.97 C742.00,123.39 740.50,123.00 707.30,123.01 C691.33,123.01 677.92,123.45 675.80,124.04 C673.76,124.61 671.17,126.24 670.05,127.67 C668.05,130.21 668.00,131.43 668.00,178.45 L 668.00 226.63 L 670.75 229.19 C675.52,233.63 679.14,234.06 684.06,230.74 ZM 801.86 230.15 C812.55,226.08 820.35,217.94 824.02,207.00 C825.84,201.56 826.14,198.78 825.84,189.93 C825.50,180.04 825.23,178.86 821.65,171.61 C818.44,165.12 816.85,163.15 811.79,159.43 C803.80,153.54 796.88,151.48 785.50,151.61 C767.90,151.80 755.92,159.88 749.34,176.00 C746.49,182.98 746.80,201.49 749.90,209.33 C754.07,219.88 765.73,229.58 777.13,231.99 C783.44,233.32 795.95,232.39 801.86,230.15 ZM 857.29 231.91 C862.14,229.70 863.00,226.46 863.00,210.32 C863.00,184.49 865.60,172.62 872.00,169.24 C874.41,167.96 877.07,168.03 889.63,169.65 C893.04,170.09 894.12,169.79 895.88,167.90 C900.10,163.37 897.97,157.22 891.14,154.17 C880.50,149.43 875.02,150.03 867.86,156.73 C865.17,159.25 862.85,161.12 862.69,160.90 C862.54,160.68 861.99,159.20 861.46,157.60 C860.93,156.01 859.27,153.79 857.77,152.67 C853.81,149.73 848.35,151.21 845.55,156.00 C843.60,159.34 843.50,161.04 843.50,192.54 C843.50,222.74 843.66,225.83 845.31,228.35 C848.09,232.60 852.75,233.98 857.29,231.91 ZM 1043.07 231.89 C1050.11,230.38 1056.39,227.48 1060.60,223.78 C1064.40,220.44 1068.00,214.28 1068.00,211.11 C1068.00,208.99 1063.19,205.00 1060.65,205.00 C1059.80,205.00 1056.46,207.20 1053.23,209.89 C1043.89,217.66 1039.86,219.33 1031.83,218.76 C1026.47,218.37 1024.30,217.70 1021.51,215.58 C1017.43,212.46 1014.33,206.94 1013.40,201.09 L 1012.74 197.00 L 1034.43 197.00 C1059.52,197.00 1064.25,196.22 1067.17,191.61 C1071.69,184.46 1066.69,168.30 1057.45,160.16 C1049.10,152.81 1035.87,149.59 1023.82,151.96 C1012.07,154.27 1003.78,159.98 998.58,169.33 C987.20,189.84 993.78,218.71 1011.97,227.98 C1020.71,232.45 1033.18,234.01 1043.07,231.89 ZM 276.50 230.21 L 281.50 228.50 L 285.32 213.50 C287.42,205.25 289.32,197.94 289.54,197.25 C289.84,196.29 295.77,196.00 314.72,196.00 C337.68,196.01 339.74,196.15 342.76,197.99 C347.05,200.61 349.99,205.60 350.00,210.25 C350.00,213.70 350.22,214.00 352.85,214.00 L 355.69 214.00 L 361.37 191.75 C364.49,179.51 367.31,168.49 367.64,167.25 C368.13,165.38 367.83,165.00 365.85,165.00 C364.03,165.00 362.70,166.28 360.26,170.36 C356.56,176.54 351.82,180.50 345.54,182.64 C340.67,184.30 335.38,184.14 335.72,182.35 C335.84,181.72 336.69,177.33 337.62,172.59 C339.75,161.78 338.63,155.66 333.00,147.26 C328.07,139.91 321.05,135.24 312.70,133.76 C309.29,133.15 306.40,132.59 306.28,132.52 C305.82,132.25 311.15,112.46 311.89,111.71 C312.32,111.28 329.54,111.06 350.16,111.21 L 387.65 111.50 L 391.90 114.32 C394.37,115.95 396.76,118.57 397.59,120.57 C400.70,128.01 403.64,122.91 408.42,101.75 L 409.04 99.00 L 338.52 99.00 L 268.00 99.00 L 268.00 101.39 C268.00,103.25 269.06,104.31 272.75,106.14 C278.17,108.83 282.00,113.89 282.00,118.35 C282.00,120.04 280.69,126.83 279.09,133.46 C277.50,140.08 275.66,148.43 275.01,152.00 C274.37,155.57 273.22,159.85 272.46,161.50 C271.70,163.15 267.44,178.90 262.99,196.50 C258.54,214.10 254.66,229.29 254.38,230.25 C253.92,231.83 254.74,232.00 262.68,231.96 C268.27,231.93 273.33,231.29 276.50,230.21 ZM 184.77 178.75 L 184.50 162.50 L 168.25 162.23 L 152.00 161.95 L 152.00 178.48 L 152.00 195.00 L 168.52 195.00 L 185.05 195.00 L 184.77 178.75 ZM 256.00 132.00 L 256.00 107.00 L 231.00 107.00 L 206.00 107.00 L 206.00 132.00 L 206.00 157.00 L 231.00 157.00 L 256.00 157.00 L 256.00 132.00 ZM 266.26 145.19 C268.23,145.03 270.25,144.35 270.75,143.69 C271.58,142.60 274.00,135.10 274.00,133.63 C274.00,133.29 270.85,133.00 267.00,133.00 L 260.00 133.00 L 260.08 142.75 C260.15,151.81 260.24,152.25 261.41,149.00 C262.49,145.99 263.17,145.46 266.26,145.19 ZM 165.00 138.00 L 165.00 127.00 L 154.13 127.00 L 143.27 127.00 L 142.81 133.75 C142.56,137.46 142.54,142.41 142.78,144.75 L 143.21 149.00 L 154.11 149.00 L 165.00 149.00 L 165.00 138.00 ZM 505.02 139.49 C511.92,135.92 511.83,127.03 504.85,123.42 C498.27,120.02 491.00,124.50 491.00,131.96 C491.00,138.97 498.37,142.93 505.02,139.49 ZM 640.02 139.49 C645.53,136.64 646.71,130.10 642.59,125.31 C640.61,123.00 639.36,122.50 635.67,122.50 C629.12,122.50 625.80,125.80 626.20,131.93 C626.46,135.78 626.99,136.76 629.90,138.72 C633.88,141.39 636.03,141.56 640.02,139.49 ZM 194.00 97.00 L 194.00 80.00 L 176.50 80.00 L 159.00 80.00 L 159.00 97.00 L 159.00 114.00 L 176.50 114.00 L 194.00 114.00 L 194.00 97.00 ZM 278.77 68.25 L 279.04 47.00 L 257.52 47.00 L 236.00 47.00 L 236.00 68.52 L 236.00 90.04 L 257.25 89.77 L 278.50 89.50 L 278.77 68.25 ZM 144.00 59.50 L 144.00 51.00 L 134.50 51.00 L 125.00 51.00 L 125.00 59.50 L 125.00 68.00 L 134.50 68.00 L 144.00 68.00 L 144.00 59.50 ZM 204.78 46.25 L 205.07 36.00 L 194.53 36.00 L 184.00 36.00 L 184.00 46.53 L 184.00 57.07 L 194.25 56.78 L 204.50 56.50 L 204.78 46.25 ZM 560.41 214.97 C556.36,213.73 551.44,208.95 549.39,204.26 C547.01,198.83 546.97,184.88 549.31,178.81 C551.56,172.98 557.61,167.35 562.65,166.41 C567.62,165.47 574.80,167.45 578.18,170.68 C585.51,177.69 587.90,194.88 582.90,204.61 C578.44,213.27 569.01,217.62 560.41,214.97 ZM 932.35 213.94 C926.94,211.26 923.27,205.84 921.91,198.49 C920.50,190.84 921.48,182.83 924.65,176.22 C926.71,171.92 928.08,170.49 932.05,168.47 C937.88,165.52 942.04,165.38 947.69,167.95 C958.30,172.76 963.02,190.39 957.36,203.99 C955.39,208.71 952.28,211.90 947.50,214.11 C942.26,216.53 937.46,216.47 932.35,213.94 ZM 426.24 217.15 C422.24,216.00 416.82,210.85 414.80,206.28 C411.96,199.87 411.34,188.79 413.41,181.66 C418.76,163.26 438.64,160.76 447.23,177.41 C450.14,183.05 450.82,195.68 448.61,203.28 C445.46,214.11 436.01,219.96 426.24,217.15 ZM 779.46 216.12 C770.79,212.18 766.39,202.79 767.26,190.08 C768.09,177.94 771.63,171.52 779.50,167.89 C787.79,164.07 796.67,166.77 801.93,174.71 C805.70,180.40 806.36,183.80 805.80,194.80 C805.24,205.78 802.84,210.88 796.26,215.05 C790.77,218.53 785.51,218.87 779.46,216.12 ZM 1014.02 182.25 C1014.05,178.16 1017.30,171.77 1020.86,168.77 C1024.33,165.85 1030.99,164.40 1035.93,165.49 C1042.29,166.88 1049.00,175.34 1049.00,181.96 L 1049.00 185.00 L 1031.50 185.00 L 1014.00 185.00 L 1014.02 182.25 ZM 295.01 184.03 C293.73,183.22 294.14,180.60 298.01,165.04 C302.89,145.43 303.42,144.64 308.19,149.75 C313.70,155.65 314.17,159.46 310.98,172.33 C307.81,185.12 307.90,185.00 301.77,184.98 C298.87,184.98 295.83,184.55 295.01,184.03 Z" fill="rgb(254,254,254)"/>
</g>
</svg>