<svg width="215" height="158" viewBox="0 0 215 158" fill="none" xmlns="http://www.w3.org/2000/svg">
<path d="M107.481 90.6502C84.0655 90.6502 65.1005 71.6851 65.1005 48.2701C65.1005 24.8551 84.0655 5.89001 107.481 5.89001C130.896 5.89001 149.861 24.8551 149.861 48.2701C149.861 71.6851 130.896 90.6502 107.481 90.6502Z" fill="url(#paint0_linear_103_268)"/>
<path d="M95.6745 32.5499C92.8799 34.8716 90.6871 37.9242 89.5262 41.4498C88.8813 43.3416 88.5374 45.4054 88.5374 47.5121V70.4284C88.5374 72.4062 86.9466 73.997 84.9688 73.997C82.991 73.997 81.4002 72.4062 81.4002 70.4284V47.5121C81.4002 40.5469 84.1089 34.1837 88.4944 29.4972C91.504 26.2726 95.3306 23.7789 99.6301 22.4031C101.952 21.6292 104.316 23.349 104.316 25.7567C104.316 27.3045 103.328 28.6373 101.866 29.1533C99.5871 29.8412 97.4803 31.0451 95.6745 32.5499Z" fill="#F58220"/>
<path d="M134.369 47.3401C134.455 61.8294 122.674 73.825 108.185 73.954C108.099 73.954 107.97 73.954 107.884 73.954C101.134 73.954 95.6733 68.4506 95.6733 61.7004V47.6841C95.6733 47.6411 95.6733 47.5551 95.6733 47.5121C95.6733 40.461 101.65 34.7856 108.787 35.3016C114.849 35.7315 119.75 40.6759 120.137 46.7382C120.395 50.9087 118.547 54.6923 115.58 57.057C113.301 58.9058 109.862 57.186 109.862 54.2623C109.862 53.1875 110.335 52.1986 111.151 51.5107C112.355 50.5218 113.086 49.0169 113.043 47.3831C112.957 44.7175 110.808 42.5247 108.142 42.3957C105.175 42.2667 102.724 44.6315 102.724 47.5551C102.724 47.5981 102.724 47.6841 102.724 47.7271V61.3565C102.724 64.4521 105.261 66.9888 108.357 66.9028C108.4 66.9028 108.486 66.9028 108.529 66.9028C118.375 66.5589 126.501 58.7338 127.189 48.888C127.791 39.73 122.029 31.819 113.86 29.1533C112.398 28.6804 111.409 27.3475 111.409 25.8427V25.7137C111.409 23.349 113.688 21.6292 115.967 22.3601C126.587 25.7137 134.283 35.6025 134.369 47.3401Z" fill="#F58220"/>
<path d="M154.75 48.2701C154.75 74.3766 133.587 95.5402 107.48 95.5402C81.3736 95.5402 60.21 74.3766 60.21 48.2701C60.21 22.1635 81.3736 1 107.48 1C133.587 1 154.75 22.1635 154.75 48.2701Z" stroke="white" stroke-width="2"/>
<path d="M0 149.176V117.8H12.3787C14.7584 117.8 16.7858 118.254 18.4608 119.163C20.1358 120.062 21.4125 121.313 22.2908 122.917C23.1794 124.51 23.6237 126.349 23.6237 128.432C23.6237 130.516 23.1743 132.354 22.2755 133.947C21.3767 135.541 20.0745 136.782 18.3689 137.67C16.6734 138.559 14.6205 139.003 12.2102 139.003H4.32028V133.687H11.1377C12.4144 133.687 13.4664 133.467 14.2937 133.028C15.1312 132.579 15.7542 131.961 16.1628 131.174C16.5815 130.378 16.7909 129.464 16.7909 128.432C16.7909 127.39 16.5815 126.481 16.1628 125.705C15.7542 124.919 15.1312 124.311 14.2937 123.882C13.4562 123.443 12.394 123.223 11.1071 123.223H6.63362V149.176H0Z" fill="white"/>
<path d="M38.0629 149.635C35.6832 149.635 33.6252 149.13 31.8889 148.119C30.1628 147.097 28.83 145.677 27.8903 143.86C26.9507 142.031 26.4809 139.912 26.4809 137.502C26.4809 135.071 26.9507 132.946 27.8903 131.128C28.83 129.3 30.1628 127.881 31.8889 126.869C33.6252 125.848 35.6832 125.337 38.0629 125.337C40.4426 125.337 42.4955 125.848 44.2216 126.869C45.9579 127.881 47.2959 129.3 48.2355 131.128C49.1751 132.946 49.6449 135.071 49.6449 137.502C49.6449 139.912 49.1751 142.031 48.2355 143.86C47.2959 145.677 45.9579 147.097 44.2216 148.119C42.4955 149.13 40.4426 149.635 38.0629 149.635ZM38.0935 144.58C39.1762 144.58 40.0801 144.273 40.8052 143.66C41.5304 143.037 42.0768 142.19 42.4445 141.117C42.8224 140.045 43.0113 138.824 43.0113 137.456C43.0113 136.087 42.8224 134.867 42.4445 133.794C42.0768 132.722 41.5304 131.874 40.8052 131.251C40.0801 130.628 39.1762 130.316 38.0935 130.316C37.0007 130.316 36.0815 130.628 35.3359 131.251C34.6006 131.874 34.0439 132.722 33.666 133.794C33.2983 134.867 33.1145 136.087 33.1145 137.456C33.1145 138.824 33.2983 140.045 33.666 141.117C34.0439 142.19 34.6006 143.037 35.3359 143.66C36.0815 144.273 37.0007 144.58 38.0935 144.58Z" fill="white"/>
<path d="M60.415 117.8V149.176H53.8886V117.8H60.415Z" fill="white"/>
<path d="M65.643 149.176V125.644H72.1694V149.176H65.643ZM68.9215 122.61C67.9512 122.61 67.1189 122.289 66.4243 121.645C65.74 120.992 65.3979 120.21 65.3979 119.301C65.3979 118.403 65.74 117.631 66.4243 116.988C67.1189 116.334 67.9512 116.007 68.9215 116.007C69.8918 116.007 70.7191 116.334 71.4034 116.988C72.0979 117.631 72.4452 118.403 72.4452 119.301C72.4452 120.21 72.0979 120.992 71.4034 121.645C70.7191 122.289 69.8918 122.61 68.9215 122.61Z" fill="white"/>
<path d="M88.0296 149.635C85.6192 149.635 83.5459 149.125 81.8096 148.103C80.0835 147.072 78.7558 145.642 77.8264 143.814C76.9072 141.985 76.4475 139.881 76.4475 137.502C76.4475 135.091 76.9123 132.977 77.8417 131.159C78.7813 129.331 80.1142 127.906 81.8402 126.885C83.5663 125.853 85.6192 125.337 87.9989 125.337C90.0518 125.337 91.8494 125.71 93.3916 126.456C94.9338 127.201 96.1544 128.248 97.0531 129.596C97.9519 130.945 98.4473 132.528 98.5392 134.346H92.3805C92.2069 133.171 91.7473 132.226 91.0017 131.511C90.2663 130.786 89.3011 130.424 88.1062 130.424C87.095 130.424 86.2116 130.7 85.4558 131.251C84.7102 131.792 84.128 132.584 83.7093 133.626C83.2905 134.667 83.0812 135.929 83.0812 137.41C83.0812 138.911 83.2854 140.188 83.694 141.24C84.1127 142.292 84.7 143.094 85.4558 143.645C86.2116 144.197 87.095 144.472 88.1062 144.472C88.8518 144.472 89.5207 144.319 90.1131 144.013C90.7157 143.706 91.2111 143.262 91.5992 142.68C91.9975 142.087 92.2579 141.378 92.3805 140.55H98.5392C98.4371 142.348 97.9468 143.931 97.0685 145.3C96.2003 146.658 95.0002 147.72 93.4682 148.486C91.9362 149.252 90.1233 149.635 88.0296 149.635Z" fill="white"/>
<path d="M106.747 158C105.92 158 105.143 157.934 104.418 157.801C103.703 157.678 103.111 157.52 102.641 157.326L104.112 152.454C104.878 152.689 105.567 152.817 106.18 152.837C106.803 152.858 107.339 152.715 107.789 152.408C108.248 152.102 108.621 151.581 108.907 150.845L109.29 149.85L100.849 125.644H107.712L112.584 142.925H112.829L117.747 125.644H124.656L115.51 151.719C115.071 152.985 114.473 154.088 113.718 155.028C112.972 155.978 112.027 156.708 110.883 157.219C109.739 157.74 108.361 158 106.747 158Z" fill="white"/>
<path d="M128.119 149.176V117.8H140.497C142.877 117.8 144.904 118.254 146.579 119.163C148.254 120.062 149.531 121.313 150.409 122.917C151.298 124.51 151.742 126.349 151.742 128.432C151.742 130.516 151.293 132.354 150.394 133.947C149.495 135.541 148.193 136.782 146.487 137.67C144.792 138.559 142.739 139.003 140.329 139.003H132.439V133.687H139.256C140.533 133.687 141.585 133.467 142.412 133.028C143.25 132.579 143.873 131.961 144.281 131.174C144.7 130.378 144.909 129.464 144.909 128.432C144.909 127.39 144.7 126.481 144.281 125.705C143.873 124.919 143.25 124.311 142.412 123.882C141.575 123.443 140.513 123.223 139.226 123.223H134.752V149.176H128.119Z" fill="white"/>
<path d="M162.455 117.8V149.176H155.928V117.8H162.455Z" fill="white"/>
<path d="M182.773 139.156V125.644H189.3V149.176H183.034V144.901H182.789C182.257 146.28 181.374 147.388 180.138 148.226C178.913 149.063 177.416 149.482 175.649 149.482C174.076 149.482 172.693 149.125 171.498 148.41C170.303 147.695 169.368 146.678 168.694 145.361C168.03 144.043 167.693 142.465 167.683 140.627V125.644H174.209V139.463C174.219 140.852 174.592 141.95 175.328 142.756C176.063 143.563 177.049 143.967 178.284 143.967C179.071 143.967 179.806 143.788 180.49 143.431C181.175 143.063 181.726 142.522 182.145 141.807C182.574 141.092 182.783 140.208 182.773 139.156Z" fill="white"/>
<path d="M214.099 132.354L208.124 132.722C208.022 132.211 207.802 131.751 207.465 131.343C207.128 130.924 206.684 130.592 206.133 130.347C205.591 130.092 204.943 129.964 204.187 129.964C203.176 129.964 202.323 130.179 201.628 130.608C200.934 131.026 200.587 131.588 200.587 132.293C200.587 132.855 200.811 133.329 201.261 133.718C201.71 134.106 202.481 134.417 203.574 134.652L207.833 135.51C210.121 135.98 211.827 136.736 212.95 137.777C214.074 138.819 214.635 140.188 214.635 141.883C214.635 143.425 214.181 144.779 213.272 145.943C212.373 147.107 211.137 148.016 209.564 148.67C208.002 149.313 206.199 149.635 204.156 149.635C201.041 149.635 198.559 148.987 196.711 147.69C194.872 146.382 193.795 144.605 193.478 142.358L199.897 142.021C200.091 142.971 200.561 143.696 201.307 144.197C202.052 144.687 203.007 144.932 204.172 144.932C205.316 144.932 206.235 144.712 206.929 144.273C207.634 143.824 207.991 143.247 208.002 142.542C207.991 141.95 207.741 141.464 207.251 141.087C206.761 140.698 206.005 140.402 204.984 140.198L200.908 139.386C198.61 138.926 196.9 138.13 195.776 136.996C194.663 135.862 194.106 134.417 194.106 132.66C194.106 131.149 194.515 129.847 195.332 128.754C196.159 127.661 197.318 126.818 198.81 126.226C200.311 125.634 202.068 125.337 204.08 125.337C207.052 125.337 209.391 125.966 211.096 127.222C212.812 128.478 213.813 130.189 214.099 132.354Z" fill="white"/>
<defs>
<linearGradient id="paint0_linear_103_268" x1="65.1005" y1="48.2701" x2="149.861" y2="48.2701" gradientUnits="userSpaceOnUse">
<stop stop-color="white"/>
<stop offset="1" stop-color="#FFF5ED"/>
</linearGradient>
</defs>
</svg>
