<svg width="21" height="19" viewBox="0 0 21 19" fill="none" xmlns="http://www.w3.org/2000/svg">
<path d="M0.2275 1.62827C0.156285 1.68095 0.0991138 1.74613 0.059862 1.81941C0.0206102 1.89268 0.000194928 1.97233 0 2.05296V17.8123C0 17.9615 0.0691403 18.1046 0.192211 18.2101C0.315282 18.3156 0.482202 18.3748 0.65625 18.3748C0.830298 18.3748 0.997218 18.3156 1.12029 18.2101C1.24336 18.1046 1.3125 17.9615 1.3125 17.8123V13.573C4.38375 11.4364 6.98687 12.5417 9.99031 13.8139C11.7534 14.5639 13.6533 15.3683 15.6778 15.3683C17.162 15.3683 18.7141 14.937 20.3328 13.7351C20.4041 13.6829 20.4616 13.618 20.5012 13.5451C20.5408 13.4722 20.5617 13.3928 20.5625 13.3123V2.05296C20.5626 1.94507 20.5266 1.83942 20.4586 1.74861C20.3906 1.65781 20.2936 1.58567 20.1791 1.54081C20.0646 1.49595 19.9375 1.48025 19.8129 1.49559C19.6883 1.51093 19.5715 1.55667 19.4764 1.62734C16.3045 3.98234 13.6489 2.85452 10.5722 1.54859C7.52172 0.253898 4.04688 -1.20391 0.2275 1.62827ZM19.25 13.047C16.1787 15.1845 13.5756 14.0783 10.5722 12.8051C7.80938 11.6323 4.71297 10.3189 1.3125 12.1873V2.31734C4.38375 0.179836 6.98687 1.28609 9.99031 2.55734C12.7531 3.73015 15.8495 5.04359 19.25 3.1789V13.047Z" fill="#8391A1"/>
</svg>
