<svg width="26" height="26" viewBox="0 0 26 26" fill="none" xmlns="http://www.w3.org/2000/svg">
<path d="M13 2.4762C10.9186 2.4762 8.88392 3.09341 7.15329 4.24978C5.42266 5.40615 4.0738 7.04974 3.27728 8.97272C2.48076 10.8957 2.27235 13.0117 2.67841 15.0531C3.08448 17.0945 4.08677 18.9697 5.55855 20.4415C7.03033 21.9132 8.9055 22.9155 10.9469 23.3216C12.9883 23.7277 15.1043 23.5193 17.0273 22.7227C18.9503 21.9262 20.5939 20.5773 21.7502 18.8467C22.9066 17.1161 23.5238 15.0814 23.5238 13C23.5238 10.2089 22.4151 7.53215 20.4415 5.55855C18.4679 3.58495 15.7911 2.4762 13 2.4762Z" stroke="#8391A1" stroke-width="1.5" stroke-miterlimit="10"/>
<path d="M9.90479 9.81301C9.90479 9.81301 9.95121 8.87103 10.9865 8.05985C11.6005 7.5781 12.3368 7.43869 13 7.429C13.6041 7.42146 14.1436 7.51889 14.4664 7.66853C15.0191 7.92475 16.0953 8.55022 16.0953 9.88029C16.0953 11.2798 15.1556 11.9155 14.085 12.6147C13.0144 13.3139 12.7237 14.0729 12.7237 14.8572" stroke="#8391A1" stroke-width="1.5" stroke-miterlimit="10" stroke-linecap="round"/>
<path d="M12.381 19.8095C13.0648 19.8095 13.6191 19.2552 13.6191 18.5714C13.6191 17.8876 13.0648 17.3333 12.381 17.3333C11.6972 17.3333 11.1429 17.8876 11.1429 18.5714C11.1429 19.2552 11.6972 19.8095 12.381 19.8095Z" fill="#8391A1"/>
</svg>
