<svg width="22" height="27" viewBox="0 0 22 27" fill="none" xmlns="http://www.w3.org/2000/svg">
<path d="M11 16.2C11.7563 16.2 12.4039 15.9354 12.9429 15.4062C13.4819 14.877 13.7509 14.2416 13.75 13.5C13.75 12.7575 13.4805 12.1216 12.9415 11.5925C12.4025 11.0633 11.7553 10.7991 11 10.8C10.2437 10.8 9.59613 11.0646 9.05713 11.5938C8.51813 12.123 8.24908 12.7584 8.25 13.5C8.25 14.2425 8.5195 14.8784 9.0585 15.4076C9.5975 15.9368 10.2447 16.2009 11 16.2ZM11 27C7.81458 26.2125 5.18467 24.4179 3.11025 21.6162C1.03583 18.8145 -0.000916059 15.7041 6.07332e-07 12.285V4.05L11 0L22 4.05V12.285C22 13.7475 21.8052 15.1425 21.4156 16.47C21.026 17.7975 20.4875 19.0575 19.8 20.25L15.7437 16.2675C15.9958 15.84 16.1851 15.3954 16.3116 14.9337C16.4381 14.472 16.5009 13.9941 16.5 13.5C16.5 12.015 15.9615 10.7438 14.8844 9.68625C13.8073 8.62875 12.5125 8.1 11 8.1C9.4875 8.1 8.19271 8.62875 7.11563 9.68625C6.03854 10.7438 5.5 12.015 5.5 13.5C5.5 14.985 6.03854 16.2563 7.11563 17.3137C8.19271 18.3713 9.4875 18.9 11 18.9C11.4812 18.9 11.957 18.8379 12.4272 18.7137C12.8975 18.5895 13.3384 18.4041 13.75 18.1575L18.1844 22.5112C17.199 23.5912 16.1278 24.5138 14.971 25.2788C13.8142 26.0438 12.4905 26.6175 11 27Z" fill="white"/>
</svg>
