<svg width="145" height="173" viewBox="0 0 145 173" fill="none" xmlns="http://www.w3.org/2000/svg">
<g filter="url(#filter0_d_103_523)">
<rect x="10" y="5" width="125" height="153" rx="8" fill="#F7F8F9"/>
<path d="M25.8849 76V65.8182H29.9616C30.7107 65.8182 31.3355 65.9292 31.8359 66.1513C32.3364 66.3733 32.7126 66.6816 32.9645 67.076C33.2164 67.4671 33.3423 67.9179 33.3423 68.4283C33.3423 68.826 33.2628 69.1757 33.1037 69.4773C32.9446 69.7756 32.7259 70.0208 32.4474 70.2131C32.1723 70.402 31.8575 70.5362 31.5028 70.6158V70.7152C31.8906 70.7318 32.2536 70.8411 32.5916 71.0433C32.933 71.2455 33.2098 71.5289 33.4219 71.8935C33.634 72.2547 33.7401 72.6856 33.7401 73.1861C33.7401 73.7263 33.6058 74.2086 33.3374 74.6328C33.0722 75.0537 32.6795 75.3868 32.1591 75.6321C31.6387 75.8774 30.9974 76 30.2351 76H25.8849ZM28.0376 74.2401H29.7926C30.3925 74.2401 30.83 74.1257 31.1051 73.897C31.3802 73.665 31.5178 73.3568 31.5178 72.9723C31.5178 72.6906 31.4498 72.442 31.3139 72.2266C31.178 72.0111 30.9841 71.8421 30.7322 71.7195C30.4837 71.5968 30.187 71.5355 29.8423 71.5355H28.0376V74.2401ZM28.0376 70.0788H29.6335C29.9285 70.0788 30.1903 70.0275 30.419 69.9247C30.651 69.8187 30.8333 69.6695 30.9659 69.4773C31.1018 69.285 31.1697 69.0547 31.1697 68.7862C31.1697 68.4183 31.0388 68.1217 30.777 67.8963C30.5185 67.6709 30.1506 67.5582 29.6733 67.5582H28.0376V70.0788ZM38.5811 76.1491C37.7956 76.1491 37.1195 75.9901 36.5527 75.6719C35.9893 75.3504 35.5551 74.8963 35.2502 74.3097C34.9453 73.7197 34.7928 73.022 34.7928 72.2166C34.7928 71.4311 34.9453 70.7417 35.2502 70.1484C35.5551 69.5552 35.9843 69.0928 36.5378 68.7614C37.0946 68.4299 37.7476 68.2642 38.4966 68.2642C39.0004 68.2642 39.4694 68.3454 39.9036 68.5078C40.3411 68.6669 40.7222 68.9072 41.0471 69.2287C41.3752 69.5502 41.6304 69.9545 41.8127 70.4418C41.995 70.9257 42.0861 71.4924 42.0861 72.142V72.7237H35.638V71.4112H40.0925C40.0925 71.1063 40.0262 70.8362 39.8936 70.6009C39.7611 70.3655 39.5771 70.1816 39.3418 70.049C39.1098 69.9131 38.8397 69.8452 38.5314 69.8452C38.2099 69.8452 37.9249 69.9197 37.6763 70.0689C37.431 70.2147 37.2388 70.4119 37.0996 70.6605C36.9604 70.9058 36.8891 71.1792 36.8858 71.4808V72.7287C36.8858 73.1065 36.9554 73.433 37.0946 73.7081C37.2372 73.9832 37.4377 74.1953 37.6962 74.3445C37.9547 74.4936 38.2613 74.5682 38.6159 74.5682C38.8513 74.5682 39.0667 74.535 39.2623 74.4688C39.4578 74.4025 39.6252 74.303 39.7644 74.1705C39.9036 74.0379 40.0096 73.8755 40.0826 73.6832L42.0414 73.8125C41.9419 74.2831 41.7381 74.6941 41.4299 75.0455C41.1249 75.3935 40.7305 75.6652 40.2466 75.8608C39.766 76.053 39.2109 76.1491 38.5811 76.1491ZM49.8219 70.5412L47.883 70.6605C47.8498 70.4948 47.7786 70.3456 47.6692 70.2131C47.5598 70.0772 47.4157 69.9695 47.2367 69.8899C47.061 69.8071 46.8506 69.7656 46.6053 69.7656C46.2772 69.7656 46.0004 69.8352 45.775 69.9744C45.5497 70.1103 45.437 70.2926 45.437 70.5213C45.437 70.7036 45.5099 70.8577 45.6557 70.9837C45.8016 71.1096 46.0518 71.2107 46.4064 71.2869L47.7885 71.5653C48.531 71.7178 49.0845 71.9631 49.449 72.3011C49.8136 72.6392 49.9959 73.0833 49.9959 73.6335C49.9959 74.134 49.8484 74.5732 49.5534 74.951C49.2618 75.3288 48.8607 75.6238 48.3503 75.8359C47.8432 76.0447 47.2582 76.1491 46.5953 76.1491C45.5845 76.1491 44.7791 75.9387 44.1792 75.5178C43.5826 75.0935 43.2329 74.5168 43.1301 73.7876L45.2132 73.6783C45.2762 73.9865 45.4287 74.2218 45.6706 74.3842C45.9126 74.5433 46.2225 74.6229 46.6003 74.6229C46.9715 74.6229 47.2698 74.5516 47.4952 74.4091C47.7239 74.2633 47.8399 74.076 47.8432 73.8473C47.8399 73.6551 47.7587 73.4976 47.5996 73.375C47.4405 73.2491 47.1953 73.1529 46.8638 73.0866L45.5414 72.8232C44.7956 72.674 44.2405 72.4155 43.8759 72.0476C43.5146 71.6797 43.334 71.2107 43.334 70.6406C43.334 70.1501 43.4666 69.7275 43.7317 69.3729C44.0002 69.0182 44.3764 68.7448 44.8603 68.5526C45.3475 68.3603 45.9176 68.2642 46.5705 68.2642C47.535 68.2642 48.294 68.468 48.8475 68.8757C49.4043 69.2834 49.7291 69.8385 49.8219 70.5412ZM55.3913 68.3636V69.9545H50.7926V68.3636H55.3913ZM51.8366 66.5341H53.9545V73.6534C53.9545 73.849 53.9844 74.0014 54.044 74.1108C54.1037 74.2169 54.1866 74.2914 54.2926 74.3345C54.402 74.3776 54.5279 74.3991 54.6705 74.3991C54.7699 74.3991 54.8693 74.3909 54.9688 74.3743C55.0682 74.3544 55.1444 74.3395 55.1974 74.3295L55.5305 75.9055C55.4245 75.9387 55.2753 75.9768 55.0831 76.0199C54.8909 76.0663 54.6572 76.0945 54.3821 76.1044C53.8717 76.1243 53.4242 76.0563 53.0398 75.9006C52.6586 75.7448 52.362 75.5028 52.1499 75.1747C51.9377 74.8466 51.8333 74.4323 51.8366 73.9318V66.5341ZM60.051 76V65.8182H64.068C64.8403 65.8182 65.4982 65.9657 66.0417 66.2607C66.5853 66.5523 66.9996 66.9583 67.2846 67.4787C67.573 67.9957 67.7172 68.5923 67.7172 69.2685C67.7172 69.9446 67.5713 70.5412 67.2797 71.0582C66.988 71.5753 66.5654 71.978 66.0119 72.2663C65.4617 72.5547 64.7955 72.6989 64.0133 72.6989H61.4529V70.9737H63.6653C64.0796 70.9737 64.421 70.9025 64.6895 70.7599C64.9612 70.6141 65.1634 70.4136 65.296 70.1584C65.4319 69.8999 65.4998 69.6032 65.4998 69.2685C65.4998 68.9304 65.4319 68.6354 65.296 68.3835C65.1634 68.1283 64.9612 67.9311 64.6895 67.7919C64.4177 67.6494 64.073 67.5781 63.6554 67.5781H62.2037V76H60.051ZM69.0756 76V68.3636H71.1289V69.696H71.2085C71.3477 69.2221 71.5813 68.8641 71.9094 68.6222C72.2376 68.3769 72.6154 68.2543 73.043 68.2543C73.149 68.2543 73.2634 68.2609 73.386 68.2741C73.5086 68.2874 73.6164 68.3056 73.7092 68.3288V70.2081C73.6097 70.1783 73.4722 70.1518 73.2965 70.1286C73.1209 70.1054 72.9601 70.0938 72.8143 70.0938C72.5027 70.0938 72.2243 70.1617 71.979 70.2976C71.7371 70.4302 71.5449 70.6158 71.4023 70.8544C71.2631 71.093 71.1935 71.3681 71.1935 71.6797V76H69.0756ZM74.8042 76V68.3636H76.9221V76H74.8042ZM75.8681 67.3793C75.5532 67.3793 75.2831 67.2749 75.0577 67.0661C74.8356 66.8539 74.7246 66.6004 74.7246 66.3054C74.7246 66.0137 74.8356 65.7635 75.0577 65.5547C75.2831 65.3426 75.5532 65.2365 75.8681 65.2365C76.1829 65.2365 76.4514 65.3426 76.6735 65.5547C76.8989 65.7635 77.0115 66.0137 77.0115 66.3054C77.0115 66.6004 76.8989 66.8539 76.6735 67.0661C76.4514 67.2749 76.1829 67.3793 75.8681 67.3793ZM82.0689 76.1491C81.2867 76.1491 80.6139 75.9834 80.0504 75.652C79.4903 75.3172 79.0594 74.8532 78.7578 74.2599C78.4595 73.6667 78.3104 72.9839 78.3104 72.2116C78.3104 71.4295 78.4612 70.7434 78.7628 70.1534C79.0677 69.5601 79.5002 69.0978 80.0604 68.7663C80.6205 68.4316 81.2867 68.2642 82.0589 68.2642C82.7251 68.2642 83.3085 68.3852 83.8089 68.6271C84.3094 68.8691 84.7055 69.2088 84.9972 69.6463C85.2888 70.0838 85.4496 70.5975 85.4794 71.1875H83.4808C83.4245 70.8063 83.2753 70.4998 83.0334 70.2678C82.7947 70.0324 82.4815 69.9148 82.0938 69.9148C81.7656 69.9148 81.4789 70.0043 81.2337 70.1832C80.9917 70.3589 80.8028 70.6158 80.6669 70.9538C80.531 71.2919 80.4631 71.7012 80.4631 72.1818C80.4631 72.669 80.5294 73.0833 80.6619 73.4247C80.7978 73.7661 80.9884 74.0263 81.2337 74.2053C81.4789 74.3842 81.7656 74.4737 82.0938 74.4737C82.3357 74.4737 82.5528 74.424 82.745 74.3246C82.9406 74.2251 83.1013 74.081 83.2273 73.892C83.3565 73.6998 83.4411 73.4695 83.4808 73.201H85.4794C85.4463 73.7843 85.2872 74.2981 85.0021 74.7422C84.7204 75.183 84.331 75.5277 83.8338 75.7763C83.3366 76.0249 82.7483 76.1491 82.0689 76.1491ZM90.3155 76.1491C89.53 76.1491 88.8539 75.9901 88.2871 75.6719C87.7237 75.3504 87.2895 74.8963 86.9846 74.3097C86.6796 73.7197 86.5272 73.022 86.5272 72.2166C86.5272 71.4311 86.6796 70.7417 86.9846 70.1484C87.2895 69.5552 87.7187 69.0928 88.2722 68.7614C88.829 68.4299 89.4819 68.2642 90.231 68.2642C90.7348 68.2642 91.2038 68.3454 91.638 68.5078C92.0755 68.6669 92.4566 68.9072 92.7814 69.2287C93.1096 69.5502 93.3648 69.9545 93.5471 70.4418C93.7293 70.9257 93.8205 71.4924 93.8205 72.142V72.7237H87.3723V71.4112H91.8269C91.8269 71.1063 91.7606 70.8362 91.628 70.6009C91.4954 70.3655 91.3115 70.1816 91.0762 70.049C90.8442 69.9131 90.574 69.8452 90.2658 69.8452C89.9443 69.8452 89.6593 69.9197 89.4107 70.0689C89.1654 70.2147 88.9732 70.4119 88.834 70.6605C88.6948 70.9058 88.6235 71.1792 88.6202 71.4808V72.7287C88.6202 73.1065 88.6898 73.433 88.829 73.7081C88.9715 73.9832 89.1721 74.1953 89.4306 74.3445C89.6891 74.4936 89.9957 74.5682 90.3503 74.5682C90.5856 74.5682 90.8011 74.535 90.9966 74.4688C91.1922 74.4025 91.3596 74.303 91.4988 74.1705C91.638 74.0379 91.744 73.8755 91.8169 73.6832L93.7757 73.8125C93.6763 74.2831 93.4725 74.6941 93.1642 75.0455C92.8593 75.3935 92.4649 75.6652 91.981 75.8608C91.5004 76.053 90.9453 76.1491 90.3155 76.1491Z" fill="#090808"/>
<path d="M28.8352 91.4545V92.3068H25.3068V91.4545H28.8352ZM26.3636 98V90.5511C26.3636 90.1761 26.4517 89.8636 26.6278 89.6136C26.804 89.3636 27.0327 89.1761 27.3139 89.0511C27.5952 88.9261 27.892 88.8636 28.2045 88.8636C28.4517 88.8636 28.6534 88.8835 28.8097 88.9233C28.9659 88.9631 29.0824 89 29.1591 89.0341L28.8693 89.9034C28.8182 89.8864 28.7472 89.8651 28.6562 89.8395C28.5682 89.8139 28.4517 89.8011 28.3068 89.8011C27.9744 89.8011 27.7344 89.8849 27.5866 90.0526C27.4418 90.2202 27.3693 90.4659 27.3693 90.7898V98H26.3636ZM32.6342 98.1364C32.0433 98.1364 31.5249 97.9957 31.0788 97.7145C30.6357 97.4332 30.2891 97.0398 30.0391 96.5341C29.7919 96.0284 29.6683 95.4375 29.6683 94.7614C29.6683 94.0795 29.7919 93.4844 30.0391 92.9759C30.2891 92.4673 30.6357 92.0724 31.0788 91.7912C31.5249 91.5099 32.0433 91.3693 32.6342 91.3693C33.2251 91.3693 33.7422 91.5099 34.1854 91.7912C34.6314 92.0724 34.978 92.4673 35.2251 92.9759C35.4751 93.4844 35.6001 94.0795 35.6001 94.7614C35.6001 95.4375 35.4751 96.0284 35.2251 96.5341C34.978 97.0398 34.6314 97.4332 34.1854 97.7145C33.7422 97.9957 33.2251 98.1364 32.6342 98.1364ZM32.6342 97.233C33.0831 97.233 33.4524 97.1179 33.7422 96.8878C34.032 96.6577 34.2464 96.3551 34.3857 95.9801C34.5249 95.6051 34.5945 95.1989 34.5945 94.7614C34.5945 94.3239 34.5249 93.9162 34.3857 93.5384C34.2464 93.1605 34.032 92.8551 33.7422 92.6222C33.4524 92.3892 33.0831 92.2727 32.6342 92.2727C32.1854 92.2727 31.8161 92.3892 31.5263 92.6222C31.2365 92.8551 31.022 93.1605 30.8828 93.5384C30.7436 93.9162 30.674 94.3239 30.674 94.7614C30.674 95.1989 30.7436 95.6051 30.8828 95.9801C31.022 96.3551 31.2365 96.6577 31.5263 96.8878C31.8161 97.1179 32.1854 97.233 32.6342 97.233ZM37.1353 98V91.4545H38.1069V92.4432H38.1751C38.2944 92.1193 38.5103 91.8565 38.8228 91.6548C39.1353 91.4531 39.4876 91.3523 39.8796 91.3523C39.9535 91.3523 40.0458 91.3537 40.1566 91.3565C40.2674 91.3594 40.3512 91.3636 40.408 91.3693V92.392C40.3739 92.3835 40.2958 92.3707 40.1737 92.3537C40.0543 92.3338 39.9279 92.3239 39.7944 92.3239C39.4762 92.3239 39.1921 92.3906 38.9421 92.5241C38.695 92.6548 38.4989 92.8366 38.354 93.0696C38.212 93.2997 38.141 93.5625 38.141 93.858V98H37.1353ZM46.9013 98.1534C46.4865 98.1534 46.1101 98.0753 45.772 97.919C45.4339 97.7599 45.1655 97.5312 44.9666 97.233C44.7678 96.9318 44.6683 96.5682 44.6683 96.142C44.6683 95.767 44.7422 95.4631 44.8899 95.2301C45.0376 94.9943 45.2351 94.8097 45.4822 94.6761C45.7294 94.5426 46.0021 94.4432 46.3004 94.3778C46.6016 94.3097 46.9041 94.2557 47.2081 94.2159C47.6058 94.1648 47.9283 94.1264 48.1754 94.1009C48.4254 94.0724 48.6072 94.0256 48.7209 93.9602C48.8374 93.8949 48.8956 93.7812 48.8956 93.6193V93.5852C48.8956 93.1648 48.7805 92.8381 48.5504 92.6051C48.3232 92.3722 47.978 92.2557 47.5149 92.2557C47.0348 92.2557 46.6584 92.3608 46.3857 92.571C46.1129 92.7812 45.9212 93.0057 45.8104 93.2443L44.8558 92.9034C45.0263 92.5057 45.2536 92.196 45.5376 91.9744C45.8246 91.75 46.1371 91.5937 46.4751 91.5057C46.8161 91.4148 47.1513 91.3693 47.4808 91.3693C47.6911 91.3693 47.9325 91.3949 48.2053 91.446C48.4808 91.4943 48.7464 91.5952 49.0021 91.7486C49.2607 91.902 49.4751 92.1335 49.6456 92.4432C49.8161 92.7528 49.9013 93.1676 49.9013 93.6875V98H48.8956V97.1136H48.8445C48.7763 97.2557 48.6626 97.4077 48.5036 97.5696C48.3445 97.7315 48.1328 97.8693 47.8686 97.983C47.6044 98.0966 47.282 98.1534 46.9013 98.1534ZM47.0547 97.25C47.4524 97.25 47.7876 97.1719 48.0604 97.0156C48.3359 96.8594 48.5433 96.6577 48.6825 96.4105C48.8246 96.1634 48.8956 95.9034 48.8956 95.6307V94.7102C48.853 94.7614 48.7592 94.8082 48.6143 94.8509C48.4723 94.8906 48.3075 94.9261 48.12 94.9574C47.9354 94.9858 47.755 95.0114 47.5788 95.0341C47.4055 95.054 47.2649 95.071 47.157 95.0852C46.8956 95.1193 46.6513 95.1747 46.424 95.2514C46.1996 95.3253 46.0178 95.4375 45.8786 95.5881C45.7422 95.7358 45.674 95.9375 45.674 96.1932C45.674 96.5426 45.8033 96.8068 46.0618 96.9858C46.3232 97.1619 46.6541 97.25 47.0547 97.25ZM52.7425 89.2727V98H51.7369V89.2727H52.7425ZM55.5902 89.2727V98H54.5845V89.2727H55.5902ZM60.8072 98V91.4545H61.8129V98H60.8072ZM61.3185 90.3636C61.1225 90.3636 60.9535 90.2969 60.8114 90.1634C60.6722 90.0298 60.6026 89.8693 60.6026 89.6818C60.6026 89.4943 60.6722 89.3338 60.8114 89.2003C60.9535 89.0668 61.1225 89 61.3185 89C61.5146 89 61.6822 89.0668 61.8214 89.2003C61.9634 89.3338 62.0344 89.4943 62.0344 89.6818C62.0344 89.8693 61.9634 90.0298 61.8214 90.1634C61.6822 90.2969 61.5146 90.3636 61.3185 90.3636ZM64.6605 94.0625V98H63.6548V91.4545H64.6264V92.4773H64.7116C64.8651 92.1449 65.098 91.8778 65.4105 91.6761C65.723 91.4716 66.1264 91.3693 66.6207 91.3693C67.0639 91.3693 67.4517 91.4602 67.7841 91.642C68.1165 91.821 68.375 92.0938 68.5597 92.4602C68.7443 92.8239 68.8366 93.2841 68.8366 93.8409V98H67.831V93.9091C67.831 93.3949 67.6974 92.9943 67.4304 92.7074C67.1634 92.4176 66.7969 92.2727 66.331 92.2727C66.0099 92.2727 65.723 92.3423 65.4702 92.4815C65.2202 92.6207 65.0227 92.8239 64.8778 93.0909C64.733 93.358 64.6605 93.6818 64.6605 94.0625ZM75.3107 92.9205L74.4073 93.1761C74.3505 93.0256 74.2667 92.8793 74.1559 92.7372C74.0479 92.5923 73.9002 92.473 73.7127 92.3793C73.5252 92.2855 73.2852 92.2386 72.9925 92.2386C72.592 92.2386 72.2582 92.331 71.9911 92.5156C71.7269 92.6974 71.5948 92.929 71.5948 93.2102C71.5948 93.4602 71.6857 93.6577 71.8675 93.8026C72.0494 93.9474 72.3335 94.0682 72.7198 94.1648L73.6914 94.4034C74.2766 94.5455 74.7127 94.7628 74.9996 95.0554C75.2866 95.3452 75.43 95.7187 75.43 96.1761C75.43 96.5511 75.3221 96.8864 75.1062 97.1818C74.8931 97.4773 74.5948 97.7102 74.2113 97.8807C73.8278 98.0511 73.3817 98.1364 72.8732 98.1364C72.2056 98.1364 71.6531 97.9915 71.2156 97.7017C70.7781 97.4119 70.5011 96.9886 70.3846 96.4318L71.3391 96.1932C71.43 96.5455 71.6019 96.8097 71.8548 96.9858C72.1104 97.1619 72.4442 97.25 72.8562 97.25C73.3249 97.25 73.6971 97.1506 73.9727 96.9517C74.2511 96.75 74.3903 96.5085 74.3903 96.2273C74.3903 96 74.3107 95.8097 74.1516 95.6562C73.9925 95.5 73.7482 95.3835 73.4187 95.3068L72.3278 95.0511C71.7283 94.9091 71.288 94.6889 71.0067 94.3906C70.7283 94.0895 70.5891 93.7131 70.5891 93.2614C70.5891 92.892 70.6928 92.5653 70.9002 92.2812C71.1104 91.9972 71.396 91.7741 71.7567 91.6122C72.1204 91.4503 72.5323 91.3693 72.9925 91.3693C73.6403 91.3693 74.1488 91.5114 74.5181 91.7955C74.8903 92.0795 75.1545 92.4545 75.3107 92.9205ZM81.0689 95.3239V91.4545H82.0746V98H81.0689V96.892H81.0007C80.8473 97.2244 80.6087 97.5071 80.2848 97.7401C79.9609 97.9702 79.5518 98.0852 79.0575 98.0852C78.6484 98.0852 78.2848 97.9957 77.9666 97.8168C77.6484 97.6349 77.3984 97.3622 77.2166 96.9986C77.0348 96.6321 76.9439 96.1705 76.9439 95.6136V91.4545H77.9496V95.5455C77.9496 96.0227 78.0831 96.4034 78.3501 96.6875C78.62 96.9716 78.9638 97.1136 79.3814 97.1136C79.6314 97.1136 79.8857 97.0497 80.1442 96.9219C80.4055 96.794 80.6243 96.598 80.8004 96.3338C80.9794 96.0696 81.0689 95.733 81.0689 95.3239ZM83.9165 98V91.4545H84.8881V92.4432H84.9563C85.0756 92.1193 85.2915 91.8565 85.604 91.6548C85.9165 91.4531 86.2688 91.3523 86.6609 91.3523C86.7347 91.3523 86.8271 91.3537 86.9379 91.3565C87.0487 91.3594 87.1325 91.3636 87.1893 91.3693V92.392C87.1552 92.3835 87.0771 92.3707 86.9549 92.3537C86.8356 92.3338 86.7092 92.3239 86.5756 92.3239C86.2575 92.3239 85.9734 92.3906 85.7234 92.5241C85.4762 92.6548 85.2802 92.8366 85.1353 93.0696C84.9933 93.2997 84.9222 93.5625 84.9222 93.858V98H83.9165ZM90.3075 98.1534C89.8928 98.1534 89.5163 98.0753 89.1783 97.919C88.8402 97.7599 88.5717 97.5312 88.3729 97.233C88.174 96.9318 88.0746 96.5682 88.0746 96.142C88.0746 95.767 88.1484 95.4631 88.2962 95.2301C88.4439 94.9943 88.6413 94.8097 88.8885 94.6761C89.1357 94.5426 89.4084 94.4432 89.7067 94.3778C90.0078 94.3097 90.3104 94.2557 90.6143 94.2159C91.0121 94.1648 91.3345 94.1264 91.5817 94.1009C91.8317 94.0724 92.0135 94.0256 92.1271 93.9602C92.2436 93.8949 92.3018 93.7812 92.3018 93.6193V93.5852C92.3018 93.1648 92.1868 92.8381 91.9567 92.6051C91.7294 92.3722 91.3842 92.2557 90.9212 92.2557C90.4411 92.2557 90.0646 92.3608 89.7919 92.571C89.5192 92.7812 89.3274 93.0057 89.2166 93.2443L88.2621 92.9034C88.4325 92.5057 88.6598 92.196 88.9439 91.9744C89.2308 91.75 89.5433 91.5937 89.8814 91.5057C90.2223 91.4148 90.5575 91.3693 90.8871 91.3693C91.0973 91.3693 91.3388 91.3949 91.6115 91.446C91.8871 91.4943 92.1527 91.5952 92.4084 91.7486C92.6669 91.902 92.8814 92.1335 93.0518 92.4432C93.2223 92.7528 93.3075 93.1676 93.3075 93.6875V98H92.3018V97.1136H92.2507C92.1825 97.2557 92.0689 97.4077 91.9098 97.5696C91.7507 97.7315 91.5391 97.8693 91.2749 97.983C91.0107 98.0966 90.6882 98.1534 90.3075 98.1534ZM90.4609 97.25C90.8587 97.25 91.1939 97.1719 91.4666 97.0156C91.7422 96.8594 91.9496 96.6577 92.0888 96.4105C92.2308 96.1634 92.3018 95.9034 92.3018 95.6307V94.7102C92.2592 94.7614 92.1655 94.8082 92.0206 94.8509C91.8786 94.8906 91.7138 94.9261 91.5263 94.9574C91.3416 94.9858 91.1612 95.0114 90.9851 95.0341C90.8118 95.054 90.6712 95.071 90.5632 95.0852C90.3018 95.1193 90.0575 95.1747 89.8303 95.2514C89.6058 95.3253 89.424 95.4375 89.2848 95.5881C89.1484 95.7358 89.0803 95.9375 89.0803 96.1932C89.0803 96.5426 89.2095 96.8068 89.468 96.9858C89.7294 97.1619 90.0604 97.25 90.4609 97.25ZM96.1488 94.0625V98H95.1431V91.4545H96.1147V92.4773H96.1999C96.3533 92.1449 96.5863 91.8778 96.8988 91.6761C97.2113 91.4716 97.6147 91.3693 98.109 91.3693C98.5522 91.3693 98.94 91.4602 99.2724 91.642C99.6048 91.821 99.8633 92.0938 100.048 92.4602C100.233 92.8239 100.325 93.2841 100.325 93.8409V98H99.3192V93.9091C99.3192 93.3949 99.1857 92.9943 98.9187 92.7074C98.6516 92.4176 98.2852 92.2727 97.8192 92.2727C97.4982 92.2727 97.2113 92.3423 96.9585 92.4815C96.7085 92.6207 96.511 92.8239 96.3661 93.0909C96.2212 93.358 96.1488 93.6818 96.1488 94.0625ZM104.822 98.1364C104.208 98.1364 103.68 97.9915 103.237 97.7017C102.793 97.4119 102.452 97.0128 102.214 96.5043C101.975 95.9957 101.856 95.4148 101.856 94.7614C101.856 94.0966 101.978 93.5099 102.222 93.0014C102.469 92.4901 102.813 92.0909 103.254 91.804C103.697 91.5142 104.214 91.3693 104.805 91.3693C105.265 91.3693 105.68 91.4545 106.049 91.625C106.418 91.7955 106.721 92.0341 106.957 92.3409C107.192 92.6477 107.339 93.0057 107.396 93.4148H106.39C106.313 93.1165 106.143 92.8523 105.879 92.6222C105.617 92.3892 105.265 92.2727 104.822 92.2727C104.43 92.2727 104.086 92.375 103.79 92.5795C103.498 92.7812 103.269 93.0668 103.104 93.4361C102.942 93.8026 102.862 94.233 102.862 94.7273C102.862 95.233 102.941 95.6733 103.1 96.0483C103.262 96.4233 103.489 96.7145 103.782 96.9219C104.077 97.1293 104.424 97.233 104.822 97.233C105.083 97.233 105.32 97.1875 105.533 97.0966C105.746 97.0057 105.927 96.875 106.075 96.7045C106.222 96.5341 106.327 96.3295 106.39 96.0909H107.396C107.339 96.4773 107.198 96.8253 106.974 97.1349C106.752 97.4418 106.458 97.6861 106.092 97.8679C105.728 98.0469 105.305 98.1364 104.822 98.1364ZM111.61 98.1364C110.979 98.1364 110.435 97.9972 109.978 97.7188C109.523 97.4375 109.173 97.0455 108.925 96.5426C108.681 96.0369 108.559 95.4489 108.559 94.7784C108.559 94.108 108.681 93.517 108.925 93.0057C109.173 92.4915 109.516 92.0909 109.957 91.804C110.4 91.5142 110.917 91.3693 111.508 91.3693C111.849 91.3693 112.185 91.4261 112.518 91.5398C112.85 91.6534 113.153 91.8381 113.425 92.0938C113.698 92.3466 113.915 92.6818 114.077 93.0994C114.239 93.517 114.32 94.0312 114.32 94.642V95.0682H109.275V94.1989H113.298C113.298 93.8295 113.224 93.5 113.076 93.2102C112.931 92.9205 112.724 92.6918 112.454 92.5241C112.187 92.3565 111.871 92.2727 111.508 92.2727C111.107 92.2727 110.761 92.3722 110.468 92.571C110.178 92.767 109.955 93.0227 109.799 93.3381C109.643 93.6534 109.565 93.9915 109.565 94.3523V94.9318C109.565 95.4261 109.65 95.8452 109.82 96.1889C109.994 96.5298 110.234 96.7898 110.54 96.9688C110.847 97.1449 111.204 97.233 111.61 97.233C111.874 97.233 112.113 97.196 112.326 97.1222C112.542 97.0455 112.728 96.9318 112.884 96.7812C113.04 96.6278 113.161 96.4375 113.246 96.2102L114.218 96.483C114.116 96.8125 113.944 97.1023 113.702 97.3523C113.461 97.5994 113.163 97.7926 112.808 97.9318C112.452 98.0682 112.053 98.1364 111.61 98.1364ZM25.9205 116.455V107.455H26.892V108.494H27.0114C27.0852 108.381 27.1875 108.236 27.3182 108.06C27.4517 107.881 27.642 107.722 27.8892 107.582C28.1392 107.44 28.4773 107.369 28.9034 107.369C29.4545 107.369 29.9403 107.507 30.3608 107.783C30.7813 108.058 31.1094 108.449 31.3452 108.955C31.581 109.46 31.6989 110.057 31.6989 110.744C31.6989 111.438 31.581 112.038 31.3452 112.547C31.1094 113.053 30.7827 113.445 30.3651 113.723C29.9474 113.999 29.4659 114.136 28.9205 114.136C28.5 114.136 28.1634 114.067 27.9105 113.928C27.6577 113.786 27.4631 113.625 27.3267 113.446C27.1903 113.264 27.0852 113.114 27.0114 112.994H26.9261V116.455H25.9205ZM26.9091 110.727C26.9091 111.222 26.9815 111.658 27.1264 112.036C27.2713 112.411 27.483 112.705 27.7614 112.918C28.0398 113.128 28.3807 113.233 28.7841 113.233C29.2045 113.233 29.5554 113.122 29.8366 112.901C30.1207 112.676 30.3338 112.375 30.4759 111.997C30.6207 111.616 30.6932 111.193 30.6932 110.727C30.6932 110.267 30.6222 109.852 30.4801 109.483C30.3409 109.111 30.1293 108.817 29.8452 108.601C29.5639 108.382 29.2102 108.273 28.7841 108.273C28.375 108.273 28.0313 108.376 27.7528 108.584C27.4744 108.788 27.2642 109.075 27.1222 109.445C26.9801 109.811 26.9091 110.239 26.9091 110.727ZM34.2386 105.273V114H33.233V105.273H34.2386ZM38.0067 114.153C37.592 114.153 37.2156 114.075 36.8775 113.919C36.5394 113.76 36.271 113.531 36.0721 113.233C35.8732 112.932 35.7738 112.568 35.7738 112.142C35.7738 111.767 35.8477 111.463 35.9954 111.23C36.1431 110.994 36.3406 110.81 36.5877 110.676C36.8349 110.543 37.1076 110.443 37.4059 110.378C37.707 110.31 38.0096 110.256 38.3136 110.216C38.7113 110.165 39.0337 110.126 39.2809 110.101C39.5309 110.072 39.7127 110.026 39.8263 109.96C39.9428 109.895 40.0011 109.781 40.0011 109.619V109.585C40.0011 109.165 39.886 108.838 39.6559 108.605C39.4286 108.372 39.0835 108.256 38.6204 108.256C38.1403 108.256 37.7638 108.361 37.4911 108.571C37.2184 108.781 37.0266 109.006 36.9158 109.244L35.9613 108.903C36.1317 108.506 36.359 108.196 36.6431 107.974C36.93 107.75 37.2425 107.594 37.5806 107.506C37.9215 107.415 38.2567 107.369 38.5863 107.369C38.7965 107.369 39.038 107.395 39.3107 107.446C39.5863 107.494 39.8519 107.595 40.1076 107.749C40.3661 107.902 40.5806 108.134 40.7511 108.443C40.9215 108.753 41.0067 109.168 41.0067 109.688V114H40.0011V113.114H39.9499C39.8817 113.256 39.7681 113.408 39.609 113.57C39.4499 113.732 39.2383 113.869 38.9741 113.983C38.7099 114.097 38.3874 114.153 38.0067 114.153ZM38.1602 113.25C38.5579 113.25 38.8931 113.172 39.1658 113.016C39.4414 112.859 39.6488 112.658 39.788 112.411C39.93 112.163 40.0011 111.903 40.0011 111.631V110.71C39.9585 110.761 39.8647 110.808 39.7198 110.851C39.5778 110.891 39.413 110.926 39.2255 110.957C39.0408 110.986 38.8604 111.011 38.6843 111.034C38.511 111.054 38.3704 111.071 38.2624 111.085C38.0011 111.119 37.7567 111.175 37.5295 111.251C37.305 111.325 37.1232 111.437 36.984 111.588C36.8477 111.736 36.7795 111.937 36.7795 112.193C36.7795 112.543 36.9087 112.807 37.1673 112.986C37.4286 113.162 37.7596 113.25 38.1602 113.25ZM43.848 110.062V114H42.8423V107.455H43.8139V108.477H43.8991C44.0526 108.145 44.2855 107.878 44.598 107.676C44.9105 107.472 45.3139 107.369 45.8082 107.369C46.2514 107.369 46.6392 107.46 46.9716 107.642C47.304 107.821 47.5625 108.094 47.7472 108.46C47.9318 108.824 48.0241 109.284 48.0241 109.841V114H47.0185V109.909C47.0185 109.395 46.8849 108.994 46.6179 108.707C46.3509 108.418 45.9844 108.273 45.5185 108.273C45.1974 108.273 44.9105 108.342 44.6577 108.482C44.4077 108.621 44.2102 108.824 44.0653 109.091C43.9205 109.358 43.848 109.682 43.848 110.062ZM54.4982 108.92L53.5948 109.176C53.538 109.026 53.4542 108.879 53.3434 108.737C53.2354 108.592 53.0877 108.473 52.9002 108.379C52.7127 108.286 52.4727 108.239 52.18 108.239C51.7795 108.239 51.4457 108.331 51.1786 108.516C50.9144 108.697 50.7823 108.929 50.7823 109.21C50.7823 109.46 50.8732 109.658 51.055 109.803C51.2369 109.947 51.521 110.068 51.9073 110.165L52.8789 110.403C53.4641 110.545 53.9002 110.763 54.1871 111.055C54.4741 111.345 54.6175 111.719 54.6175 112.176C54.6175 112.551 54.5096 112.886 54.2937 113.182C54.0806 113.477 53.7823 113.71 53.3988 113.881C53.0153 114.051 52.5692 114.136 52.0607 114.136C51.3931 114.136 50.8406 113.991 50.4031 113.702C49.9656 113.412 49.6886 112.989 49.5721 112.432L50.5266 112.193C50.6175 112.545 50.7894 112.81 51.0423 112.986C51.2979 113.162 51.6317 113.25 52.0437 113.25C52.5124 113.25 52.8846 113.151 53.1602 112.952C53.4386 112.75 53.5778 112.509 53.5778 112.227C53.5778 112 53.4982 111.81 53.3391 111.656C53.18 111.5 52.9357 111.384 52.6062 111.307L51.5153 111.051C50.9158 110.909 50.4755 110.689 50.1942 110.391C49.9158 110.089 49.7766 109.713 49.7766 109.261C49.7766 108.892 49.8803 108.565 50.0877 108.281C50.2979 107.997 50.5835 107.774 50.9442 107.612C51.3079 107.45 51.7198 107.369 52.18 107.369C52.8278 107.369 53.3363 107.511 53.7056 107.795C54.0778 108.08 54.342 108.455 54.4982 108.92ZM61.4325 114.153C61.0178 114.153 60.6413 114.075 60.3033 113.919C59.9652 113.76 59.6967 113.531 59.4979 113.233C59.299 112.932 59.1996 112.568 59.1996 112.142C59.1996 111.767 59.2734 111.463 59.4212 111.23C59.5689 110.994 59.7663 110.81 60.0135 110.676C60.2607 110.543 60.5334 110.443 60.8317 110.378C61.1328 110.31 61.4354 110.256 61.7393 110.216C62.1371 110.165 62.4595 110.126 62.7067 110.101C62.9567 110.072 63.1385 110.026 63.2521 109.96C63.3686 109.895 63.4268 109.781 63.4268 109.619V109.585C63.4268 109.165 63.3118 108.838 63.0817 108.605C62.8544 108.372 62.5092 108.256 62.0462 108.256C61.5661 108.256 61.1896 108.361 60.9169 108.571C60.6442 108.781 60.4524 109.006 60.3416 109.244L59.3871 108.903C59.5575 108.506 59.7848 108.196 60.0689 107.974C60.3558 107.75 60.6683 107.594 61.0064 107.506C61.3473 107.415 61.6825 107.369 62.0121 107.369C62.2223 107.369 62.4638 107.395 62.7365 107.446C63.0121 107.494 63.2777 107.595 63.5334 107.749C63.7919 107.902 64.0064 108.134 64.1768 108.443C64.3473 108.753 64.4325 109.168 64.4325 109.688V114H63.4268V113.114H63.3757C63.3075 113.256 63.1939 113.408 63.0348 113.57C62.8757 113.732 62.6641 113.869 62.3999 113.983C62.1357 114.097 61.8132 114.153 61.4325 114.153ZM61.5859 113.25C61.9837 113.25 62.3189 113.172 62.5916 113.016C62.8672 112.859 63.0746 112.658 63.2138 112.411C63.3558 112.163 63.4268 111.903 63.4268 111.631V110.71C63.3842 110.761 63.2905 110.808 63.1456 110.851C63.0036 110.891 62.8388 110.926 62.6513 110.957C62.4666 110.986 62.2862 111.011 62.1101 111.034C61.9368 111.054 61.7962 111.071 61.6882 111.085C61.4268 111.119 61.1825 111.175 60.9553 111.251C60.7308 111.325 60.549 111.437 60.4098 111.588C60.2734 111.736 60.2053 111.937 60.2053 112.193C60.2053 112.543 60.3345 112.807 60.593 112.986C60.8544 113.162 61.1854 113.25 61.5859 113.25ZM71.386 107.455L68.9656 114H67.9428L65.5224 107.455H66.6133L68.4201 112.67H68.4883L70.2951 107.455H71.386ZM74.4403 114.153C74.0256 114.153 73.6491 114.075 73.3111 113.919C72.973 113.76 72.7045 113.531 72.5057 113.233C72.3068 112.932 72.2074 112.568 72.2074 112.142C72.2074 111.767 72.2813 111.463 72.429 111.23C72.5767 110.994 72.7741 110.81 73.0213 110.676C73.2685 110.543 73.5412 110.443 73.8395 110.378C74.1406 110.31 74.4432 110.256 74.7472 110.216C75.1449 110.165 75.4673 110.126 75.7145 110.101C75.9645 110.072 76.1463 110.026 76.2599 109.96C76.3764 109.895 76.4347 109.781 76.4347 109.619V109.585C76.4347 109.165 76.3196 108.838 76.0895 108.605C75.8622 108.372 75.517 108.256 75.054 108.256C74.5739 108.256 74.1974 108.361 73.9247 108.571C73.652 108.781 73.4602 109.006 73.3494 109.244L72.3949 108.903C72.5653 108.506 72.7926 108.196 73.0767 107.974C73.3636 107.75 73.6761 107.594 74.0142 107.506C74.3551 107.415 74.6903 107.369 75.0199 107.369C75.2301 107.369 75.4716 107.395 75.7443 107.446C76.0199 107.494 76.2855 107.595 76.5412 107.749C76.7997 107.902 77.0142 108.134 77.1847 108.443C77.3551 108.753 77.4403 109.168 77.4403 109.688V114H76.4347V113.114H76.3835C76.3153 113.256 76.2017 113.408 76.0426 113.57C75.8835 113.732 75.6719 113.869 75.4077 113.983C75.1435 114.097 74.821 114.153 74.4403 114.153ZM74.5938 113.25C74.9915 113.25 75.3267 113.172 75.5994 113.016C75.875 112.859 76.0824 112.658 76.2216 112.411C76.3636 112.163 76.4347 111.903 76.4347 111.631V110.71C76.392 110.761 76.2983 110.808 76.1534 110.851C76.0114 110.891 75.8466 110.926 75.6591 110.957C75.4744 110.986 75.294 111.011 75.1179 111.034C74.9446 111.054 74.804 111.071 74.696 111.085C74.4347 111.119 74.1903 111.175 73.9631 111.251C73.7386 111.325 73.5568 111.437 73.4176 111.588C73.2813 111.736 73.2131 111.937 73.2131 112.193C73.2131 112.543 73.3423 112.807 73.6009 112.986C73.8622 113.162 74.1932 113.25 74.5938 113.25ZM79.2759 114V107.455H80.2816V114H79.2759ZM79.7873 106.364C79.5913 106.364 79.4222 106.297 79.2802 106.163C79.141 106.03 79.0714 105.869 79.0714 105.682C79.0714 105.494 79.141 105.334 79.2802 105.2C79.4222 105.067 79.5913 105 79.7873 105C79.9833 105 80.1509 105.067 80.2901 105.2C80.4322 105.334 80.5032 105.494 80.5032 105.682C80.5032 105.869 80.4322 106.03 80.2901 106.163C80.1509 106.297 79.9833 106.364 79.7873 106.364ZM83.1293 105.273V114H82.1236V105.273H83.1293ZM86.8974 114.153C86.4826 114.153 86.1062 114.075 85.7681 113.919C85.43 113.76 85.1616 113.531 84.9627 113.233C84.7638 112.932 84.6644 112.568 84.6644 112.142C84.6644 111.767 84.7383 111.463 84.886 111.23C85.0337 110.994 85.2312 110.81 85.4783 110.676C85.7255 110.543 85.9982 110.443 86.2965 110.378C86.5977 110.31 86.9002 110.256 87.2042 110.216C87.6019 110.165 87.9244 110.126 88.1715 110.101C88.4215 110.072 88.6033 110.026 88.717 109.96C88.8335 109.895 88.8917 109.781 88.8917 109.619V109.585C88.8917 109.165 88.7766 108.838 88.5465 108.605C88.3192 108.372 87.9741 108.256 87.511 108.256C87.0309 108.256 86.6545 108.361 86.3817 108.571C86.109 108.781 85.9173 109.006 85.8065 109.244L84.8519 108.903C85.0224 108.506 85.2496 108.196 85.5337 107.974C85.8207 107.75 86.1332 107.594 86.4712 107.506C86.8121 107.415 87.1474 107.369 87.4769 107.369C87.6871 107.369 87.9286 107.395 88.2013 107.446C88.4769 107.494 88.7425 107.595 88.9982 107.749C89.2567 107.902 89.4712 108.134 89.6417 108.443C89.8121 108.753 89.8974 109.168 89.8974 109.688V114H88.8917V113.114H88.8406C88.7724 113.256 88.6587 113.408 88.4996 113.57C88.3406 113.732 88.1289 113.869 87.8647 113.983C87.6005 114.097 87.2781 114.153 86.8974 114.153ZM87.0508 113.25C87.4485 113.25 87.7837 113.172 88.0565 113.016C88.332 112.859 88.5394 112.658 88.6786 112.411C88.8207 112.163 88.8917 111.903 88.8917 111.631V110.71C88.8491 110.761 88.7553 110.808 88.6104 110.851C88.4684 110.891 88.3036 110.926 88.1161 110.957C87.9315 110.986 87.7511 111.011 87.5749 111.034C87.4016 111.054 87.261 111.071 87.1531 111.085C86.8917 111.119 86.6474 111.175 86.4201 111.251C86.1957 111.325 86.0138 111.437 85.8746 111.588C85.7383 111.736 85.6701 111.937 85.6701 112.193C85.6701 112.543 85.7994 112.807 86.0579 112.986C86.3192 113.162 86.6502 113.25 87.0508 113.25ZM91.8693 114V105.273H92.875V108.494H92.9602C93.0341 108.381 93.1364 108.236 93.267 108.06C93.4006 107.881 93.5909 107.722 93.8381 107.582C94.0881 107.44 94.4261 107.369 94.8523 107.369C95.4034 107.369 95.8892 107.507 96.3097 107.783C96.7301 108.058 97.0582 108.449 97.294 108.955C97.5298 109.46 97.6477 110.057 97.6477 110.744C97.6477 111.438 97.5298 112.038 97.294 112.547C97.0582 113.053 96.7315 113.445 96.3139 113.723C95.8963 113.999 95.4148 114.136 94.8693 114.136C94.4489 114.136 94.1122 114.067 93.8594 113.928C93.6065 113.786 93.4119 113.625 93.2756 113.446C93.1392 113.264 93.0341 113.114 92.9602 112.994H92.8409V114H91.8693ZM92.858 110.727C92.858 111.222 92.9304 111.658 93.0753 112.036C93.2202 112.411 93.4318 112.705 93.7102 112.918C93.9886 113.128 94.3295 113.233 94.733 113.233C95.1534 113.233 95.5043 113.122 95.7855 112.901C96.0696 112.676 96.2827 112.375 96.4247 111.997C96.5696 111.616 96.642 111.193 96.642 110.727C96.642 110.267 96.571 109.852 96.429 109.483C96.2898 109.111 96.0781 108.817 95.794 108.601C95.5128 108.382 95.1591 108.273 94.733 108.273C94.3239 108.273 93.9801 108.376 93.7017 108.584C93.4233 108.788 93.2131 109.075 93.071 109.445C92.929 109.811 92.858 110.239 92.858 110.727ZM100.192 105.273V114H99.1861V105.273H100.192ZM104.778 114.136C104.147 114.136 103.603 113.997 103.146 113.719C102.691 113.438 102.341 113.045 102.093 112.543C101.849 112.037 101.727 111.449 101.727 110.778C101.727 110.108 101.849 109.517 102.093 109.006C102.341 108.491 102.684 108.091 103.125 107.804C103.568 107.514 104.085 107.369 104.676 107.369C105.017 107.369 105.353 107.426 105.686 107.54C106.018 107.653 106.321 107.838 106.593 108.094C106.866 108.347 107.083 108.682 107.245 109.099C107.407 109.517 107.488 110.031 107.488 110.642V111.068H102.443V110.199H106.466C106.466 109.83 106.392 109.5 106.244 109.21C106.099 108.92 105.892 108.692 105.622 108.524C105.355 108.357 105.039 108.273 104.676 108.273C104.275 108.273 103.929 108.372 103.636 108.571C103.346 108.767 103.123 109.023 102.967 109.338C102.811 109.653 102.733 109.991 102.733 110.352V110.932C102.733 111.426 102.818 111.845 102.988 112.189C103.162 112.53 103.402 112.79 103.708 112.969C104.015 113.145 104.372 113.233 104.778 113.233C105.042 113.233 105.281 113.196 105.494 113.122C105.71 113.045 105.896 112.932 106.052 112.781C106.208 112.628 106.329 112.437 106.414 112.21L107.386 112.483C107.284 112.812 107.112 113.102 106.87 113.352C106.629 113.599 106.331 113.793 105.975 113.932C105.62 114.068 105.221 114.136 104.778 114.136ZM28.5795 130.136C27.9886 130.136 27.4702 129.996 27.0241 129.714C26.581 129.433 26.2344 129.04 25.9844 128.534C25.7372 128.028 25.6136 127.437 25.6136 126.761C25.6136 126.08 25.7372 125.484 25.9844 124.976C26.2344 124.467 26.581 124.072 27.0241 123.791C27.4702 123.51 27.9886 123.369 28.5795 123.369C29.1705 123.369 29.6875 123.51 30.1307 123.791C30.5767 124.072 30.9233 124.467 31.1705 124.976C31.4205 125.484 31.5455 126.08 31.5455 126.761C31.5455 127.437 31.4205 128.028 31.1705 128.534C30.9233 129.04 30.5767 129.433 30.1307 129.714C29.6875 129.996 29.1705 130.136 28.5795 130.136ZM28.5795 129.233C29.0284 129.233 29.3977 129.118 29.6875 128.888C29.9773 128.658 30.1918 128.355 30.331 127.98C30.4702 127.605 30.5398 127.199 30.5398 126.761C30.5398 126.324 30.4702 125.916 30.331 125.538C30.1918 125.161 29.9773 124.855 29.6875 124.622C29.3977 124.389 29.0284 124.273 28.5795 124.273C28.1307 124.273 27.7614 124.389 27.4716 124.622C27.1818 124.855 26.9673 125.161 26.8281 125.538C26.6889 125.916 26.6193 126.324 26.6193 126.761C26.6193 127.199 26.6889 127.605 26.8281 127.98C26.9673 128.355 27.1818 128.658 27.4716 128.888C27.7614 129.118 28.1307 129.233 28.5795 129.233ZM34.0863 126.062V130H33.0806V123.455H34.0522V124.477H34.1374C34.2908 124.145 34.5238 123.878 34.8363 123.676C35.1488 123.472 35.5522 123.369 36.0465 123.369C36.4897 123.369 36.8775 123.46 37.2099 123.642C37.5423 123.821 37.8008 124.094 37.9854 124.46C38.1701 124.824 38.2624 125.284 38.2624 125.841V130H37.2567V125.909C37.2567 125.395 37.1232 124.994 36.8562 124.707C36.5891 124.418 36.2227 124.273 35.7567 124.273C35.4357 124.273 35.1488 124.342 34.896 124.482C34.646 124.621 34.4485 124.824 34.3036 125.091C34.1587 125.358 34.0863 125.682 34.0863 126.062ZM41.1058 121.273V130H40.1001V121.273H41.1058ZM42.9478 130V123.455H43.9535V130H42.9478ZM43.4592 122.364C43.2631 122.364 43.0941 122.297 42.9521 122.163C42.8129 122.03 42.7433 121.869 42.7433 121.682C42.7433 121.494 42.8129 121.334 42.9521 121.2C43.0941 121.067 43.2631 121 43.4592 121C43.6552 121 43.8228 121.067 43.962 121.2C44.104 121.334 44.1751 121.494 44.1751 121.682C44.1751 121.869 44.104 122.03 43.962 122.163C43.8228 122.297 43.6552 122.364 43.4592 122.364ZM46.8011 126.062V130H45.7955V123.455H46.767V124.477H46.8523C47.0057 124.145 47.2386 123.878 47.5511 123.676C47.8636 123.472 48.267 123.369 48.7614 123.369C49.2045 123.369 49.5923 123.46 49.9247 123.642C50.2571 123.821 50.5156 124.094 50.7003 124.46C50.8849 124.824 50.9773 125.284 50.9773 125.841V130H49.9716V125.909C49.9716 125.395 49.8381 124.994 49.571 124.707C49.304 124.418 48.9375 124.273 48.4716 124.273C48.1506 124.273 47.8636 124.342 47.6108 124.482C47.3608 124.621 47.1634 124.824 47.0185 125.091C46.8736 125.358 46.8011 125.682 46.8011 126.062ZM55.5593 130.136C54.9286 130.136 54.3846 129.997 53.9272 129.719C53.4727 129.438 53.1218 129.045 52.8746 128.543C52.6303 128.037 52.5082 127.449 52.5082 126.778C52.5082 126.108 52.6303 125.517 52.8746 125.006C53.1218 124.491 53.4656 124.091 53.9059 123.804C54.3491 123.514 54.8661 123.369 55.457 123.369C55.7979 123.369 56.1346 123.426 56.467 123.54C56.7994 123.653 57.1019 123.838 57.3746 124.094C57.6474 124.347 57.8647 124.682 58.0266 125.099C58.1886 125.517 58.2695 126.031 58.2695 126.642V127.068H53.2241V126.199H57.2468C57.2468 125.83 57.1729 125.5 57.0252 125.21C56.8803 124.92 56.6729 124.692 56.4031 124.524C56.136 124.357 55.8207 124.273 55.457 124.273C55.0565 124.273 54.7099 124.372 54.4173 124.571C54.1275 124.767 53.9045 125.023 53.7482 125.338C53.592 125.653 53.5138 125.991 53.5138 126.352V126.932C53.5138 127.426 53.5991 127.845 53.7695 128.189C53.9428 128.53 54.1829 128.79 54.4897 128.969C54.7965 129.145 55.1531 129.233 55.5593 129.233C55.8235 129.233 56.0621 129.196 56.2752 129.122C56.4911 129.045 56.6772 128.932 56.8335 128.781C56.9897 128.628 57.1104 128.437 57.1957 128.21L58.1673 128.483C58.065 128.812 57.8931 129.102 57.6516 129.352C57.4102 129.599 57.1119 129.793 56.7567 129.932C56.4016 130.068 56.0025 130.136 55.5593 130.136Z" fill="#8391A1"/>
<path d="M108.354 129.999C106.718 131.344 105.435 133.111 104.756 135.153C104.378 136.248 104.177 137.443 104.177 138.663V151.934C104.177 153.079 103.246 154 102.088 154C100.931 154 100 153.079 100 151.934V138.663C100 134.63 101.585 130.945 104.152 128.231C105.913 126.364 108.153 124.92 110.669 124.123C112.028 123.675 113.412 124.671 113.412 126.065C113.412 126.962 112.833 127.733 111.977 128.032C110.644 128.431 109.411 129.128 108.354 129.999Z" fill="white"/>
<path d="M131 138.564C131.05 146.954 124.156 153.9 115.676 153.975C115.625 153.975 115.55 153.975 115.5 153.975C111.549 153.975 108.354 150.788 108.354 146.879V138.763C108.354 138.738 108.354 138.688 108.354 138.663C108.354 134.58 111.851 131.294 116.028 131.593C119.576 131.841 122.445 134.705 122.671 138.215C122.822 140.63 121.74 142.821 120.004 144.191C118.67 145.261 116.657 144.265 116.657 142.572C116.657 141.95 116.934 141.377 117.412 140.979C118.117 140.406 118.544 139.535 118.519 138.589C118.469 137.045 117.211 135.775 115.651 135.701C113.914 135.626 112.48 136.995 112.48 138.688C112.48 138.713 112.48 138.763 112.48 138.788V146.68C112.48 148.473 113.965 149.942 115.776 149.892C115.802 149.892 115.852 149.892 115.877 149.892C121.639 149.693 126.395 145.162 126.798 139.46C127.15 134.157 123.778 129.576 118.997 128.032C118.142 127.758 117.563 126.987 117.563 126.115V126.04C117.563 124.671 118.897 123.675 120.23 124.098C126.445 126.04 130.949 131.767 131 138.564Z" fill="white"/>
<path d="M25 54.24H57V22.24H25V54.24Z" fill="black"/>
</g>
<defs>
<filter id="filter0_d_103_523" x="0" y="0" width="145" height="173" filterUnits="userSpaceOnUse" color-interpolation-filters="sRGB">
<feFlood flood-opacity="0" result="BackgroundImageFix"/>
<feColorMatrix in="SourceAlpha" type="matrix" values="0 0 0 0 0 0 0 0 0 0 0 0 0 0 0 0 0 0 127 0" result="hardAlpha"/>
<feMorphology radius="20" operator="erode" in="SourceAlpha" result="effect1_dropShadow_103_523"/>
<feOffset dy="5"/>
<feGaussianBlur stdDeviation="15"/>
<feColorMatrix type="matrix" values="0 0 0 0 0.333333 0 0 0 0 0.333333 0 0 0 0 0.333333 0 0 0 0.25 0"/>
<feBlend mode="normal" in2="BackgroundImageFix" result="effect1_dropShadow_103_523"/>
<feBlend mode="normal" in="SourceGraphic" in2="effect1_dropShadow_103_523" result="shape"/>
</filter>
</defs>
</svg>
