<svg width="145" height="173" viewBox="0 0 145 173" fill="none" xmlns="http://www.w3.org/2000/svg">
<g filter="url(#filter0_d_103_530)">
<rect x="10" y="5" width="125" height="153" rx="8" fill="#F7F8F9"/>
<path d="M34.8686 69.3828H32.6911C32.6513 69.1011 32.5701 68.8509 32.4474 68.6321C32.3248 68.41 32.1674 68.2211 31.9751 68.0653C31.7829 67.9096 31.5608 67.7902 31.3089 67.7074C31.0604 67.6245 30.7902 67.5831 30.4986 67.5831C29.9716 67.5831 29.5125 67.714 29.1214 67.9759C28.7304 68.2344 28.4271 68.6122 28.2116 69.1094C27.9962 69.6032 27.8885 70.2031 27.8885 70.9091C27.8885 71.6349 27.9962 72.2448 28.2116 72.7386C28.4304 73.2325 28.7353 73.6054 29.1264 73.8572C29.5175 74.1091 29.9699 74.2351 30.4837 74.2351C30.772 74.2351 31.0388 74.197 31.2841 74.1207C31.5327 74.0445 31.7531 73.9335 31.9453 73.7876C32.1375 73.6385 32.2966 73.4579 32.4226 73.2457C32.5518 73.0336 32.6413 72.7917 32.6911 72.5199L34.8686 72.5298C34.8123 72.9972 34.6714 73.4479 34.446 73.8821C34.224 74.313 33.924 74.6991 33.5462 75.0405C33.1716 75.3786 32.7242 75.647 32.2038 75.8459C31.6868 76.0414 31.1018 76.1392 30.4489 76.1392C29.5407 76.1392 28.7287 75.9337 28.0128 75.5227C27.3002 75.1117 26.7367 74.5168 26.3224 73.7379C25.9115 72.959 25.706 72.0161 25.706 70.9091C25.706 69.7988 25.9148 68.8542 26.3324 68.0753C26.75 67.2964 27.3168 66.7031 28.0327 66.2955C28.7486 65.8845 29.554 65.679 30.4489 65.679C31.0388 65.679 31.5857 65.7618 32.0895 65.9276C32.5966 66.0933 33.0457 66.3352 33.4368 66.6534C33.8279 66.9683 34.1461 67.3544 34.3913 67.8118C34.6399 68.2692 34.799 68.7929 34.8686 69.3828ZM38.4904 65.8182V76H36.3725V65.8182H38.4904ZM42.3645 76.1442C41.8773 76.1442 41.4431 76.0597 41.062 75.8906C40.6808 75.7183 40.3792 75.4647 40.1571 75.13C39.9384 74.7919 39.829 74.371 39.829 73.8672C39.829 73.4429 39.9069 73.0866 40.0627 72.7983C40.2185 72.5099 40.4306 72.2779 40.699 72.1023C40.9675 71.9266 41.2724 71.794 41.6138 71.7045C41.9585 71.6151 42.3198 71.5521 42.6976 71.5156C43.1417 71.4692 43.4997 71.4261 43.7715 71.3864C44.0433 71.3433 44.2405 71.2803 44.3631 71.1974C44.4857 71.1146 44.5471 70.992 44.5471 70.8295V70.7997C44.5471 70.4848 44.4476 70.2412 44.2488 70.0689C44.0532 69.8965 43.7748 69.8104 43.4135 69.8104C43.0324 69.8104 42.7291 69.8949 42.5037 70.0639C42.2783 70.2296 42.1292 70.4384 42.0563 70.6903L40.0975 70.5312C40.1969 70.0672 40.3925 69.6662 40.6841 69.3281C40.9758 68.9867 41.352 68.7249 41.8127 68.5426C42.2767 68.357 42.8136 68.2642 43.4235 68.2642C43.8477 68.2642 44.2537 68.3139 44.6415 68.4134C45.0326 68.5128 45.379 68.6669 45.6806 68.8757C45.9855 69.0845 46.2258 69.353 46.4015 69.6811C46.5771 70.0059 46.665 70.3954 46.665 70.8494V76H44.6564V74.9411H44.5968C44.4741 75.1797 44.3101 75.3902 44.1046 75.5724C43.8991 75.7514 43.6522 75.8923 43.3638 75.995C43.0755 76.0945 42.7424 76.1442 42.3645 76.1442ZM42.9711 74.6825C43.2826 74.6825 43.5577 74.6212 43.7963 74.4986C44.035 74.3726 44.2222 74.2036 44.3581 73.9915C44.494 73.7794 44.562 73.5391 44.562 73.2706V72.4602C44.4957 72.5033 44.4045 72.5431 44.2885 72.5795C44.1758 72.6127 44.0482 72.6442 43.9057 72.674C43.7632 72.7005 43.6207 72.7254 43.4782 72.7486C43.3356 72.7685 43.2064 72.7867 43.0904 72.8033C42.8418 72.8397 42.6247 72.8977 42.4391 72.9773C42.2535 73.0568 42.1093 73.1645 42.0066 73.3004C41.9038 73.433 41.8525 73.5987 41.8525 73.7976C41.8525 74.0859 41.9569 74.3063 42.1657 74.4588C42.3778 74.608 42.6462 74.6825 42.9711 74.6825ZM48.3081 76V68.3636H50.426V76H48.3081ZM49.372 67.3793C49.0571 67.3793 48.787 67.2749 48.5616 67.0661C48.3395 66.8539 48.2285 66.6004 48.2285 66.3054C48.2285 66.0137 48.3395 65.7635 48.5616 65.5547C48.787 65.3426 49.0571 65.2365 49.372 65.2365C49.6868 65.2365 49.9553 65.3426 50.1774 65.5547C50.4028 65.7635 50.5154 66.0137 50.5154 66.3054C50.5154 66.6004 50.4028 66.8539 50.1774 67.0661C49.9553 67.2749 49.6868 67.3793 49.372 67.3793ZM52.1225 76V68.3636H54.141V69.7109H54.2305C54.3896 69.2635 54.6547 68.9105 55.0259 68.652C55.3971 68.3935 55.8413 68.2642 56.3583 68.2642C56.882 68.2642 57.3278 68.3951 57.6957 68.657C58.0636 68.9155 58.3088 69.2668 58.4315 69.7109H58.511C58.6668 69.2734 58.9485 68.9238 59.3562 68.6619C59.7672 68.3968 60.2527 68.2642 60.8129 68.2642C61.5255 68.2642 62.1038 68.4912 62.5479 68.9453C62.9954 69.3961 63.2191 70.0357 63.2191 70.8643V76H61.1062V71.282C61.1062 70.8577 60.9935 70.5395 60.7681 70.3274C60.5427 70.1153 60.261 70.0092 59.9229 70.0092C59.5385 70.0092 59.2385 70.1319 59.0231 70.3771C58.8076 70.6191 58.6999 70.9389 58.6999 71.3366V76H56.6467V71.2372C56.6467 70.8627 56.5389 70.5644 56.3235 70.3423C56.1114 70.1203 55.8313 70.0092 55.4833 70.0092C55.248 70.0092 55.0359 70.0689 54.8469 70.1882C54.6613 70.3042 54.5138 70.4683 54.4045 70.6804C54.2951 70.8892 54.2404 71.1345 54.2404 71.4162V76H52.1225ZM71.2457 70.5412L69.3068 70.6605C69.2737 70.4948 69.2024 70.3456 69.093 70.2131C68.9837 70.0772 68.8395 69.9695 68.6605 69.8899C68.4848 69.8071 68.2744 69.7656 68.0291 69.7656C67.701 69.7656 67.4242 69.8352 67.1989 69.9744C66.9735 70.1103 66.8608 70.2926 66.8608 70.5213C66.8608 70.7036 66.9337 70.8577 67.0795 70.9837C67.2254 71.1096 67.4756 71.2107 67.8303 71.2869L69.2124 71.5653C69.9548 71.7178 70.5083 71.9631 70.8729 72.3011C71.2375 72.6392 71.4197 73.0833 71.4197 73.6335C71.4197 74.134 71.2723 74.5732 70.9773 74.951C70.6856 75.3288 70.2846 75.6238 69.7741 75.8359C69.267 76.0447 68.6821 76.1491 68.0192 76.1491C67.0083 76.1491 66.2029 75.9387 65.603 75.5178C65.0064 75.0935 64.6567 74.5168 64.554 73.7876L66.6371 73.6783C66.7 73.9865 66.8525 74.2218 67.0945 74.3842C67.3364 74.5433 67.6463 74.6229 68.0241 74.6229C68.3954 74.6229 68.6937 74.5516 68.919 74.4091C69.1477 74.2633 69.2637 74.076 69.267 73.8473C69.2637 73.6551 69.1825 73.4976 69.0234 73.375C68.8643 73.2491 68.6191 73.1529 68.2876 73.0866L66.9652 72.8232C66.2195 72.674 65.6643 72.4155 65.2997 72.0476C64.9384 71.6797 64.7578 71.2107 64.7578 70.6406C64.7578 70.1501 64.8904 69.7275 65.1555 69.3729C65.424 69.0182 65.8002 68.7448 66.2841 68.5526C66.7713 68.3603 67.3414 68.2642 67.9943 68.2642C68.9588 68.2642 69.7178 68.468 70.2713 68.8757C70.8281 69.2834 71.1529 69.8385 71.2457 70.5412Z" fill="#090808"/>
<path d="M30.5568 92.9205L29.6534 93.1761C29.5966 93.0256 29.5128 92.8793 29.402 92.7372C29.294 92.5923 29.1463 92.473 28.9588 92.3793C28.7713 92.2855 28.5312 92.2386 28.2386 92.2386C27.8381 92.2386 27.5043 92.331 27.2372 92.5156C26.973 92.6974 26.8409 92.929 26.8409 93.2102C26.8409 93.4602 26.9318 93.6577 27.1136 93.8026C27.2955 93.9474 27.5795 94.0682 27.9659 94.1648L28.9375 94.4034C29.5227 94.5455 29.9588 94.7628 30.2457 95.0554C30.5327 95.3452 30.6761 95.7187 30.6761 96.1761C30.6761 96.5511 30.5682 96.8864 30.3523 97.1818C30.1392 97.4773 29.8409 97.7102 29.4574 97.8807C29.0739 98.0511 28.6278 98.1364 28.1193 98.1364C27.4517 98.1364 26.8991 97.9915 26.4616 97.7017C26.0241 97.4119 25.7472 96.9886 25.6307 96.4318L26.5852 96.1932C26.6761 96.5455 26.848 96.8097 27.1009 96.9858C27.3565 97.1619 27.6903 97.25 28.1023 97.25C28.571 97.25 28.9432 97.1506 29.2188 96.9517C29.4972 96.75 29.6364 96.5085 29.6364 96.2273C29.6364 96 29.5568 95.8097 29.3977 95.6562C29.2386 95.5 28.9943 95.3835 28.6648 95.3068L27.5739 95.0511C26.9744 94.9091 26.5341 94.6889 26.2528 94.3906C25.9744 94.0895 25.8352 93.7131 25.8352 93.2614C25.8352 92.892 25.9389 92.5653 26.1463 92.2812C26.3565 91.9972 26.642 91.7741 27.0028 91.6122C27.3665 91.4503 27.7784 91.3693 28.2386 91.3693C28.8864 91.3693 29.3949 91.5114 29.7642 91.7955C30.1364 92.0795 30.4006 92.4545 30.5568 92.9205ZM36.315 95.3239V91.4545H37.3207V98H36.315V96.892H36.2468C36.0934 97.2244 35.8548 97.5071 35.5309 97.7401C35.207 97.9702 34.7979 98.0852 34.3036 98.0852C33.8945 98.0852 33.5309 97.9957 33.2127 97.8168C32.8945 97.6349 32.6445 97.3622 32.4627 96.9986C32.2809 96.6321 32.19 96.1705 32.19 95.6136V91.4545H33.1957V95.5455C33.1957 96.0227 33.3292 96.4034 33.5962 96.6875C33.8661 96.9716 34.2099 97.1136 34.6275 97.1136C34.8775 97.1136 35.1317 97.0497 35.3903 96.9219C35.6516 96.794 35.8704 96.598 36.0465 96.3338C36.2255 96.0696 36.315 95.733 36.315 95.3239ZM39.1626 100.455V91.4545H40.1342V92.4943H40.2536C40.3274 92.3807 40.4297 92.2358 40.5604 92.0597C40.6939 91.8807 40.8842 91.7216 41.1314 91.5824C41.3814 91.4403 41.7195 91.3693 42.1456 91.3693C42.6967 91.3693 43.1825 91.5071 43.603 91.7827C44.0234 92.0582 44.3516 92.4489 44.5874 92.9545C44.8232 93.4602 44.9411 94.0568 44.9411 94.7443C44.9411 95.4375 44.8232 96.0384 44.5874 96.5469C44.3516 97.0526 44.0249 97.4446 43.6072 97.723C43.1896 97.9986 42.7081 98.1364 42.1626 98.1364C41.7422 98.1364 41.4055 98.0668 41.1527 97.9276C40.8999 97.7855 40.7053 97.625 40.5689 97.446C40.4325 97.2642 40.3274 97.1136 40.2536 96.9943H40.1683V100.455H39.1626ZM40.1513 94.7273C40.1513 95.2216 40.2237 95.6577 40.3686 96.0355C40.5135 96.4105 40.7251 96.7045 41.0036 96.9176C41.282 97.1278 41.6229 97.233 42.0263 97.233C42.4467 97.233 42.7976 97.1222 43.0788 96.9006C43.3629 96.6761 43.576 96.375 43.718 95.9972C43.8629 95.6165 43.9354 95.1932 43.9354 94.7273C43.9354 94.267 43.8643 93.8523 43.7223 93.483C43.5831 93.1108 43.3714 92.8168 43.0874 92.6009C42.8061 92.3821 42.4524 92.2727 42.0263 92.2727C41.6172 92.2727 41.2734 92.3764 40.995 92.5838C40.7166 92.7884 40.5064 93.0753 40.3643 93.4446C40.2223 93.8111 40.1513 94.2386 40.1513 94.7273ZM46.4751 100.455V91.4545H47.4467V92.4943H47.5661C47.6399 92.3807 47.7422 92.2358 47.8729 92.0597C48.0064 91.8807 48.1967 91.7216 48.4439 91.5824C48.6939 91.4403 49.032 91.3693 49.4581 91.3693C50.0092 91.3693 50.495 91.5071 50.9155 91.7827C51.3359 92.0582 51.6641 92.4489 51.8999 92.9545C52.1357 93.4602 52.2536 94.0568 52.2536 94.7443C52.2536 95.4375 52.1357 96.0384 51.8999 96.5469C51.6641 97.0526 51.3374 97.4446 50.9197 97.723C50.5021 97.9986 50.0206 98.1364 49.4751 98.1364C49.0547 98.1364 48.718 98.0668 48.4652 97.9276C48.2124 97.7855 48.0178 97.625 47.8814 97.446C47.745 97.2642 47.6399 97.1136 47.5661 96.9943H47.4808V100.455H46.4751ZM47.4638 94.7273C47.4638 95.2216 47.5362 95.6577 47.6811 96.0355C47.826 96.4105 48.0376 96.7045 48.3161 96.9176C48.5945 97.1278 48.9354 97.233 49.3388 97.233C49.7592 97.233 50.1101 97.1222 50.3913 96.9006C50.6754 96.6761 50.8885 96.375 51.0305 95.9972C51.1754 95.6165 51.2479 95.1932 51.2479 94.7273C51.2479 94.267 51.1768 93.8523 51.0348 93.483C50.8956 93.1108 50.6839 92.8168 50.3999 92.6009C50.1186 92.3821 49.7649 92.2727 49.3388 92.2727C48.9297 92.2727 48.5859 92.3764 48.3075 92.5838C48.0291 92.7884 47.8189 93.0753 47.6768 93.4446C47.5348 93.8111 47.4638 94.2386 47.4638 94.7273ZM56.4467 98.1364C55.8558 98.1364 55.3374 97.9957 54.8913 97.7145C54.4482 97.4332 54.1016 97.0398 53.8516 96.5341C53.6044 96.0284 53.4808 95.4375 53.4808 94.7614C53.4808 94.0795 53.6044 93.4844 53.8516 92.9759C54.1016 92.4673 54.4482 92.0724 54.8913 91.7912C55.3374 91.5099 55.8558 91.3693 56.4467 91.3693C57.0376 91.3693 57.5547 91.5099 57.9979 91.7912C58.4439 92.0724 58.7905 92.4673 59.0376 92.9759C59.2876 93.4844 59.4126 94.0795 59.4126 94.7614C59.4126 95.4375 59.2876 96.0284 59.0376 96.5341C58.7905 97.0398 58.4439 97.4332 57.9979 97.7145C57.5547 97.9957 57.0376 98.1364 56.4467 98.1364ZM56.4467 97.233C56.8956 97.233 57.2649 97.1179 57.5547 96.8878C57.8445 96.6577 58.0589 96.3551 58.1982 95.9801C58.3374 95.6051 58.407 95.1989 58.407 94.7614C58.407 94.3239 58.3374 93.9162 58.1982 93.5384C58.0589 93.1605 57.8445 92.8551 57.5547 92.6222C57.2649 92.3892 56.8956 92.2727 56.4467 92.2727C55.9979 92.2727 55.6286 92.3892 55.3388 92.6222C55.049 92.8551 54.8345 93.1605 54.6953 93.5384C54.5561 93.9162 54.4865 94.3239 54.4865 94.7614C54.4865 95.1989 54.5561 95.6051 54.6953 95.9801C54.8345 96.3551 55.049 96.6577 55.3388 96.8878C55.6286 97.1179 55.9979 97.233 56.4467 97.233ZM60.9478 98V91.4545H61.9194V92.4432H61.9876C62.1069 92.1193 62.3228 91.8565 62.6353 91.6548C62.9478 91.4531 63.3001 91.3523 63.6921 91.3523C63.766 91.3523 63.8583 91.3537 63.9691 91.3565C64.0799 91.3594 64.1637 91.3636 64.2205 91.3693V92.392C64.1864 92.3835 64.1083 92.3707 63.9862 92.3537C63.8668 92.3338 63.7404 92.3239 63.6069 92.3239C63.2887 92.3239 63.0046 92.3906 62.7546 92.5241C62.5075 92.6548 62.3114 92.8366 62.1665 93.0696C62.0245 93.2997 61.9535 93.5625 61.9535 93.858V98H60.9478ZM68.6694 91.4545V92.3068H65.2773V91.4545H68.6694ZM66.266 89.8864H67.2717V96.125C67.2717 96.4091 67.3129 96.6222 67.3952 96.7642C67.4805 96.9034 67.5884 96.9972 67.7191 97.0455C67.8526 97.0909 67.9933 97.1136 68.141 97.1136C68.2518 97.1136 68.3427 97.108 68.4137 97.0966C68.4847 97.0824 68.5415 97.071 68.5842 97.0625L68.7887 97.9659C68.7205 97.9915 68.6254 98.017 68.5032 98.0426C68.381 98.071 68.2262 98.0852 68.0387 98.0852C67.7546 98.0852 67.4762 98.0241 67.2035 97.902C66.9336 97.7798 66.7092 97.5938 66.5302 97.3438C66.354 97.0938 66.266 96.7784 66.266 96.3977V89.8864ZM73.6935 98V89.2727H74.6992V92.4943H74.7844C74.8583 92.3807 74.9606 92.2358 75.0913 92.0597C75.2248 91.8807 75.4151 91.7216 75.6623 91.5824C75.9123 91.4403 76.2504 91.3693 76.6765 91.3693C77.2276 91.3693 77.7134 91.5071 78.1339 91.7827C78.5543 92.0582 78.8825 92.4489 79.1183 92.9545C79.354 93.4602 79.4719 94.0568 79.4719 94.7443C79.4719 95.4375 79.354 96.0384 79.1183 96.5469C78.8825 97.0526 78.5558 97.4446 78.1381 97.723C77.7205 97.9986 77.239 98.1364 76.6935 98.1364C76.2731 98.1364 75.9364 98.0668 75.6836 97.9276C75.4308 97.7855 75.2362 97.625 75.0998 97.446C74.9634 97.2642 74.8583 97.1136 74.7844 96.9943H74.6651V98H73.6935ZM74.6822 94.7273C74.6822 95.2216 74.7546 95.6577 74.8995 96.0355C75.0444 96.4105 75.256 96.7045 75.5344 96.9176C75.8129 97.1278 76.1538 97.233 76.5572 97.233C76.9776 97.233 77.3285 97.1222 77.6097 96.9006C77.8938 96.6761 78.1069 96.375 78.2489 95.9972C78.3938 95.6165 78.4663 95.1932 78.4663 94.7273C78.4663 94.267 78.3952 93.8523 78.2532 93.483C78.114 93.1108 77.9023 92.8168 77.6183 92.6009C77.337 92.3821 76.9833 92.2727 76.5572 92.2727C76.1481 92.2727 75.8043 92.3764 75.5259 92.5838C75.2475 92.7884 75.0373 93.0753 74.8952 93.4446C74.7532 93.8111 74.6822 94.2386 74.6822 94.7273ZM85.1353 95.3239V91.4545H86.141V98H85.1353V96.892H85.0671C84.9137 97.2244 84.6751 97.5071 84.3512 97.7401C84.0273 97.9702 83.6183 98.0852 83.1239 98.0852C82.7148 98.0852 82.3512 97.9957 82.033 97.8168C81.7148 97.6349 81.4648 97.3622 81.283 96.9986C81.1012 96.6321 81.0103 96.1705 81.0103 95.6136V91.4545H82.016V95.5455C82.016 96.0227 82.1495 96.4034 82.4165 96.6875C82.6864 96.9716 83.0302 97.1136 83.4478 97.1136C83.6978 97.1136 83.9521 97.0497 84.2106 96.9219C84.4719 96.794 84.6907 96.598 84.8668 96.3338C85.0458 96.0696 85.1353 95.733 85.1353 95.3239ZM87.983 98V91.4545H88.9886V98H87.983ZM88.4943 90.3636C88.2983 90.3636 88.1293 90.2969 87.9872 90.1634C87.848 90.0298 87.7784 89.8693 87.7784 89.6818C87.7784 89.4943 87.848 89.3338 87.9872 89.2003C88.1293 89.0668 88.2983 89 88.4943 89C88.6903 89 88.858 89.0668 88.9972 89.2003C89.1392 89.3338 89.2102 89.4943 89.2102 89.6818C89.2102 89.8693 89.1392 90.0298 88.9972 90.1634C88.858 90.2969 88.6903 90.3636 88.4943 90.3636ZM91.8363 89.2727V98H90.8306V89.2727H91.8363ZM96.5249 91.4545V92.3068H93.1328V91.4545H96.5249ZM94.1214 89.8864H95.1271V96.125C95.1271 96.4091 95.1683 96.6222 95.2507 96.7642C95.3359 96.9034 95.4439 96.9972 95.5746 97.0455C95.7081 97.0909 95.8487 97.1136 95.9964 97.1136C96.1072 97.1136 96.1982 97.108 96.2692 97.0966C96.3402 97.0824 96.397 97.071 96.4396 97.0625L96.6442 97.9659C96.576 97.9915 96.4808 98.017 96.3587 98.0426C96.2365 98.071 96.0817 98.0852 95.8942 98.0852C95.6101 98.0852 95.3317 98.0241 95.0589 97.902C94.7891 97.7798 94.5646 97.5938 94.3857 97.3438C94.2095 97.0938 94.1214 96.7784 94.1214 96.3977V89.8864ZM101.413 98V91.4545H102.418V98H101.413ZM101.924 90.3636C101.728 90.3636 101.559 90.2969 101.417 90.1634C101.278 90.0298 101.208 89.8693 101.208 89.6818C101.208 89.4943 101.278 89.3338 101.417 89.2003C101.559 89.0668 101.728 89 101.924 89C102.12 89 102.288 89.0668 102.427 89.2003C102.569 89.3338 102.64 89.4943 102.64 89.6818C102.64 89.8693 102.569 90.0298 102.427 90.1634C102.288 90.2969 102.12 90.3636 101.924 90.3636ZM105.266 94.0625V98H104.26V91.4545H105.232V92.4773H105.317C105.471 92.1449 105.703 91.8778 106.016 91.6761C106.328 91.4716 106.732 91.3693 107.226 91.3693C107.669 91.3693 108.057 91.4602 108.39 91.642C108.722 91.821 108.98 92.0938 109.165 92.4602C109.35 92.8239 109.442 93.2841 109.442 93.8409V98H108.436V93.9091C108.436 93.3949 108.303 92.9943 108.036 92.7074C107.769 92.4176 107.402 92.2727 106.936 92.2727C106.615 92.2727 106.328 92.3423 106.076 92.4815C105.826 92.6207 105.628 92.8239 105.483 93.0909C105.338 93.358 105.266 93.6818 105.266 94.0625ZM27.4034 114L25.4091 107.455H26.4659L27.8807 112.466H27.9489L29.3466 107.455H30.4205L31.8011 112.449H31.8693L33.2841 107.455H34.3409L32.3466 114H31.358L29.9261 108.972H29.8239L28.392 114H27.4034ZM35.6705 114V107.455H36.6761V114H35.6705ZM36.1818 106.364C35.9858 106.364 35.8168 106.297 35.6747 106.163C35.5355 106.03 35.4659 105.869 35.4659 105.682C35.4659 105.494 35.5355 105.334 35.6747 105.2C35.8168 105.067 35.9858 105 36.1818 105C36.3778 105 36.5455 105.067 36.6847 105.2C36.8267 105.334 36.8977 105.494 36.8977 105.682C36.8977 105.869 36.8267 106.03 36.6847 106.163C36.5455 106.297 36.3778 106.364 36.1818 106.364ZM41.3647 107.455V108.307H37.9727V107.455H41.3647ZM38.9613 105.886H39.967V112.125C39.967 112.409 40.0082 112.622 40.0906 112.764C40.1758 112.903 40.2837 112.997 40.4144 113.045C40.5479 113.091 40.6886 113.114 40.8363 113.114C40.9471 113.114 41.038 113.108 41.109 113.097C41.18 113.082 41.2369 113.071 41.2795 113.062L41.484 113.966C41.4158 113.991 41.3207 114.017 41.1985 114.043C41.0763 114.071 40.9215 114.085 40.734 114.085C40.4499 114.085 40.1715 114.024 39.8988 113.902C39.6289 113.78 39.4045 113.594 39.2255 113.344C39.0494 113.094 38.9613 112.778 38.9613 112.398V105.886ZM44.0238 110.062V114H43.0181V105.273H44.0238V108.477H44.109C44.2624 108.139 44.4925 107.871 44.7994 107.672C45.109 107.47 45.521 107.369 46.0352 107.369C46.4812 107.369 46.8718 107.459 47.207 107.638C47.5423 107.814 47.8022 108.085 47.9869 108.452C48.1744 108.815 48.2681 109.278 48.2681 109.841V114H47.2624V109.909C47.2624 109.389 47.1275 108.987 46.8576 108.703C46.5906 108.416 46.2198 108.273 45.7454 108.273C45.4158 108.273 45.1204 108.342 44.859 108.482C44.6005 108.621 44.396 108.824 44.2454 109.091C44.0977 109.358 44.0238 109.682 44.0238 110.062ZM56.2273 114.136C55.5966 114.136 55.0526 113.997 54.5952 113.719C54.1406 113.438 53.7898 113.045 53.5426 112.543C53.2983 112.037 53.1761 111.449 53.1761 110.778C53.1761 110.108 53.2983 109.517 53.5426 109.006C53.7898 108.491 54.1335 108.091 54.5739 107.804C55.017 107.514 55.5341 107.369 56.125 107.369C56.4659 107.369 56.8026 107.426 57.1349 107.54C57.4673 107.653 57.7699 107.838 58.0426 108.094C58.3153 108.347 58.5327 108.682 58.6946 109.099C58.8565 109.517 58.9375 110.031 58.9375 110.642V111.068H53.892V110.199H57.9148C57.9148 109.83 57.8409 109.5 57.6932 109.21C57.5483 108.92 57.3409 108.692 57.071 108.524C56.804 108.357 56.4886 108.273 56.125 108.273C55.7244 108.273 55.3778 108.372 55.0852 108.571C54.7955 108.767 54.5724 109.023 54.4162 109.338C54.2599 109.653 54.1818 109.991 54.1818 110.352V110.932C54.1818 111.426 54.267 111.845 54.4375 112.189C54.6108 112.53 54.8509 112.79 55.1577 112.969C55.4645 113.145 55.821 113.233 56.2273 113.233C56.4915 113.233 56.7301 113.196 56.9432 113.122C57.1591 113.045 57.3452 112.932 57.5014 112.781C57.6577 112.628 57.7784 112.437 57.8636 112.21L58.8352 112.483C58.733 112.812 58.5611 113.102 58.3196 113.352C58.0781 113.599 57.7798 113.793 57.4247 113.932C57.0696 114.068 56.6705 114.136 56.2273 114.136ZM65.6204 107.455L63.1999 114H62.1772L59.7567 107.455H60.8477L62.6545 112.67H62.7227L64.5295 107.455H65.6204ZM69.4577 114.136C68.8271 114.136 68.283 113.997 67.8256 113.719C67.3711 113.438 67.0202 113.045 66.7731 112.543C66.5288 112.037 66.4066 111.449 66.4066 110.778C66.4066 110.108 66.5288 109.517 66.7731 109.006C67.0202 108.491 67.364 108.091 67.8043 107.804C68.2475 107.514 68.7646 107.369 69.3555 107.369C69.6964 107.369 70.033 107.426 70.3654 107.54C70.6978 107.653 71.0004 107.838 71.2731 108.094C71.5458 108.347 71.7631 108.682 71.9251 109.099C72.087 109.517 72.168 110.031 72.168 110.642V111.068H67.1225V110.199H71.1452C71.1452 109.83 71.0714 109.5 70.9237 109.21C70.7788 108.92 70.5714 108.692 70.3015 108.524C70.0344 108.357 69.7191 108.273 69.3555 108.273C68.9549 108.273 68.6083 108.372 68.3157 108.571C68.0259 108.767 67.8029 109.023 67.6467 109.338C67.4904 109.653 67.4123 109.991 67.4123 110.352V110.932C67.4123 111.426 67.4975 111.845 67.668 112.189C67.8413 112.53 68.0813 112.79 68.3881 112.969C68.695 113.145 69.0515 113.233 69.4577 113.233C69.7219 113.233 69.9606 113.196 70.1737 113.122C70.3896 113.045 70.5756 112.932 70.7319 112.781C70.8881 112.628 71.0089 112.437 71.0941 112.21L72.0657 112.483C71.9634 112.812 71.7915 113.102 71.5501 113.352C71.3086 113.599 71.0103 113.793 70.6552 113.932C70.3001 114.068 69.9009 114.136 69.4577 114.136ZM73.6978 114V107.455H74.6694V108.443H74.7376C74.8569 108.119 75.0728 107.857 75.3853 107.655C75.6978 107.453 76.0501 107.352 76.4421 107.352C76.516 107.352 76.6083 107.354 76.7191 107.357C76.8299 107.359 76.9137 107.364 76.9705 107.369V108.392C76.9364 108.384 76.8583 108.371 76.7362 108.354C76.6168 108.334 76.4904 108.324 76.3569 108.324C76.0387 108.324 75.7546 108.391 75.5046 108.524C75.2575 108.655 75.0614 108.837 74.9165 109.07C74.7745 109.3 74.7035 109.562 74.7035 109.858V114H73.6978ZM79.0096 116.455C78.8391 116.455 78.6871 116.44 78.5536 116.412C78.4201 116.386 78.3278 116.361 78.2766 116.335L78.5323 115.449C78.7766 115.511 78.9925 115.534 79.18 115.517C79.3675 115.5 79.5337 115.416 79.6786 115.266C79.8263 115.118 79.9613 114.878 80.0835 114.545L80.271 114.034L77.8505 107.455H78.9414L80.7482 112.67H80.8164L82.6232 107.455H83.7141L80.9357 114.955C80.8107 115.293 80.6559 115.572 80.4712 115.794C80.2866 116.018 80.0721 116.185 79.8278 116.293C79.5863 116.401 79.3136 116.455 79.0096 116.455ZM88.4165 116.455V107.455H89.3881V108.494H89.5075C89.5813 108.381 89.6836 108.236 89.8143 108.06C89.9478 107.881 90.1381 107.722 90.3853 107.582C90.6353 107.44 90.9734 107.369 91.3995 107.369C91.9506 107.369 92.4364 107.507 92.8569 107.783C93.2773 108.058 93.6055 108.449 93.8413 108.955C94.0771 109.46 94.195 110.057 94.195 110.744C94.195 111.438 94.0771 112.038 93.8413 112.547C93.6055 113.053 93.2788 113.445 92.8612 113.723C92.4435 113.999 91.962 114.136 91.4165 114.136C90.9961 114.136 90.6594 114.067 90.4066 113.928C90.1538 113.786 89.9592 113.625 89.8228 113.446C89.6864 113.264 89.5813 113.114 89.5075 112.994H89.4222V116.455H88.4165ZM89.4052 110.727C89.4052 111.222 89.4776 111.658 89.6225 112.036C89.7674 112.411 89.979 112.705 90.2575 112.918C90.5359 113.128 90.8768 113.233 91.2802 113.233C91.7006 113.233 92.0515 113.122 92.3327 112.901C92.6168 112.676 92.8299 112.375 92.9719 111.997C93.1168 111.616 93.1893 111.193 93.1893 110.727C93.1893 110.267 93.1183 109.852 92.9762 109.483C92.837 109.111 92.6254 108.817 92.3413 108.601C92.06 108.382 91.7063 108.273 91.2802 108.273C90.8711 108.273 90.5273 108.376 90.2489 108.584C89.9705 108.788 89.7603 109.075 89.6183 109.445C89.4762 109.811 89.4052 110.239 89.4052 110.727ZM98.3881 114.136C97.7972 114.136 97.2788 113.996 96.8327 113.714C96.3896 113.433 96.043 113.04 95.793 112.534C95.5458 112.028 95.4222 111.437 95.4222 110.761C95.4222 110.08 95.5458 109.484 95.793 108.976C96.043 108.467 96.3896 108.072 96.8327 107.791C97.2788 107.51 97.7972 107.369 98.3881 107.369C98.979 107.369 99.4961 107.51 99.9393 107.791C100.385 108.072 100.732 108.467 100.979 108.976C101.229 109.484 101.354 110.08 101.354 110.761C101.354 111.437 101.229 112.028 100.979 112.534C100.732 113.04 100.385 113.433 99.9393 113.714C99.4961 113.996 98.979 114.136 98.3881 114.136ZM98.3881 113.233C98.837 113.233 99.2063 113.118 99.4961 112.888C99.7859 112.658 100 112.355 100.14 111.98C100.279 111.605 100.348 111.199 100.348 110.761C100.348 110.324 100.279 109.916 100.14 109.538C100 109.161 99.7859 108.855 99.4961 108.622C99.2063 108.389 98.837 108.273 98.3881 108.273C97.9393 108.273 97.57 108.389 97.2802 108.622C96.9904 108.855 96.7759 109.161 96.6367 109.538C96.4975 109.916 96.4279 110.324 96.4279 110.761C96.4279 111.199 96.4975 111.605 96.6367 111.98C96.7759 112.355 96.9904 112.658 97.2802 112.888C97.57 113.118 97.9393 113.233 98.3881 113.233ZM103.895 105.273V114H102.889V105.273H103.895ZM105.737 114V107.455H106.743V114H105.737ZM106.248 106.364C106.052 106.364 105.883 106.297 105.741 106.163C105.602 106.03 105.532 105.869 105.532 105.682C105.532 105.494 105.602 105.334 105.741 105.2C105.883 105.067 106.052 105 106.248 105C106.444 105 106.612 105.067 106.751 105.2C106.893 105.334 106.964 105.494 106.964 105.682C106.964 105.869 106.893 106.03 106.751 106.163C106.612 106.297 106.444 106.364 106.248 106.364ZM111.244 114.136C110.63 114.136 110.102 113.991 109.658 113.702C109.215 113.412 108.874 113.013 108.636 112.504C108.397 111.996 108.278 111.415 108.278 110.761C108.278 110.097 108.4 109.51 108.644 109.001C108.891 108.49 109.235 108.091 109.675 107.804C110.119 107.514 110.636 107.369 111.227 107.369C111.687 107.369 112.102 107.455 112.471 107.625C112.84 107.795 113.143 108.034 113.379 108.341C113.614 108.648 113.761 109.006 113.817 109.415H112.812C112.735 109.116 112.565 108.852 112.3 108.622C112.039 108.389 111.687 108.273 111.244 108.273C110.852 108.273 110.508 108.375 110.212 108.58C109.92 108.781 109.691 109.067 109.526 109.436C109.364 109.803 109.283 110.233 109.283 110.727C109.283 111.233 109.363 111.673 109.522 112.048C109.684 112.423 109.911 112.714 110.204 112.922C110.499 113.129 110.846 113.233 111.244 113.233C111.505 113.233 111.742 113.188 111.955 113.097C112.168 113.006 112.349 112.875 112.496 112.705C112.644 112.534 112.749 112.33 112.812 112.091H113.817C113.761 112.477 113.62 112.825 113.396 113.135C113.174 113.442 112.88 113.686 112.513 113.868C112.15 114.047 111.727 114.136 111.244 114.136ZM115.935 116.455C115.765 116.455 115.613 116.44 115.479 116.412C115.346 116.386 115.254 116.361 115.202 116.335L115.458 115.449C115.702 115.511 115.918 115.534 116.106 115.517C116.293 115.5 116.46 115.416 116.604 115.266C116.752 115.118 116.887 114.878 117.009 114.545L117.197 114.034L114.776 107.455H115.867L117.674 112.67H117.742L119.549 107.455H120.64L117.862 114.955C117.737 115.293 117.582 115.572 117.397 115.794C117.212 116.018 116.998 116.185 116.754 116.293C116.512 116.401 116.239 116.455 115.935 116.455ZM28.8352 123.455V124.307H25.3068V123.455H28.8352ZM26.3636 130V122.551C26.3636 122.176 26.4517 121.864 26.6278 121.614C26.804 121.364 27.0327 121.176 27.3139 121.051C27.5952 120.926 27.892 120.864 28.2045 120.864C28.4517 120.864 28.6534 120.884 28.8097 120.923C28.9659 120.963 29.0824 121 29.1591 121.034L28.8693 121.903C28.8182 121.886 28.7472 121.865 28.6562 121.839C28.5682 121.814 28.4517 121.801 28.3068 121.801C27.9744 121.801 27.7344 121.885 27.5866 122.053C27.4418 122.22 27.3693 122.466 27.3693 122.79V130H26.3636ZM32.6342 130.136C32.0433 130.136 31.5249 129.996 31.0788 129.714C30.6357 129.433 30.2891 129.04 30.0391 128.534C29.7919 128.028 29.6683 127.437 29.6683 126.761C29.6683 126.08 29.7919 125.484 30.0391 124.976C30.2891 124.467 30.6357 124.072 31.0788 123.791C31.5249 123.51 32.0433 123.369 32.6342 123.369C33.2251 123.369 33.7422 123.51 34.1854 123.791C34.6314 124.072 34.978 124.467 35.2251 124.976C35.4751 125.484 35.6001 126.08 35.6001 126.761C35.6001 127.437 35.4751 128.028 35.2251 128.534C34.978 129.04 34.6314 129.433 34.1854 129.714C33.7422 129.996 33.2251 130.136 32.6342 130.136ZM32.6342 129.233C33.0831 129.233 33.4524 129.118 33.7422 128.888C34.032 128.658 34.2464 128.355 34.3857 127.98C34.5249 127.605 34.5945 127.199 34.5945 126.761C34.5945 126.324 34.5249 125.916 34.3857 125.538C34.2464 125.161 34.032 124.855 33.7422 124.622C33.4524 124.389 33.0831 124.273 32.6342 124.273C32.1854 124.273 31.8161 124.389 31.5263 124.622C31.2365 124.855 31.022 125.161 30.8828 125.538C30.7436 125.916 30.674 126.324 30.674 126.761C30.674 127.199 30.7436 127.605 30.8828 127.98C31.022 128.355 31.2365 128.658 31.5263 128.888C31.8161 129.118 32.1854 129.233 32.6342 129.233ZM37.1353 130V123.455H38.1069V124.443H38.1751C38.2944 124.119 38.5103 123.857 38.8228 123.655C39.1353 123.453 39.4876 123.352 39.8796 123.352C39.9535 123.352 40.0458 123.354 40.1566 123.357C40.2674 123.359 40.3512 123.364 40.408 123.369V124.392C40.3739 124.384 40.2958 124.371 40.1737 124.354C40.0543 124.334 39.9279 124.324 39.7944 124.324C39.4762 124.324 39.1921 124.391 38.9421 124.524C38.695 124.655 38.4989 124.837 38.354 125.07C38.212 125.3 38.141 125.562 38.141 125.858V130H37.1353ZM45.9808 126.062V130H44.9751V121.273H45.9808V124.477H46.0661C46.2195 124.139 46.4496 123.871 46.7564 123.672C47.0661 123.47 47.478 123.369 47.9922 123.369C48.4382 123.369 48.8288 123.459 49.1641 123.638C49.4993 123.814 49.7592 124.085 49.9439 124.452C50.1314 124.815 50.2251 125.278 50.2251 125.841V130H49.2195V125.909C49.2195 125.389 49.0845 124.987 48.8146 124.703C48.5476 124.416 48.1768 124.273 47.7024 124.273C47.3729 124.273 47.0774 124.342 46.8161 124.482C46.5575 124.621 46.353 124.824 46.2024 125.091C46.0547 125.358 45.9808 125.682 45.9808 126.062ZM54.8093 130.136C54.1786 130.136 53.6346 129.997 53.1772 129.719C52.7227 129.438 52.3718 129.045 52.1246 128.543C51.8803 128.037 51.7582 127.449 51.7582 126.778C51.7582 126.108 51.8803 125.517 52.1246 125.006C52.3718 124.491 52.7156 124.091 53.1559 123.804C53.5991 123.514 54.1161 123.369 54.707 123.369C55.0479 123.369 55.3846 123.426 55.717 123.54C56.0494 123.653 56.3519 123.838 56.6246 124.094C56.8974 124.347 57.1147 124.682 57.2766 125.099C57.4386 125.517 57.5195 126.031 57.5195 126.642V127.068H52.4741V126.199H56.4968C56.4968 125.83 56.4229 125.5 56.2752 125.21C56.1303 124.92 55.9229 124.692 55.6531 124.524C55.386 124.357 55.0707 124.273 54.707 124.273C54.3065 124.273 53.9599 124.372 53.6673 124.571C53.3775 124.767 53.1545 125.023 52.9982 125.338C52.842 125.653 52.7638 125.991 52.7638 126.352V126.932C52.7638 127.426 52.8491 127.845 53.0195 128.189C53.1928 128.53 53.4329 128.79 53.7397 128.969C54.0465 129.145 54.4031 129.233 54.8093 129.233C55.0735 129.233 55.3121 129.196 55.5252 129.122C55.7411 129.045 55.9272 128.932 56.0835 128.781C56.2397 128.628 56.3604 128.437 56.4457 128.21L57.4173 128.483C57.315 128.812 57.1431 129.102 56.9016 129.352C56.6602 129.599 56.3619 129.793 56.0067 129.932C55.6516 130.068 55.2525 130.136 54.8093 130.136ZM60.055 121.273V130H59.0494V121.273H60.055ZM61.897 132.455V123.455H62.8686V124.494H62.9879C63.0618 124.381 63.1641 124.236 63.2947 124.06C63.4283 123.881 63.6186 123.722 63.8658 123.582C64.1158 123.44 64.4538 123.369 64.88 123.369C65.4311 123.369 65.9169 123.507 66.3374 123.783C66.7578 124.058 67.0859 124.449 67.3217 124.955C67.5575 125.46 67.6754 126.057 67.6754 126.744C67.6754 127.438 67.5575 128.038 67.3217 128.547C67.0859 129.053 66.7592 129.445 66.3416 129.723C65.924 129.999 65.4425 130.136 64.897 130.136C64.4766 130.136 64.1399 130.067 63.8871 129.928C63.6342 129.786 63.4396 129.625 63.3033 129.446C63.1669 129.264 63.0618 129.114 62.9879 128.994H62.9027V132.455H61.897ZM62.8857 126.727C62.8857 127.222 62.9581 127.658 63.103 128.036C63.2479 128.411 63.4595 128.705 63.7379 128.918C64.0163 129.128 64.3572 129.233 64.7607 129.233C65.1811 129.233 65.532 129.122 65.8132 128.901C66.0973 128.676 66.3104 128.375 66.4524 127.997C66.5973 127.616 66.6697 127.193 66.6697 126.727C66.6697 126.267 66.5987 125.852 66.4567 125.483C66.3175 125.111 66.1058 124.817 65.8217 124.601C65.5405 124.382 65.1868 124.273 64.7607 124.273C64.3516 124.273 64.0078 124.376 63.7294 124.584C63.451 124.788 63.2408 125.075 63.0987 125.445C62.9567 125.811 62.8857 126.239 62.8857 126.727ZM69.9425 130.068C69.7322 130.068 69.5518 129.993 69.4013 129.842C69.2507 129.692 69.1754 129.511 69.1754 129.301C69.1754 129.091 69.2507 128.911 69.4013 128.76C69.5518 128.609 69.7322 128.534 69.9425 128.534C70.1527 128.534 70.3331 128.609 70.4837 128.76C70.6342 128.911 70.7095 129.091 70.7095 129.301C70.7095 129.44 70.674 129.568 70.603 129.685C70.5348 129.801 70.4425 129.895 70.326 129.966C70.2124 130.034 70.0845 130.068 69.9425 130.068Z" fill="#8391A1"/>
<path d="M108.354 129.999C106.718 131.344 105.435 133.111 104.756 135.153C104.378 136.248 104.177 137.443 104.177 138.663V151.934C104.177 153.079 103.246 154 102.088 154C100.931 154 100 153.079 100 151.934V138.663C100 134.63 101.585 130.945 104.152 128.231C105.913 126.364 108.153 124.92 110.669 124.123C112.028 123.675 113.412 124.671 113.412 126.065C113.412 126.962 112.833 127.733 111.977 128.032C110.644 128.431 109.411 129.128 108.354 129.999Z" fill="white"/>
<path d="M131 138.564C131.05 146.954 124.156 153.9 115.676 153.975C115.625 153.975 115.55 153.975 115.5 153.975C111.549 153.975 108.354 150.788 108.354 146.879V138.763C108.354 138.738 108.354 138.688 108.354 138.663C108.354 134.58 111.851 131.294 116.028 131.593C119.576 131.841 122.445 134.705 122.671 138.215C122.822 140.63 121.74 142.821 120.004 144.191C118.67 145.261 116.657 144.265 116.657 142.572C116.657 141.95 116.934 141.377 117.412 140.979C118.117 140.406 118.544 139.535 118.519 138.589C118.469 137.045 117.211 135.775 115.651 135.701C113.914 135.626 112.48 136.995 112.48 138.688C112.48 138.713 112.48 138.763 112.48 138.788V146.68C112.48 148.473 113.965 149.942 115.776 149.892C115.802 149.892 115.852 149.892 115.877 149.892C121.639 149.693 126.395 145.162 126.798 139.46C127.15 134.157 123.778 129.576 118.997 128.032C118.142 127.758 117.563 126.987 117.563 126.115V126.04C117.563 124.671 118.897 123.675 120.23 124.098C126.445 126.04 130.949 131.767 131 138.564Z" fill="white"/>
<path d="M25 54.24H57V22.24H25V54.24Z" fill="black"/>
</g>
<defs>
<filter id="filter0_d_103_530" x="0" y="0" width="145" height="173" filterUnits="userSpaceOnUse" color-interpolation-filters="sRGB">
<feFlood flood-opacity="0" result="BackgroundImageFix"/>
<feColorMatrix in="SourceAlpha" type="matrix" values="0 0 0 0 0 0 0 0 0 0 0 0 0 0 0 0 0 0 127 0" result="hardAlpha"/>
<feMorphology radius="20" operator="erode" in="SourceAlpha" result="effect1_dropShadow_103_530"/>
<feOffset dy="5"/>
<feGaussianBlur stdDeviation="15"/>
<feColorMatrix type="matrix" values="0 0 0 0 0.333333 0 0 0 0 0.333333 0 0 0 0 0.333333 0 0 0 0.25 0"/>
<feBlend mode="normal" in2="BackgroundImageFix" result="effect1_dropShadow_103_530"/>
<feBlend mode="normal" in="SourceGraphic" in2="effect1_dropShadow_103_530" result="shape"/>
</filter>
</defs>
</svg>
