<svg width="98" height="173" viewBox="0 0 98 173" fill="none" xmlns="http://www.w3.org/2000/svg">
<g filter="url(#filter0_d_103_537)">
<rect x="10" y="5" width="125" height="153" rx="8" fill="#F7F8F9"/>
<path d="M29.544 76.1392C28.8414 76.1392 28.215 76.0099 27.6648 75.7514C27.1179 75.4929 26.6837 75.1366 26.3622 74.6825C26.0407 74.2285 25.8733 73.7081 25.8601 73.1214H27.9482C27.9714 73.5159 28.1371 73.8357 28.4453 74.081C28.7536 74.3262 29.1198 74.4489 29.544 74.4489C29.8821 74.4489 30.1804 74.3743 30.4389 74.2251C30.7008 74.0727 30.9046 73.8622 31.0504 73.5938C31.1996 73.322 31.2741 73.0104 31.2741 72.6591C31.2741 72.3011 31.1979 71.9863 31.0455 71.7145C30.8963 71.4427 30.6892 71.2306 30.424 71.0781C30.1589 70.9257 29.8556 70.8478 29.5142 70.8445C29.2159 70.8445 28.9259 70.9058 28.6442 71.0284C28.3658 71.151 28.1487 71.3184 27.9929 71.5305L26.0788 71.1875L26.5611 65.8182H32.7855V67.5781H28.3359L28.0724 70.1286H28.1321C28.3111 69.8767 28.5812 69.6679 28.9425 69.5021C29.3037 69.3364 29.7081 69.2536 30.1555 69.2536C30.7687 69.2536 31.3156 69.3977 31.7962 69.6861C32.2768 69.9744 32.6562 70.3705 32.9347 70.8743C33.2131 71.3748 33.3506 71.9515 33.3473 72.6044C33.3506 73.2905 33.1915 73.9003 32.87 74.4339C32.5518 74.9643 32.1061 75.3819 31.5327 75.6868C30.9626 75.9884 30.2997 76.1392 29.544 76.1392ZM38.8409 76.2237C37.9858 76.2204 37.25 76.0099 36.6335 75.5923C36.0204 75.1747 35.5481 74.5698 35.2166 73.7777C34.8885 72.9856 34.7261 72.0327 34.7294 70.919C34.7294 69.8087 34.8935 68.8625 35.2216 68.0803C35.553 67.2981 36.0253 66.7031 36.6385 66.2955C37.255 65.8845 37.9891 65.679 38.8409 65.679C39.6927 65.679 40.4252 65.8845 41.0384 66.2955C41.6548 66.7064 42.1288 67.303 42.4602 68.0852C42.7917 68.8641 42.9557 69.8087 42.9524 70.919C42.9524 72.036 42.7867 72.9905 42.4553 73.7827C42.1271 74.5748 41.6565 75.1797 41.0433 75.5973C40.4302 76.0149 39.696 76.2237 38.8409 76.2237ZM38.8409 74.4389C39.4242 74.4389 39.8899 74.1456 40.2379 73.5589C40.5859 72.9723 40.7583 72.0923 40.755 70.919C40.755 70.1468 40.6754 69.5038 40.5163 68.9901C40.3606 68.4763 40.1385 68.0902 39.8501 67.8317C39.5651 67.5732 39.2287 67.4439 38.8409 67.4439C38.2609 67.4439 37.7969 67.7339 37.4489 68.3139C37.1009 68.8939 36.9252 69.7623 36.9219 70.919C36.9219 71.7012 36.9998 72.3542 37.1555 72.8778C37.3146 73.3982 37.5384 73.7893 37.8267 74.0511C38.1151 74.3097 38.4531 74.4389 38.8409 74.4389ZM47.53 74.4489V67.4091H49.3098V74.4489H47.53ZM44.9 71.8189V70.0391H51.9398V71.8189H44.9ZM59.4556 65.8182V76H57.3029V65.8182H59.4556ZM63.3049 71.5852V76H61.187V68.3636H63.2054V69.7109H63.2949C63.464 69.2668 63.7473 68.9155 64.1451 68.657C64.5428 68.3951 65.025 68.2642 65.5918 68.2642C66.1221 68.2642 66.5845 68.3802 66.9789 68.6122C67.3733 68.8442 67.6799 69.1757 67.8986 69.6065C68.1174 70.0341 68.2267 70.5445 68.2267 71.1378V76H66.1088V71.5156C66.1122 71.0483 65.9928 70.6837 65.7509 70.4219C65.5089 70.1567 65.1758 70.0241 64.7516 70.0241C64.4666 70.0241 64.2147 70.0855 63.9959 70.2081C63.7805 70.3307 63.6114 70.5097 63.4888 70.745C63.3695 70.977 63.3082 71.2571 63.3049 71.5852ZM76.2496 70.5412L74.3107 70.6605C74.2776 70.4948 74.2063 70.3456 74.0969 70.2131C73.9876 70.0772 73.8434 69.9695 73.6644 69.8899C73.4888 69.8071 73.2783 69.7656 73.033 69.7656C72.7049 69.7656 72.4281 69.8352 72.2028 69.9744C71.9774 70.1103 71.8647 70.2926 71.8647 70.5213C71.8647 70.7036 71.9376 70.8577 72.0835 70.9837C72.2293 71.1096 72.4795 71.2107 72.8342 71.2869L74.2163 71.5653C74.9587 71.7178 75.5122 71.9631 75.8768 72.3011C76.2414 72.6392 76.4237 73.0833 76.4237 73.6335C76.4237 74.134 76.2762 74.5732 75.9812 74.951C75.6895 75.3288 75.2885 75.6238 74.7781 75.8359C74.271 76.0447 73.686 76.1491 73.0231 76.1491C72.0122 76.1491 71.2068 75.9387 70.6069 75.5178C70.0103 75.0935 69.6606 74.5168 69.5579 73.7876L71.641 73.6783C71.704 73.9865 71.8564 74.2218 72.0984 74.3842C72.3403 74.5433 72.6502 74.6229 73.0281 74.6229C73.3993 74.6229 73.6976 74.5516 73.9229 74.4091C74.1516 74.2633 74.2676 74.076 74.271 73.8473C74.2676 73.6551 74.1864 73.4976 74.0273 73.375C73.8683 73.2491 73.623 73.1529 73.2915 73.0866L71.9691 72.8232C71.2234 72.674 70.6682 72.4155 70.3036 72.0476C69.9424 71.6797 69.7617 71.2107 69.7617 70.6406C69.7617 70.1501 69.8943 69.7275 70.1594 69.3729C70.4279 69.0182 70.8041 68.7448 71.288 68.5526C71.7752 68.3603 72.3453 68.2642 72.9982 68.2642C73.9627 68.2642 74.7217 68.468 75.2752 68.8757C75.832 69.2834 76.1568 69.8385 76.2496 70.5412ZM82.6543 72.7486V68.3636H84.7722V76H82.7388V74.6129H82.6593C82.4869 75.0604 82.2002 75.42 81.7992 75.6918C81.4015 75.9635 80.9159 76.0994 80.3425 76.0994C79.8321 76.0994 79.383 75.9834 78.9952 75.7514C78.6074 75.5194 78.3042 75.1896 78.0854 74.7621C77.87 74.3345 77.7606 73.8224 77.7573 73.2259V68.3636H79.8752V72.848C79.8785 73.2988 79.9995 73.6551 80.2381 73.9169C80.4767 74.1787 80.7966 74.3097 81.1976 74.3097C81.4528 74.3097 81.6915 74.2517 81.9135 74.1357C82.1356 74.0163 82.3146 73.8407 82.4505 73.6087C82.5897 73.3767 82.6576 73.09 82.6543 72.7486ZM86.4663 76V68.3636H88.5195V69.696H88.5991C88.7383 69.2221 88.9719 68.8641 89.3001 68.6222C89.6282 68.3769 90.006 68.2543 90.4336 68.2543C90.5397 68.2543 90.654 68.2609 90.7766 68.2741C90.8993 68.2874 91.007 68.3056 91.0998 68.3288V70.2081C91.0004 70.1783 90.8628 70.1518 90.6871 70.1286C90.5115 70.1054 90.3507 70.0938 90.2049 70.0938C89.8933 70.0938 89.6149 70.1617 89.3697 70.2976C89.1277 70.4302 88.9355 70.6158 88.793 70.8544C88.6538 71.093 88.5842 71.3681 88.5842 71.6797V76H86.4663ZM95.3194 76.1491C94.5339 76.1491 93.8578 75.9901 93.291 75.6719C92.7276 75.3504 92.2934 74.8963 91.9885 74.3097C91.6835 73.7197 91.5311 73.022 91.5311 72.2166C91.5311 71.4311 91.6835 70.7417 91.9885 70.1484C92.2934 69.5552 92.7226 69.0928 93.2761 68.7614C93.8329 68.4299 94.4859 68.2642 95.2349 68.2642C95.7387 68.2642 96.2077 68.3454 96.6419 68.5078C97.0794 68.6669 97.4605 68.9072 97.7853 69.2287C98.1135 69.5502 98.3687 69.9545 98.551 70.4418C98.7333 70.9257 98.8244 71.4924 98.8244 72.142V72.7237H92.3762V71.4112H96.8308C96.8308 71.1063 96.7645 70.8362 96.6319 70.6009C96.4993 70.3655 96.3154 70.1816 96.0801 70.049C95.8481 69.9131 95.5779 69.8452 95.2697 69.8452C94.9482 69.8452 94.6632 69.9197 94.4146 70.0689C94.1693 70.2147 93.9771 70.4119 93.8379 70.6605C93.6987 70.9058 93.6274 71.1792 93.6241 71.4808V72.7287C93.6241 73.1065 93.6937 73.433 93.8329 73.7081C93.9754 73.9832 94.176 74.1953 94.4345 74.3445C94.693 74.4936 94.9996 74.5682 95.3542 74.5682C95.5895 74.5682 95.805 74.535 96.0005 74.4688C96.1961 74.4025 96.3635 74.303 96.5027 74.1705C96.6419 74.0379 96.7479 73.8755 96.8208 73.6832L98.7797 73.8125C98.6802 74.2831 98.4764 74.6941 98.1681 75.0455C97.8632 75.3935 97.4688 75.6652 96.9849 75.8608C96.5043 76.053 95.9492 76.1491 95.3194 76.1491ZM100.206 76V68.3636H102.26V69.696H102.339C102.479 69.2221 102.712 68.8641 103.04 68.6222C103.368 68.3769 103.746 68.2543 104.174 68.2543C104.28 68.2543 104.394 68.2609 104.517 68.2741C104.64 68.2874 104.747 68.3056 104.84 68.3288V70.2081C104.741 70.1783 104.603 70.1518 104.427 70.1286C104.252 70.1054 104.091 70.0938 103.945 70.0938C103.634 70.0938 103.355 70.1617 103.11 70.2976C102.868 70.4302 102.676 70.6158 102.533 70.8544C102.394 71.093 102.324 71.3681 102.324 71.6797V76H100.206ZM112.289 70.5412L110.35 70.6605C110.317 70.4948 110.245 70.3456 110.136 70.2131C110.027 70.0772 109.882 69.9695 109.703 69.8899C109.528 69.8071 109.317 69.7656 109.072 69.7656C108.744 69.7656 108.467 69.8352 108.242 69.9744C108.016 70.1103 107.904 70.2926 107.904 70.5213C107.904 70.7036 107.977 70.8577 108.123 70.9837C108.268 71.1096 108.519 71.2107 108.873 71.2869L110.255 71.5653C110.998 71.7178 111.551 71.9631 111.916 72.3011C112.28 72.6392 112.463 73.0833 112.463 73.6335C112.463 74.134 112.315 74.5732 112.02 74.951C111.729 75.3288 111.328 75.6238 110.817 75.8359C110.31 76.0447 109.725 76.1491 109.062 76.1491C108.051 76.1491 107.246 75.9387 106.646 75.5178C106.049 75.0935 105.7 74.5168 105.597 73.7876L107.68 73.6783C107.743 73.9865 107.895 74.2218 108.137 74.3842C108.379 74.5433 108.689 74.6229 109.067 74.6229C109.438 74.6229 109.737 74.5516 109.962 74.4091C110.191 74.2633 110.307 74.076 110.31 73.8473C110.307 73.6551 110.225 73.4976 110.066 73.375C109.907 73.2491 109.662 73.1529 109.331 73.0866L108.008 72.8232C107.262 72.674 106.707 72.4155 106.343 72.0476C105.981 71.6797 105.801 71.2107 105.801 70.6406C105.801 70.1501 105.933 69.7275 106.199 69.3729C106.467 69.0182 106.843 68.7448 107.327 68.5526C107.814 68.3603 108.384 68.2642 109.037 68.2642C110.002 68.2642 110.761 68.468 111.314 68.8757C111.871 69.2834 112.196 69.8385 112.289 70.5412Z" fill="#090808"/>
<path d="M25.9205 100.455V91.4545H26.892V92.4943H27.0114C27.0852 92.3807 27.1875 92.2358 27.3182 92.0597C27.4517 91.8807 27.642 91.7216 27.8892 91.5824C28.1392 91.4403 28.4773 91.3693 28.9034 91.3693C29.4545 91.3693 29.9403 91.5071 30.3608 91.7827C30.7813 92.0582 31.1094 92.4489 31.3452 92.9545C31.581 93.4602 31.6989 94.0568 31.6989 94.7443C31.6989 95.4375 31.581 96.0384 31.3452 96.5469C31.1094 97.0526 30.7827 97.4446 30.3651 97.723C29.9474 97.9986 29.4659 98.1364 28.9205 98.1364C28.5 98.1364 28.1634 98.0668 27.9105 97.9276C27.6577 97.7855 27.4631 97.625 27.3267 97.446C27.1903 97.2642 27.0852 97.1136 27.0114 96.9943H26.9261V100.455H25.9205ZM26.9091 94.7273C26.9091 95.2216 26.9815 95.6577 27.1264 96.0355C27.2713 96.4105 27.483 96.7045 27.7614 96.9176C28.0398 97.1278 28.3807 97.233 28.7841 97.233C29.2045 97.233 29.5554 97.1222 29.8366 96.9006C30.1207 96.6761 30.3338 96.375 30.4759 95.9972C30.6207 95.6165 30.6932 95.1932 30.6932 94.7273C30.6932 94.267 30.6222 93.8523 30.4801 93.483C30.3409 93.1108 30.1293 92.8168 29.8452 92.6009C29.5639 92.3821 29.2102 92.2727 28.7841 92.2727C28.375 92.2727 28.0313 92.3764 27.7528 92.5838C27.4744 92.7884 27.2642 93.0753 27.1222 93.4446C26.9801 93.8111 26.9091 94.2386 26.9091 94.7273ZM35.1591 98.1534C34.7443 98.1534 34.3679 98.0753 34.0298 97.919C33.6918 97.7599 33.4233 97.5312 33.2244 97.233C33.0256 96.9318 32.9261 96.5682 32.9261 96.142C32.9261 95.767 33 95.4631 33.1477 95.2301C33.2955 94.9943 33.4929 94.8097 33.7401 94.6761C33.9872 94.5426 34.2599 94.4432 34.5582 94.3778C34.8594 94.3097 35.1619 94.2557 35.4659 94.2159C35.8636 94.1648 36.1861 94.1264 36.4332 94.1009C36.6832 94.0724 36.8651 94.0256 36.9787 93.9602C37.0952 93.8949 37.1534 93.7812 37.1534 93.6193V93.5852C37.1534 93.1648 37.0384 92.8381 36.8082 92.6051C36.581 92.3722 36.2358 92.2557 35.7727 92.2557C35.2926 92.2557 34.9162 92.3608 34.6435 92.571C34.3707 92.7812 34.179 93.0057 34.0682 93.2443L33.1136 92.9034C33.2841 92.5057 33.5114 92.196 33.7955 91.9744C34.0824 91.75 34.3949 91.5937 34.733 91.5057C35.0739 91.4148 35.4091 91.3693 35.7386 91.3693C35.9489 91.3693 36.1903 91.3949 36.4631 91.446C36.7386 91.4943 37.0043 91.5952 37.2599 91.7486C37.5185 91.902 37.733 92.1335 37.9034 92.4432C38.0739 92.7528 38.1591 93.1676 38.1591 93.6875V98H37.1534V97.1136H37.1023C37.0341 97.2557 36.9205 97.4077 36.7614 97.5696C36.6023 97.7315 36.3906 97.8693 36.1264 97.983C35.8622 98.0966 35.5398 98.1534 35.1591 98.1534ZM35.3125 97.25C35.7102 97.25 36.0455 97.1719 36.3182 97.0156C36.5938 96.8594 36.8011 96.6577 36.9403 96.4105C37.0824 96.1634 37.1534 95.9034 37.1534 95.6307V94.7102C37.1108 94.7614 37.017 94.8082 36.8722 94.8509C36.7301 94.8906 36.5653 94.9261 36.3778 94.9574C36.1932 94.9858 36.0128 95.0114 35.8366 95.0341C35.6634 95.054 35.5227 95.071 35.4148 95.0852C35.1534 95.1193 34.9091 95.1747 34.6818 95.2514C34.4574 95.3253 34.2756 95.4375 34.1364 95.5881C34 95.7358 33.9318 95.9375 33.9318 96.1932C33.9318 96.5426 34.0611 96.8068 34.3196 96.9858C34.581 97.1619 34.9119 97.25 35.3125 97.25ZM39.9947 98V91.4545H40.9663V92.4432H41.0344C41.1538 92.1193 41.3697 91.8565 41.6822 91.6548C41.9947 91.4531 42.3469 91.3523 42.739 91.3523C42.8129 91.3523 42.9052 91.3537 43.016 91.3565C43.1268 91.3594 43.2106 91.3636 43.2674 91.3693V92.392C43.2333 92.3835 43.1552 92.3707 43.033 92.3537C42.9137 92.3338 42.7873 92.3239 42.6538 92.3239C42.3356 92.3239 42.0515 92.3906 41.8015 92.5241C41.5543 92.6548 41.3583 92.8366 41.2134 93.0696C41.0714 93.2997 41.0004 93.5625 41.0004 93.858V98H39.9947ZM47.7163 91.4545V92.3068H44.3242V91.4545H47.7163ZM45.3129 89.8864H46.3185V96.125C46.3185 96.4091 46.3597 96.6222 46.4421 96.7642C46.5273 96.9034 46.6353 96.9972 46.766 97.0455C46.8995 97.0909 47.0401 97.1136 47.1879 97.1136C47.2987 97.1136 47.3896 97.108 47.4606 97.0966C47.5316 97.0824 47.5884 97.071 47.631 97.0625L47.8356 97.9659C47.7674 97.9915 47.6722 98.017 47.5501 98.0426C47.4279 98.071 47.2731 98.0852 47.0856 98.0852C46.8015 98.0852 46.5231 98.0241 46.2504 97.902C45.9805 97.7798 45.756 97.5938 45.5771 97.3438C45.4009 97.0938 45.3129 96.7784 45.3129 96.3977V89.8864ZM50.2347 94.0625V98H49.229V91.4545H50.2006V92.4773H50.2859C50.4393 92.1449 50.6722 91.8778 50.9847 91.6761C51.2972 91.4716 51.7006 91.3693 52.195 91.3693C52.6381 91.3693 53.0259 91.4602 53.3583 91.642C53.6907 91.821 53.9492 92.0938 54.1339 92.4602C54.3185 92.8239 54.4109 93.2841 54.4109 93.8409V98H53.4052V93.9091C53.4052 93.3949 53.2717 92.9943 53.0046 92.7074C52.7376 92.4176 52.3711 92.2727 51.9052 92.2727C51.5842 92.2727 51.2972 92.3423 51.0444 92.4815C50.7944 92.6207 50.5969 92.8239 50.4521 93.0909C50.3072 93.358 50.2347 93.6818 50.2347 94.0625ZM58.9929 98.1364C58.3622 98.1364 57.8182 97.9972 57.3608 97.7188C56.9062 97.4375 56.5554 97.0455 56.3082 96.5426C56.0639 96.0369 55.9418 95.4489 55.9418 94.7784C55.9418 94.108 56.0639 93.517 56.3082 93.0057C56.5554 92.4915 56.8991 92.0909 57.3395 91.804C57.7827 91.5142 58.2997 91.3693 58.8906 91.3693C59.2315 91.3693 59.5682 91.4261 59.9006 91.5398C60.233 91.6534 60.5355 91.8381 60.8082 92.0938C61.081 92.3466 61.2983 92.6818 61.4602 93.0994C61.6222 93.517 61.7031 94.0312 61.7031 94.642V95.0682H56.6577V94.1989H60.6804C60.6804 93.8295 60.6065 93.5 60.4588 93.2102C60.3139 92.9205 60.1065 92.6918 59.8366 92.5241C59.5696 92.3565 59.2543 92.2727 58.8906 92.2727C58.4901 92.2727 58.1435 92.3722 57.8509 92.571C57.5611 92.767 57.3381 93.0227 57.1818 93.3381C57.0256 93.6534 56.9474 93.9915 56.9474 94.3523V94.9318C56.9474 95.4261 57.0327 95.8452 57.2031 96.1889C57.3764 96.5298 57.6165 96.7898 57.9233 96.9688C58.2301 97.1449 58.5866 97.233 58.9929 97.233C59.2571 97.233 59.4957 97.196 59.7088 97.1222C59.9247 97.0455 60.1108 96.9318 60.267 96.7812C60.4233 96.6278 60.544 96.4375 60.6293 96.2102L61.6009 96.483C61.4986 96.8125 61.3267 97.1023 61.0852 97.3523C60.8438 97.5994 60.5455 97.7926 60.1903 97.9318C59.8352 98.0682 59.4361 98.1364 58.9929 98.1364ZM63.233 98V91.4545H64.2045V92.4432H64.2727C64.392 92.1193 64.608 91.8565 64.9205 91.6548C65.233 91.4531 65.5852 91.3523 65.9773 91.3523C66.0511 91.3523 66.1435 91.3537 66.2543 91.3565C66.3651 91.3594 66.4489 91.3636 66.5057 91.3693V92.392C66.4716 92.3835 66.3935 92.3707 66.2713 92.3537C66.152 92.3338 66.0256 92.3239 65.892 92.3239C65.5739 92.3239 65.2898 92.3906 65.0398 92.5241C64.7926 92.6548 64.5966 92.8366 64.4517 93.0696C64.3097 93.2997 64.2386 93.5625 64.2386 93.858V98H63.233ZM70.2429 98.1364C69.6122 98.1364 69.0682 97.9972 68.6108 97.7188C68.1562 97.4375 67.8054 97.0455 67.5582 96.5426C67.3139 96.0369 67.1918 95.4489 67.1918 94.7784C67.1918 94.108 67.3139 93.517 67.5582 93.0057C67.8054 92.4915 68.1491 92.0909 68.5895 91.804C69.0327 91.5142 69.5497 91.3693 70.1406 91.3693C70.4815 91.3693 70.8182 91.4261 71.1506 91.5398C71.483 91.6534 71.7855 91.8381 72.0582 92.0938C72.331 92.3466 72.5483 92.6818 72.7102 93.0994C72.8722 93.517 72.9531 94.0312 72.9531 94.642V95.0682H67.9077V94.1989H71.9304C71.9304 93.8295 71.8565 93.5 71.7088 93.2102C71.5639 92.9205 71.3565 92.6918 71.0866 92.5241C70.8196 92.3565 70.5043 92.2727 70.1406 92.2727C69.7401 92.2727 69.3935 92.3722 69.1009 92.571C68.8111 92.767 68.5881 93.0227 68.4318 93.3381C68.2756 93.6534 68.1974 93.9915 68.1974 94.3523V94.9318C68.1974 95.4261 68.2827 95.8452 68.4531 96.1889C68.6264 96.5298 68.8665 96.7898 69.1733 96.9688C69.4801 97.1449 69.8366 97.233 70.2429 97.233C70.5071 97.233 70.7457 97.196 70.9588 97.1222C71.1747 97.0455 71.3608 96.9318 71.517 96.7812C71.6733 96.6278 71.794 96.4375 71.8793 96.2102L72.8509 96.483C72.7486 96.8125 72.5767 97.1023 72.3352 97.3523C72.0938 97.5994 71.7955 97.7926 71.4403 97.9318C71.0852 98.0682 70.6861 98.1364 70.2429 98.1364ZM76.9545 98.1364C76.4091 98.1364 75.9276 97.9986 75.5099 97.723C75.0923 97.4446 74.7656 97.0526 74.5298 96.5469C74.294 96.0384 74.1761 95.4375 74.1761 94.7443C74.1761 94.0568 74.294 93.4602 74.5298 92.9545C74.7656 92.4489 75.0938 92.0582 75.5142 91.7827C75.9347 91.5071 76.4205 91.3693 76.9716 91.3693C77.3977 91.3693 77.7344 91.4403 77.9815 91.5824C78.2315 91.7216 78.4219 91.8807 78.5526 92.0597C78.6861 92.2358 78.7898 92.3807 78.8636 92.4943H78.9489V89.2727H79.9545V98H78.983V96.9943H78.8636C78.7898 97.1136 78.6847 97.2642 78.5483 97.446C78.4119 97.625 78.2173 97.7855 77.9645 97.9276C77.7116 98.0668 77.375 98.1364 76.9545 98.1364ZM77.0909 97.233C77.4943 97.233 77.8352 97.1278 78.1136 96.9176C78.392 96.7045 78.6037 96.4105 78.7486 96.0355C78.8935 95.6577 78.9659 95.2216 78.9659 94.7273C78.9659 94.2386 78.8949 93.8111 78.7528 93.4446C78.6108 93.0753 78.4006 92.7884 78.1222 92.5838C77.8438 92.3764 77.5 92.2727 77.0909 92.2727C76.6648 92.2727 76.3097 92.3821 76.0256 92.6009C75.7443 92.8168 75.5327 93.1108 75.3906 93.483C75.2514 93.8523 75.1818 94.267 75.1818 94.7273C75.1818 95.1932 75.2528 95.6165 75.3949 95.9972C75.5398 96.375 75.7528 96.6761 76.0341 96.9006C76.3182 97.1222 76.6705 97.233 77.0909 97.233ZM86.794 98L84.7997 91.4545H85.8565L87.2713 96.4659H87.3395L88.7372 91.4545H89.8111L91.1918 96.4489H91.2599L92.6747 91.4545H93.7315L91.7372 98H90.7486L89.3168 92.9716H89.2145L87.7827 98H86.794ZM95.0611 98V91.4545H96.0668V98H95.0611ZM95.5724 90.3636C95.3764 90.3636 95.2074 90.2969 95.0653 90.1634C94.9261 90.0298 94.8565 89.8693 94.8565 89.6818C94.8565 89.4943 94.9261 89.3338 95.0653 89.2003C95.2074 89.0668 95.3764 89 95.5724 89C95.7685 89 95.9361 89.0668 96.0753 89.2003C96.2173 89.3338 96.2884 89.4943 96.2884 89.6818C96.2884 89.8693 96.2173 90.0298 96.0753 90.1634C95.9361 90.2969 95.7685 90.3636 95.5724 90.3636ZM100.755 91.4545V92.3068H97.3633V91.4545H100.755ZM98.3519 89.8864H99.3576V96.125C99.3576 96.4091 99.3988 96.6222 99.4812 96.7642C99.5664 96.9034 99.6744 96.9972 99.805 97.0455C99.9386 97.0909 100.079 97.1136 100.227 97.1136C100.338 97.1136 100.429 97.108 100.5 97.0966C100.571 97.0824 100.627 97.071 100.67 97.0625L100.875 97.9659C100.806 97.9915 100.711 98.017 100.589 98.0426C100.467 98.071 100.312 98.0852 100.125 98.0852C99.8406 98.0852 99.5621 98.0241 99.2894 97.902C99.0195 97.7798 98.7951 97.5938 98.6161 97.3438C98.44 97.0938 98.3519 96.7784 98.3519 96.3977V89.8864ZM103.414 94.0625V98H102.409V89.2727H103.414V92.4773H103.5C103.653 92.1392 103.883 91.8707 104.19 91.6719C104.5 91.4702 104.912 91.3693 105.426 91.3693C105.872 91.3693 106.262 91.4588 106.598 91.6378C106.933 91.8139 107.193 92.0852 107.377 92.4517C107.565 92.8153 107.659 93.2784 107.659 93.8409V98H106.653V93.9091C106.653 93.3892 106.518 92.9872 106.248 92.7031C105.981 92.4162 105.61 92.2727 105.136 92.2727C104.806 92.2727 104.511 92.3423 104.25 92.4815C103.991 92.6207 103.787 92.8239 103.636 93.0909C103.488 93.358 103.414 93.6818 103.414 94.0625ZM30.0455 111.324V107.455H31.0511V114H30.0455V112.892H29.9773C29.8239 113.224 29.5852 113.507 29.2614 113.74C28.9375 113.97 28.5284 114.085 28.0341 114.085C27.625 114.085 27.2614 113.996 26.9432 113.817C26.625 113.635 26.375 113.362 26.1932 112.999C26.0114 112.632 25.9205 112.17 25.9205 111.614V107.455H26.9261V111.545C26.9261 112.023 27.0597 112.403 27.3267 112.688C27.5966 112.972 27.9403 113.114 28.358 113.114C28.608 113.114 28.8622 113.05 29.1207 112.922C29.3821 112.794 29.6009 112.598 29.777 112.334C29.956 112.07 30.0455 111.733 30.0455 111.324ZM37.5295 108.92L36.6261 109.176C36.5692 109.026 36.4854 108.879 36.3746 108.737C36.2667 108.592 36.119 108.473 35.9315 108.379C35.744 108.286 35.5039 108.239 35.2113 108.239C34.8107 108.239 34.4769 108.331 34.2099 108.516C33.9457 108.697 33.8136 108.929 33.8136 109.21C33.8136 109.46 33.9045 109.658 34.0863 109.803C34.2681 109.947 34.5522 110.068 34.9386 110.165L35.9102 110.403C36.4954 110.545 36.9315 110.763 37.2184 111.055C37.5053 111.345 37.6488 111.719 37.6488 112.176C37.6488 112.551 37.5408 112.886 37.3249 113.182C37.1119 113.477 36.8136 113.71 36.43 113.881C36.0465 114.051 35.6005 114.136 35.092 114.136C34.4244 114.136 33.8718 113.991 33.4343 113.702C32.9968 113.412 32.7198 112.989 32.6033 112.432L33.5579 112.193C33.6488 112.545 33.8207 112.81 34.0735 112.986C34.3292 113.162 34.663 113.25 35.0749 113.25C35.5437 113.25 35.9158 113.151 36.1914 112.952C36.4698 112.75 36.609 112.509 36.609 112.227C36.609 112 36.5295 111.81 36.3704 111.656C36.2113 111.5 35.967 111.384 35.6374 111.307L34.5465 111.051C33.9471 110.909 33.5067 110.689 33.2255 110.391C32.9471 110.089 32.8079 109.713 32.8079 109.261C32.8079 108.892 32.9116 108.565 33.119 108.281C33.3292 107.997 33.6147 107.774 33.9755 107.612C34.3391 107.45 34.7511 107.369 35.2113 107.369C35.859 107.369 36.3675 107.511 36.7369 107.795C37.109 108.08 37.3732 108.455 37.5295 108.92ZM47.174 108.92L46.2706 109.176C46.2138 109.026 46.13 108.879 46.0192 108.737C45.9112 108.592 45.7635 108.473 45.576 108.379C45.3885 108.286 45.1484 108.239 44.8558 108.239C44.4553 108.239 44.1214 108.331 43.8544 108.516C43.5902 108.697 43.4581 108.929 43.4581 109.21C43.4581 109.46 43.549 109.658 43.7308 109.803C43.9126 109.947 44.1967 110.068 44.5831 110.165L45.5547 110.403C46.1399 110.545 46.576 110.763 46.8629 111.055C47.1499 111.345 47.2933 111.719 47.2933 112.176C47.2933 112.551 47.1854 112.886 46.9695 113.182C46.7564 113.477 46.4581 113.71 46.0746 113.881C45.6911 114.051 45.245 114.136 44.7365 114.136C44.0689 114.136 43.5163 113.991 43.0788 113.702C42.6413 113.412 42.3643 112.989 42.2479 112.432L43.2024 112.193C43.2933 112.545 43.4652 112.81 43.718 112.986C43.9737 113.162 44.3075 113.25 44.7195 113.25C45.1882 113.25 45.5604 113.151 45.8359 112.952C46.1143 112.75 46.2536 112.509 46.2536 112.227C46.2536 112 46.174 111.81 46.0149 111.656C45.8558 111.5 45.6115 111.384 45.282 111.307L44.1911 111.051C43.5916 110.909 43.1513 110.689 42.87 110.391C42.5916 110.089 42.4524 109.713 42.4524 109.261C42.4524 108.892 42.5561 108.565 42.7635 108.281C42.9737 107.997 43.2592 107.774 43.62 107.612C43.9837 107.45 44.3956 107.369 44.8558 107.369C45.5036 107.369 46.0121 107.511 46.3814 107.795C46.7536 108.08 47.0178 108.455 47.174 108.92ZM51.4663 114.136C50.8754 114.136 50.3569 113.996 49.9109 113.714C49.4677 113.433 49.1211 113.04 48.8711 112.534C48.6239 112.028 48.5004 111.437 48.5004 110.761C48.5004 110.08 48.6239 109.484 48.8711 108.976C49.1211 108.467 49.4677 108.072 49.9109 107.791C50.3569 107.51 50.8754 107.369 51.4663 107.369C52.0572 107.369 52.5742 107.51 53.0174 107.791C53.4634 108.072 53.81 108.467 54.0572 108.976C54.3072 109.484 54.4322 110.08 54.4322 110.761C54.4322 111.437 54.3072 112.028 54.0572 112.534C53.81 113.04 53.4634 113.433 53.0174 113.714C52.5742 113.996 52.0572 114.136 51.4663 114.136ZM51.4663 113.233C51.9151 113.233 52.2844 113.118 52.5742 112.888C52.864 112.658 53.0785 112.355 53.2177 111.98C53.3569 111.605 53.4265 111.199 53.4265 110.761C53.4265 110.324 53.3569 109.916 53.2177 109.538C53.0785 109.161 52.864 108.855 52.5742 108.622C52.2844 108.389 51.9151 108.273 51.4663 108.273C51.0174 108.273 50.6481 108.389 50.3583 108.622C50.0685 108.855 49.854 109.161 49.7148 109.538C49.5756 109.916 49.506 110.324 49.506 110.761C49.506 111.199 49.5756 111.605 49.7148 111.98C49.854 112.355 50.0685 112.658 50.3583 112.888C50.6481 113.118 51.0174 113.233 51.4663 113.233ZM62.1889 107.455V108.307H58.7969V107.455H62.1889ZM59.7855 105.886H60.7912V112.125C60.7912 112.409 60.8324 112.622 60.9148 112.764C61 112.903 61.108 112.997 61.2386 113.045C61.3722 113.091 61.5128 113.114 61.6605 113.114C61.7713 113.114 61.8622 113.108 61.9332 113.097C62.0043 113.082 62.0611 113.071 62.1037 113.062L62.3082 113.966C62.2401 113.991 62.1449 114.017 62.0227 114.043C61.9006 114.071 61.7457 114.085 61.5582 114.085C61.2741 114.085 60.9957 114.024 60.723 113.902C60.4531 113.78 60.2287 113.594 60.0497 113.344C59.8736 113.094 59.7855 112.778 59.7855 112.398V105.886ZM64.848 110.062V114H63.8423V105.273H64.848V108.477H64.9332C65.0866 108.139 65.3168 107.871 65.6236 107.672C65.9332 107.47 66.3452 107.369 66.8594 107.369C67.3054 107.369 67.696 107.459 68.0312 107.638C68.3665 107.814 68.6264 108.085 68.8111 108.452C68.9986 108.815 69.0923 109.278 69.0923 109.841V114H68.0866V109.909C68.0866 109.389 67.9517 108.987 67.6818 108.703C67.4148 108.416 67.044 108.273 66.5696 108.273C66.2401 108.273 65.9446 108.342 65.6832 108.482C65.4247 108.621 65.2202 108.824 65.0696 109.091C64.9219 109.358 64.848 109.682 64.848 110.062ZM72.8583 114.153C72.4435 114.153 72.0671 114.075 71.729 113.919C71.391 113.76 71.1225 113.531 70.9237 113.233C70.7248 112.932 70.6254 112.568 70.6254 112.142C70.6254 111.767 70.6992 111.463 70.8469 111.23C70.9947 110.994 71.1921 110.81 71.4393 110.676C71.6864 110.543 71.9592 110.443 72.2575 110.378C72.5586 110.31 72.8612 110.256 73.1651 110.216C73.5629 110.165 73.8853 110.126 74.1325 110.101C74.3825 110.072 74.5643 110.026 74.6779 109.96C74.7944 109.895 74.8526 109.781 74.8526 109.619V109.585C74.8526 109.165 74.7376 108.838 74.5075 108.605C74.2802 108.372 73.935 108.256 73.4719 108.256C72.9918 108.256 72.6154 108.361 72.3427 108.571C72.07 108.781 71.8782 109.006 71.7674 109.244L70.8129 108.903C70.9833 108.506 71.2106 108.196 71.4947 107.974C71.7816 107.75 72.0941 107.594 72.4322 107.506C72.7731 107.415 73.1083 107.369 73.4379 107.369C73.6481 107.369 73.8896 107.395 74.1623 107.446C74.4379 107.494 74.7035 107.595 74.9592 107.749C75.2177 107.902 75.4322 108.134 75.6026 108.443C75.7731 108.753 75.8583 109.168 75.8583 109.688V114H74.8526V113.114H74.8015C74.7333 113.256 74.6197 113.408 74.4606 113.57C74.3015 113.732 74.0898 113.869 73.8256 113.983C73.5614 114.097 73.239 114.153 72.8583 114.153ZM73.0117 113.25C73.4094 113.25 73.7447 113.172 74.0174 113.016C74.293 112.859 74.5004 112.658 74.6396 112.411C74.7816 112.163 74.8526 111.903 74.8526 111.631V110.71C74.81 110.761 74.7163 110.808 74.5714 110.851C74.4293 110.891 74.2646 110.926 74.0771 110.957C73.8924 110.986 73.712 111.011 73.5359 111.034C73.3626 111.054 73.2219 111.071 73.114 111.085C72.8526 111.119 72.6083 111.175 72.381 111.251C72.1566 111.325 71.9748 111.437 71.8356 111.588C71.6992 111.736 71.631 111.937 71.631 112.193C71.631 112.543 71.7603 112.807 72.0188 112.986C72.2802 113.162 72.6112 113.25 73.0117 113.25ZM80.5405 107.455V108.307H77.1484V107.455H80.5405ZM78.1371 105.886H79.1428V112.125C79.1428 112.409 79.1839 112.622 79.2663 112.764C79.3516 112.903 79.4595 112.997 79.5902 113.045C79.7237 113.091 79.8643 113.114 80.0121 113.114C80.1229 113.114 80.2138 113.108 80.2848 113.097C80.3558 113.082 80.4126 113.071 80.4553 113.062L80.6598 113.966C80.5916 113.991 80.4964 114.017 80.3743 114.043C80.2521 114.071 80.0973 114.085 79.9098 114.085C79.6257 114.085 79.3473 114.024 79.0746 113.902C78.8047 113.78 78.5803 113.594 78.4013 113.344C78.2251 113.094 78.1371 112.778 78.1371 112.398V105.886ZM86.076 116.455C85.9055 116.455 85.7536 116.44 85.62 116.412C85.4865 116.386 85.3942 116.361 85.343 116.335L85.5987 115.449C85.843 115.511 86.0589 115.534 86.2464 115.517C86.4339 115.5 86.6001 115.416 86.745 115.266C86.8928 115.118 87.0277 114.878 87.1499 114.545L87.3374 114.034L84.9169 107.455H86.0078L87.8146 112.67H87.8828L89.6896 107.455H90.7805L88.0021 114.955C87.8771 115.293 87.7223 115.572 87.5376 115.794C87.353 116.018 87.1385 116.185 86.8942 116.293C86.6527 116.401 86.38 116.455 86.076 116.455ZM94.5327 114.136C93.9418 114.136 93.4233 113.996 92.9773 113.714C92.5341 113.433 92.1875 113.04 91.9375 112.534C91.6903 112.028 91.5668 111.437 91.5668 110.761C91.5668 110.08 91.6903 109.484 91.9375 108.976C92.1875 108.467 92.5341 108.072 92.9773 107.791C93.4233 107.51 93.9418 107.369 94.5327 107.369C95.1236 107.369 95.6406 107.51 96.0838 107.791C96.5298 108.072 96.8764 108.467 97.1236 108.976C97.3736 109.484 97.4986 110.08 97.4986 110.761C97.4986 111.437 97.3736 112.028 97.1236 112.534C96.8764 113.04 96.5298 113.433 96.0838 113.714C95.6406 113.996 95.1236 114.136 94.5327 114.136ZM94.5327 113.233C94.9815 113.233 95.3509 113.118 95.6406 112.888C95.9304 112.658 96.1449 112.355 96.2841 111.98C96.4233 111.605 96.4929 111.199 96.4929 110.761C96.4929 110.324 96.4233 109.916 96.2841 109.538C96.1449 109.161 95.9304 108.855 95.6406 108.622C95.3509 108.389 94.9815 108.273 94.5327 108.273C94.0838 108.273 93.7145 108.389 93.4247 108.622C93.1349 108.855 92.9205 109.161 92.7812 109.538C92.642 109.916 92.5724 110.324 92.5724 110.761C92.5724 111.199 92.642 111.605 92.7812 111.98C92.9205 112.355 93.1349 112.658 93.4247 112.888C93.7145 113.118 94.0838 113.233 94.5327 113.233ZM103.159 111.324V107.455H104.164V114H103.159V112.892H103.091C102.937 113.224 102.699 113.507 102.375 113.74C102.051 113.97 101.642 114.085 101.147 114.085C100.738 114.085 100.375 113.996 100.056 113.817C99.7383 113.635 99.4883 113.362 99.3065 112.999C99.1246 112.632 99.0337 112.17 99.0337 111.614V107.455H100.039V111.545C100.039 112.023 100.173 112.403 100.44 112.688C100.71 112.972 101.054 113.114 101.471 113.114C101.721 113.114 101.975 113.05 102.234 112.922C102.495 112.794 102.714 112.598 102.89 112.334C103.069 112.07 103.159 111.733 103.159 111.324ZM28.5795 130.136C27.9659 130.136 27.4375 129.991 26.9943 129.702C26.5511 129.412 26.2102 129.013 25.9716 128.504C25.733 127.996 25.6136 127.415 25.6136 126.761C25.6136 126.097 25.7358 125.51 25.9801 125.001C26.2273 124.49 26.571 124.091 27.0114 123.804C27.4545 123.514 27.9716 123.369 28.5625 123.369C29.0227 123.369 29.4375 123.455 29.8068 123.625C30.1761 123.795 30.4787 124.034 30.7145 124.341C30.9503 124.648 31.0966 125.006 31.1534 125.415H30.1477C30.071 125.116 29.9006 124.852 29.6364 124.622C29.375 124.389 29.0227 124.273 28.5795 124.273C28.1875 124.273 27.8438 124.375 27.5483 124.58C27.2557 124.781 27.027 125.067 26.8622 125.436C26.7003 125.803 26.6193 126.233 26.6193 126.727C26.6193 127.233 26.6989 127.673 26.858 128.048C27.0199 128.423 27.2472 128.714 27.5398 128.922C27.8352 129.129 28.1818 129.233 28.5795 129.233C28.8409 129.233 29.0781 129.188 29.2912 129.097C29.5043 129.006 29.6847 128.875 29.8324 128.705C29.9801 128.534 30.0852 128.33 30.1477 128.091H31.1534C31.0966 128.477 30.956 128.825 30.7315 129.135C30.5099 129.442 30.2159 129.686 29.8494 129.868C29.4858 130.047 29.0625 130.136 28.5795 130.136ZM34.5497 130.153C34.1349 130.153 33.7585 130.075 33.4205 129.919C33.0824 129.76 32.8139 129.531 32.6151 129.233C32.4162 128.932 32.3168 128.568 32.3168 128.142C32.3168 127.767 32.3906 127.463 32.5384 127.23C32.6861 126.994 32.8835 126.81 33.1307 126.676C33.3778 126.543 33.6506 126.443 33.9489 126.378C34.25 126.31 34.5526 126.256 34.8565 126.216C35.2543 126.165 35.5767 126.126 35.8239 126.101C36.0739 126.072 36.2557 126.026 36.3693 125.96C36.4858 125.895 36.544 125.781 36.544 125.619V125.585C36.544 125.165 36.429 124.838 36.1989 124.605C35.9716 124.372 35.6264 124.256 35.1634 124.256C34.6832 124.256 34.3068 124.361 34.0341 124.571C33.7614 124.781 33.5696 125.006 33.4588 125.244L32.5043 124.903C32.6747 124.506 32.902 124.196 33.1861 123.974C33.473 123.75 33.7855 123.594 34.1236 123.506C34.4645 123.415 34.7997 123.369 35.1293 123.369C35.3395 123.369 35.581 123.395 35.8537 123.446C36.1293 123.494 36.3949 123.595 36.6506 123.749C36.9091 123.902 37.1236 124.134 37.294 124.443C37.4645 124.753 37.5497 125.168 37.5497 125.688V130H36.544V129.114H36.4929C36.4247 129.256 36.3111 129.408 36.152 129.57C35.9929 129.732 35.7813 129.869 35.517 129.983C35.2528 130.097 34.9304 130.153 34.5497 130.153ZM34.7031 129.25C35.1009 129.25 35.4361 129.172 35.7088 129.016C35.9844 128.859 36.1918 128.658 36.331 128.411C36.473 128.163 36.544 127.903 36.544 127.631V126.71C36.5014 126.761 36.4077 126.808 36.2628 126.851C36.1207 126.891 35.956 126.926 35.7685 126.957C35.5838 126.986 35.4034 127.011 35.2273 127.034C35.054 127.054 34.9134 127.071 34.8054 127.085C34.544 127.119 34.2997 127.175 34.0724 127.251C33.848 127.325 33.6662 127.437 33.527 127.588C33.3906 127.736 33.3224 127.937 33.3224 128.193C33.3224 128.543 33.4517 128.807 33.7102 128.986C33.9716 129.162 34.3026 129.25 34.7031 129.25ZM40.391 126.062V130H39.3853V123.455H40.3569V124.477H40.4421C40.5955 124.145 40.8285 123.878 41.141 123.676C41.4535 123.472 41.8569 123.369 42.3512 123.369C42.7944 123.369 43.1822 123.46 43.5146 123.642C43.8469 123.821 44.1055 124.094 44.2901 124.46C44.4748 124.824 44.5671 125.284 44.5671 125.841V130H43.5614V125.909C43.5614 125.395 43.4279 124.994 43.1609 124.707C42.8938 124.418 42.5273 124.273 42.0614 124.273C41.7404 124.273 41.4535 124.342 41.2006 124.482C40.9506 124.621 40.7532 124.824 40.6083 125.091C40.4634 125.358 40.391 125.682 40.391 126.062ZM52.4389 130.136C51.8253 130.136 51.2969 129.991 50.8537 129.702C50.4105 129.412 50.0696 129.013 49.831 128.504C49.5923 127.996 49.473 127.415 49.473 126.761C49.473 126.097 49.5952 125.51 49.8395 125.001C50.0866 124.49 50.4304 124.091 50.8707 123.804C51.3139 123.514 51.831 123.369 52.4219 123.369C52.8821 123.369 53.2969 123.455 53.6662 123.625C54.0355 123.795 54.3381 124.034 54.5739 124.341C54.8097 124.648 54.956 125.006 55.0128 125.415H54.0071C53.9304 125.116 53.7599 124.852 53.4957 124.622C53.2344 124.389 52.8821 124.273 52.4389 124.273C52.0469 124.273 51.7031 124.375 51.4077 124.58C51.1151 124.781 50.8864 125.067 50.7216 125.436C50.5597 125.803 50.4787 126.233 50.4787 126.727C50.4787 127.233 50.5582 127.673 50.7173 128.048C50.8793 128.423 51.1065 128.714 51.3991 128.922C51.6946 129.129 52.0412 129.233 52.4389 129.233C52.7003 129.233 52.9375 129.188 53.1506 129.097C53.3636 129.006 53.544 128.875 53.6918 128.705C53.8395 128.534 53.9446 128.33 54.0071 128.091H55.0128C54.956 128.477 54.8153 128.825 54.5909 129.135C54.3693 129.442 54.0753 129.686 53.7088 129.868C53.3452 130.047 52.9219 130.136 52.4389 130.136ZM59.142 130.136C58.5511 130.136 58.0327 129.996 57.5866 129.714C57.1435 129.433 56.7969 129.04 56.5469 128.534C56.2997 128.028 56.1761 127.437 56.1761 126.761C56.1761 126.08 56.2997 125.484 56.5469 124.976C56.7969 124.467 57.1435 124.072 57.5866 123.791C58.0327 123.51 58.5511 123.369 59.142 123.369C59.733 123.369 60.25 123.51 60.6932 123.791C61.1392 124.072 61.4858 124.467 61.733 124.976C61.983 125.484 62.108 126.08 62.108 126.761C62.108 127.437 61.983 128.028 61.733 128.534C61.4858 129.04 61.1392 129.433 60.6932 129.714C60.25 129.996 59.733 130.136 59.142 130.136ZM59.142 129.233C59.5909 129.233 59.9602 129.118 60.25 128.888C60.5398 128.658 60.7543 128.355 60.8935 127.98C61.0327 127.605 61.1023 127.199 61.1023 126.761C61.1023 126.324 61.0327 125.916 60.8935 125.538C60.7543 125.161 60.5398 124.855 60.25 124.622C59.9602 124.389 59.5909 124.273 59.142 124.273C58.6932 124.273 58.3239 124.389 58.0341 124.622C57.7443 124.855 57.5298 125.161 57.3906 125.538C57.2514 125.916 57.1818 126.324 57.1818 126.761C57.1818 127.199 57.2514 127.605 57.3906 127.98C57.5298 128.355 57.7443 128.658 58.0341 128.888C58.3239 129.118 58.6932 129.233 59.142 129.233ZM63.6431 130V123.455H64.6147V124.477H64.6999C64.8363 124.128 65.0565 123.857 65.3604 123.663C65.6644 123.467 66.0295 123.369 66.4556 123.369C66.8874 123.369 67.2468 123.467 67.5337 123.663C67.8235 123.857 68.0494 124.128 68.2113 124.477H68.2795C68.4471 124.139 68.6985 123.871 69.0337 123.672C69.369 123.47 69.771 123.369 70.2397 123.369C70.8249 123.369 71.3036 123.553 71.6758 123.919C72.0479 124.283 72.234 124.849 72.234 125.619V130H71.2283V125.619C71.2283 125.136 71.0962 124.791 70.832 124.584C70.5678 124.376 70.2567 124.273 69.8988 124.273C69.4386 124.273 69.082 124.412 68.8292 124.69C68.5763 124.966 68.4499 125.315 68.4499 125.739V130H67.4272V125.517C67.4272 125.145 67.3065 124.845 67.065 124.618C66.8235 124.388 66.5124 124.273 66.1317 124.273C65.8704 124.273 65.6261 124.342 65.3988 124.482C65.1744 124.621 64.9925 124.814 64.8533 125.061C64.717 125.305 64.6488 125.588 64.6488 125.909V130H63.6431ZM74.0728 132.455V123.455H75.0444V124.494H75.1637C75.2376 124.381 75.3398 124.236 75.4705 124.06C75.604 123.881 75.7944 123.722 76.0415 123.582C76.2915 123.44 76.6296 123.369 77.0558 123.369C77.6069 123.369 78.0927 123.507 78.5131 123.783C78.9336 124.058 79.2617 124.449 79.4975 124.955C79.7333 125.46 79.8512 126.057 79.8512 126.744C79.8512 127.438 79.7333 128.038 79.4975 128.547C79.2617 129.053 78.935 129.445 78.5174 129.723C78.0998 129.999 77.6183 130.136 77.0728 130.136C76.6523 130.136 76.3157 130.067 76.0629 129.928C75.81 129.786 75.6154 129.625 75.479 129.446C75.3427 129.264 75.2376 129.114 75.1637 128.994H75.0785V132.455H74.0728ZM75.0614 126.727C75.0614 127.222 75.1339 127.658 75.2788 128.036C75.4237 128.411 75.6353 128.705 75.9137 128.918C76.1921 129.128 76.533 129.233 76.9364 129.233C77.3569 129.233 77.7077 129.122 77.989 128.901C78.2731 128.676 78.4862 128.375 78.6282 127.997C78.7731 127.616 78.8455 127.193 78.8455 126.727C78.8455 126.267 78.7745 125.852 78.6325 125.483C78.4933 125.111 78.2816 124.817 77.9975 124.601C77.7163 124.382 77.3626 124.273 76.9364 124.273C76.5273 124.273 76.1836 124.376 75.9052 124.584C75.6268 124.788 75.4165 125.075 75.2745 125.445C75.1325 125.811 75.0614 126.239 75.0614 126.727ZM83.3114 130.153C82.8967 130.153 82.5202 130.075 82.1822 129.919C81.8441 129.76 81.5756 129.531 81.3768 129.233C81.1779 128.932 81.0785 128.568 81.0785 128.142C81.0785 127.767 81.1523 127.463 81.3001 127.23C81.4478 126.994 81.6452 126.81 81.8924 126.676C82.1396 126.543 82.4123 126.443 82.7106 126.378C83.0117 126.31 83.3143 126.256 83.6183 126.216C84.016 126.165 84.3384 126.126 84.5856 126.101C84.8356 126.072 85.0174 126.026 85.131 125.96C85.2475 125.895 85.3058 125.781 85.3058 125.619V125.585C85.3058 125.165 85.1907 124.838 84.9606 124.605C84.7333 124.372 84.3881 124.256 83.9251 124.256C83.445 124.256 83.0685 124.361 82.7958 124.571C82.5231 124.781 82.3313 125.006 82.2205 125.244L81.266 124.903C81.4364 124.506 81.6637 124.196 81.9478 123.974C82.2347 123.75 82.5472 123.594 82.8853 123.506C83.2262 123.415 83.5614 123.369 83.891 123.369C84.1012 123.369 84.3427 123.395 84.6154 123.446C84.891 123.494 85.1566 123.595 85.4123 123.749C85.6708 123.902 85.8853 124.134 86.0558 124.443C86.2262 124.753 86.3114 125.168 86.3114 125.688V130H85.3058V129.114H85.2546C85.1864 129.256 85.0728 129.408 84.9137 129.57C84.7546 129.732 84.543 129.869 84.2788 129.983C84.0146 130.097 83.6921 130.153 83.3114 130.153ZM83.4648 129.25C83.8626 129.25 84.1978 129.172 84.4705 129.016C84.7461 128.859 84.9535 128.658 85.0927 128.411C85.2347 128.163 85.3058 127.903 85.3058 127.631V126.71C85.2631 126.761 85.1694 126.808 85.0245 126.851C84.8825 126.891 84.7177 126.926 84.5302 126.957C84.3455 126.986 84.1651 127.011 83.989 127.034C83.8157 127.054 83.6751 127.071 83.5671 127.085C83.3058 127.119 83.0614 127.175 82.8342 127.251C82.6097 127.325 82.4279 127.437 82.2887 127.588C82.1523 127.736 82.0842 127.937 82.0842 128.193C82.0842 128.543 82.2134 128.807 82.4719 128.986C82.7333 129.162 83.0643 129.25 83.4648 129.25ZM88.147 130V123.455H89.1186V124.443H89.1868C89.3061 124.119 89.522 123.857 89.8345 123.655C90.147 123.453 90.4993 123.352 90.8913 123.352C90.9652 123.352 91.0575 123.354 91.1683 123.357C91.2791 123.359 91.3629 123.364 91.4197 123.369V124.392C91.3857 124.384 91.3075 124.371 91.1854 124.354C91.0661 124.334 90.9396 124.324 90.8061 124.324C90.4879 124.324 90.2038 124.391 89.9538 124.524C89.7067 124.655 89.5107 124.837 89.3658 125.07C89.2237 125.3 89.1527 125.562 89.1527 125.858V130H88.147ZM95.157 130.136C94.5263 130.136 93.9822 129.997 93.5249 129.719C93.0703 129.438 92.7195 129.045 92.4723 128.543C92.228 128.037 92.1058 127.449 92.1058 126.778C92.1058 126.108 92.228 125.517 92.4723 125.006C92.7195 124.491 93.0632 124.091 93.5036 123.804C93.9467 123.514 94.4638 123.369 95.0547 123.369C95.3956 123.369 95.7322 123.426 96.0646 123.54C96.397 123.653 96.6996 123.838 96.9723 124.094C97.245 124.347 97.4624 124.682 97.6243 125.099C97.7862 125.517 97.8672 126.031 97.8672 126.642V127.068H92.8217V126.199H96.8445C96.8445 125.83 96.7706 125.5 96.6229 125.21C96.478 124.92 96.2706 124.692 96.0007 124.524C95.7337 124.357 95.4183 124.273 95.0547 124.273C94.6541 124.273 94.3075 124.372 94.0149 124.571C93.7251 124.767 93.5021 125.023 93.3459 125.338C93.1896 125.653 93.1115 125.991 93.1115 126.352V126.932C93.1115 127.426 93.1967 127.845 93.3672 128.189C93.5405 128.53 93.7805 128.79 94.0874 128.969C94.3942 129.145 94.7507 129.233 95.157 129.233C95.4212 129.233 95.6598 129.196 95.8729 129.122C96.0888 129.045 96.2749 128.932 96.4311 128.781C96.5874 128.628 96.7081 128.437 96.7933 128.21L97.7649 128.483C97.6626 128.812 97.4908 129.102 97.2493 129.352C97.0078 129.599 96.7095 129.793 96.3544 129.932C95.9993 130.068 95.6001 130.136 95.157 130.136ZM100.13 130.068C99.9197 130.068 99.7393 129.993 99.5888 129.842C99.4382 129.692 99.3629 129.511 99.3629 129.301C99.3629 129.091 99.4382 128.911 99.5888 128.76C99.7393 128.609 99.9197 128.534 100.13 128.534C100.34 128.534 100.521 128.609 100.671 128.76C100.822 128.911 100.897 129.091 100.897 129.301C100.897 129.44 100.862 129.568 100.79 129.685C100.722 129.801 100.63 129.895 100.513 129.966C100.4 130.034 100.272 130.068 100.13 130.068Z" fill="#8391A1"/>
<path d="M25 54.24H57V22.24H25V54.24Z" fill="black"/>
</g>
<defs>
<filter id="filter0_d_103_537" x="0" y="0" width="145" height="173" filterUnits="userSpaceOnUse" color-interpolation-filters="sRGB">
<feFlood flood-opacity="0" result="BackgroundImageFix"/>
<feColorMatrix in="SourceAlpha" type="matrix" values="0 0 0 0 0 0 0 0 0 0 0 0 0 0 0 0 0 0 127 0" result="hardAlpha"/>
<feMorphology radius="20" operator="erode" in="SourceAlpha" result="effect1_dropShadow_103_537"/>
<feOffset dy="5"/>
<feGaussianBlur stdDeviation="15"/>
<feColorMatrix type="matrix" values="0 0 0 0 0.333333 0 0 0 0 0.333333 0 0 0 0 0.333333 0 0 0 0.25 0"/>
<feBlend mode="normal" in2="BackgroundImageFix" result="effect1_dropShadow_103_537"/>
<feBlend mode="normal" in="SourceGraphic" in2="effect1_dropShadow_103_537" result="shape"/>
</filter>
</defs>
</svg>
