<svg width="22" height="22" viewBox="0 0 22 22" fill="none" xmlns="http://www.w3.org/2000/svg">
<path fill-rule="evenodd" clip-rule="evenodd" d="M2.23492 2.9446C3.49355 1.62103 3.93836 1.2498 4.4747 1.07703C4.84588 0.979941 5.23516 0.974545 5.60889 1.06133C6.1009 1.20411 6.23106 1.31262 7.84434 2.91747C9.26172 4.32672 9.40332 4.47949 9.53919 4.75506C9.79907 5.23877 9.83969 5.8102 9.65075 6.32565C9.50772 6.71829 9.30463 6.97816 8.44505 7.83912L7.88439 8.40032C7.73721 8.54967 7.7026 8.77641 7.79857 8.96288C9.04432 11.0843 10.8115 12.8535 12.9332 14.103C13.1775 14.2335 13.4783 14.1914 13.6769 13.9988L14.2161 13.469C14.5494 13.1279 14.9024 12.8067 15.2731 12.5067C15.8555 12.1497 16.581 12.1179 17.1925 12.4225C17.4914 12.5652 17.5901 12.6538 19.0518 14.1101C20.5593 15.6107 20.6022 15.6579 20.7681 16.002C21.0803 16.5715 21.0771 17.2614 20.7595 17.8281C20.5979 18.148 20.4992 18.2636 19.6511 19.1289C19.1391 19.6514 18.6571 20.1283 18.5798 20.1983C17.8802 20.7765 16.9825 21.0603 16.0769 20.9893C14.4201 20.8385 12.8163 20.3272 11.3785 19.4915C8.19361 17.8069 5.48217 15.3525 3.49212 12.3525C3.05867 11.7245 2.67331 11.0649 2.33933 10.3793C1.44339 8.84623 0.980734 7.09943 1.00061 5.32476C1.06901 4.39634 1.51501 3.53631 2.23492 2.9446Z" stroke="#00BE76" stroke-width="2" stroke-linecap="round" stroke-linejoin="round"/>
</svg>
