<svg width="24" height="22" viewBox="0 0 24 22" fill="none" xmlns="http://www.w3.org/2000/svg">
<path d="M15.6667 3.69503C14.3958 3.21158 13.0541 2.95767 11.679 2.95767C7.82105 2.95767 4.22542 4.95619 1.72269 8.41516C0.739084 9.7699 0.739084 12.0471 1.72269 13.4018C2.21971 14.0887 2.75983 14.7181 3.33654 15.2855M19.6843 6.21048C20.3885 6.85869 21.0425 7.59597 21.6353 8.41516C22.6189 9.7699 22.6189 12.0471 21.6353 13.4018C19.1326 16.8608 15.5369 18.8593 11.679 18.8593C10.1646 18.8593 8.6906 18.5513 7.30729 17.968" stroke="#00BE76" stroke-width="1.5" stroke-linecap="round" stroke-linejoin="round"/>
<path d="M14.9576 10.9137C14.9576 12.727 13.4923 14.1924 11.679 14.1924M13.9736 8.56988C13.3827 7.99128 12.5731 7.63501 11.679 7.63501C9.86562 7.63501 8.40027 9.10036 8.40027 10.9137C8.40027 11.7107 8.68339 12.4406 9.15475 13.0083" stroke="#00BE76" stroke-width="1.5" stroke-linecap="round" stroke-linejoin="round"/>
<path d="M0.75 20.75L22.6079 0.75" stroke="#00BE76" stroke-width="1.5" stroke-linecap="round"/>
</svg>
