<svg width="18" height="22" viewBox="0 0 18 22" fill="none" xmlns="http://www.w3.org/2000/svg">
<path fill-rule="evenodd" clip-rule="evenodd" d="M16.7774 15.9359L17.0374 17.1709C17.2838 18.2386 17.0405 19.3606 16.374 20.2304C15.7075 21.1001 14.6875 21.6269 13.5924 21.6667H3.53907C2.44401 21.6269 1.42393 21.1001 0.757444 20.2304C0.0909547 19.3606 -0.152318 18.2386 0.0940686 17.1709L0.354069 15.9359C0.653107 14.264 2.09024 13.0354 3.78824 13H13.3432C15.0412 13.0354 16.4784 14.264 16.7774 15.9359ZM13.5924 20.0309C14.1425 20.0245 14.6602 19.7696 15.0007 19.3375V19.3484C15.4186 18.8242 15.5814 18.1413 15.4449 17.485L15.1849 16.25C15.0406 15.3348 14.2691 14.6495 13.3432 14.6142H3.78824C2.86238 14.6495 2.09083 15.3348 1.94657 16.25L1.68657 17.485C1.55349 18.1378 1.71611 18.8161 2.13074 19.3375C2.47127 19.7696 2.98897 20.0245 3.53907 20.0309H13.5924Z" fill="#00BE76"/>
<path fill-rule="evenodd" clip-rule="evenodd" d="M9.10739 10.8334H8.02405C5.63082 10.8334 3.69072 8.89325 3.69072 6.50002V3.64002C3.68783 2.67375 4.0704 1.74622 4.75366 1.06296C5.43692 0.379699 6.36445 -0.00287248 7.33072 1.6241e-05H9.80072C10.767 -0.00287248 11.6945 0.379699 12.3778 1.06296C13.061 1.74622 13.4436 2.67375 13.4407 3.64002V6.50002C13.4407 8.89325 11.5006 10.8334 9.10739 10.8334ZM7.33072 1.62502C6.21787 1.62502 5.31572 2.52716 5.31572 3.64002V6.50002C5.31572 7.99579 6.52828 9.20835 8.02405 9.20835H9.10739C10.6032 9.20835 11.8157 7.99579 11.8157 6.50002V3.64002C11.8157 3.10561 11.6034 2.59308 11.2255 2.2152C10.8477 1.83731 10.3351 1.62502 9.80072 1.62502H7.33072Z" fill="#00BE76"/>
</svg>
