<svg width="22" height="22" viewBox="0 0 22 22" fill="none" xmlns="http://www.w3.org/2000/svg">
<path d="M22 3.54522L18.4548 0L7.81369 10.641C7.19941 10.4213 6.53821 10.3012 5.84938 10.3012C2.62402 10.3012 0 12.9253 0 16.1506C0 19.3759 2.62402 22 5.84938 22C9.07474 22 11.6988 19.376 11.6988 16.1506C11.6988 15.4618 11.5787 14.8005 11.359 14.1861L16.879 8.66611L18.2578 10.0448L19.4396 8.86312L18.0608 7.48438L19.2426 6.30266L20.6213 7.68127L21.803 6.49954L20.4243 5.12093L22 3.54522ZM5.84938 20.3287C3.54557 20.3287 1.67127 18.4544 1.67127 16.1506C1.67127 13.8468 3.54557 11.9725 5.84938 11.9725C8.15319 11.9725 10.0275 13.8468 10.0275 16.1506C10.0275 18.4545 8.15319 20.3287 5.84938 20.3287ZM10.5764 12.6053L9.39469 11.4235L18.4548 2.3635L19.6365 3.54522L10.5764 12.6053Z" fill="#00BE76"/>
</svg>
