<svg width="17" height="17" viewBox="0 0 17 17" fill="none" xmlns="http://www.w3.org/2000/svg">
<path d="M8.28283 0C12.8573 0 16.5657 3.6963 16.5657 8.25591C16.5657 12.8155 12.8573 16.5118 8.28283 16.5118C3.70835 16.5118 0 12.8155 0 8.25591C0 8.25397 1.57982e-06 8.25187 3.15965e-06 8.24992C3.15965e-06 8.24937 3.15965e-06 8.24888 3.15965e-06 8.24834C4.73947e-06 8.24667 7.89912e-06 8.24509 9.47894e-06 8.24342C9.47894e-06 8.24303 1.10588e-05 8.24262 1.10588e-05 8.24222C1.42184e-05 8.24 1.73781e-05 8.23847 2.36974e-05 8.23624C2.36974e-05 8.2358 2.52772e-05 8.23544 2.6857e-05 8.23499C3.00167e-05 8.23332 3.47561e-05 8.2319 3.94956e-05 8.23023C4.10754e-05 8.22963 4.26553e-05 8.22905 4.58149e-05 8.22846C5.21342e-05 8.22651 5.84535e-05 8.22451 6.63526e-05 8.22257C6.63526e-05 8.22247 6.63526e-05 8.22267 6.63526e-05 8.22257C7.42517e-05 8.22062 8.37307e-05 8.21853 9.16298e-05 8.21659C9.47894e-05 8.21604 9.79491e-05 8.21545 0.000101109 8.21491C0.000109008 8.21324 0.000115327 8.2118 0.000124806 8.21013C0.000127966 8.20968 0.000129546 8.2093 0.000131125 8.20886C0.000142184 8.20691 0.000154823 8.20497 0.000165882 8.20303C0.000169041 8.20253 0.000173781 8.20196 0.00017694 8.20146C0.000187999 8.1998 0.000197478 8.19839 0.000208537 8.19673C0.000211696 8.19623 0.000214856 8.19575 0.000219596 8.19525C0.000233814 8.19331 0.000249612 8.19119 0.000263831 8.18925C0.000263831 8.18935 0.00026541 8.18915 0.000263831 8.18925C0.000279629 8.18731 0.000298587 8.18513 0.000314385 8.18319C0.000319124 8.18274 0.000323864 8.18221 0.000327024 8.18176C0.000342822 8.18009 0.00035862 8.17824 0.000374418 8.17658C0.000377578 8.17623 0.000380738 8.17594 0.000383897 8.1756C0.000404435 8.17338 0.000420233 8.17179 0.000443931 8.16957C0.00044867 8.16913 0.00045183 8.1688 0.000456569 8.16836C0.000473947 8.16669 0.000491325 8.16508 0.000510283 8.16342C0.000515023 8.16292 0.000519762 8.16248 0.000526081 8.16198C0.000546619 8.16004 0.000571896 8.15785 0.000595594 8.1559C0.000595594 8.15585 0.000595594 8.15595 0.000595594 8.1559C0.000619291 8.15396 0.000642988 8.15197 0.000668266 8.15003C0.000674585 8.14943 0.000682484 8.1489 0.000688803 8.14831C0.000714081 8.14637 0.000734618 8.14487 0.000759895 8.14292C0.000758316 8.14307 0.000761475 8.14277 0.000759895 8.14292C0.000786752 8.14098 0.000823088 8.13827 0.000851525 8.13633C0.000857844 8.13594 0.000864164 8.13541 0.000870483 8.13502C0.00089418 8.13335 0.000917878 8.1317 0.000943155 8.13004C0.000949474 8.1296 0.000955794 8.1292 0.000962113 8.12875C0.00099213 8.12681 0.00102689 8.12461 0.0010569 8.12267C0.00105374 8.12282 0.00106006 8.12252 0.0010569 8.12267C0.00108692 8.12073 0.00112483 8.1185 0.00115643 8.11656C0.00116433 8.11612 0.00117065 8.11573 0.00117855 8.11528C0.00121015 8.11334 0.00124174 8.11153 0.00127492 8.10959C0.00127334 8.10973 0.00127808 8.10944 0.00127492 8.10959C0.00131441 8.10737 0.00135391 8.10508 0.00139498 8.10287C0.00139025 8.10311 0.00139972 8.10262 0.00139498 8.10287C0.001425 8.1012 0.00147714 8.09845 0.00150873 8.09679C0.00151505 8.0964 0.00152453 8.09589 0.00153243 8.0955C0.00157035 8.09356 0.00161458 8.09129 0.0016525 8.08935C0.00165092 8.0894 0.00165408 8.0893 0.0016525 8.08935C0.00169041 8.08741 0.00173623 8.08517 0.00177572 8.08323C0.00178362 8.08284 0.00179152 8.0825 0.00179942 8.08211C0.00183892 8.08017 0.00188315 8.07806 0.00192581 8.07612C0.00192581 8.07607 0.00192581 8.07617 0.00192581 8.07612C0.0019732 8.07391 0.00201428 8.072 0.00206325 8.06978C0.00207115 8.06944 0.00207905 8.06907 0.00208695 8.06873C0.00212486 8.06707 0.00217384 8.06487 0.00221175 8.06321C0.00220701 8.06341 0.00221649 8.06301 0.00221175 8.06321C0.00226231 8.061 0.00232392 8.05837 0.00237764 8.05615C0.00237606 8.05625 0.00237922 8.05605 0.00237764 8.05615C0.00242345 8.05421 0.002474 8.05213 0.0025214 8.05019C0.00253246 8.04975 0.00254668 8.0492 0.00255616 8.04876C0.00259723 8.0471 0.00264936 8.04505 0.00269044 8.04339C0.0026857 8.04359 0.00269676 8.04319 0.00269044 8.04339C0.00273942 8.04145 0.00281525 8.03854 0.0028658 8.03661C0.00287528 8.03626 0.00288634 8.03583 0.00289582 8.03548C0.00293847 8.03383 0.00299061 8.03191 0.00303484 8.03025C0.00304432 8.0299 0.0030538 8.02955 0.00306328 8.02921C0.00312173 8.027 0.00317071 8.02521 0.00323232 8.023C0.00322916 8.0231 0.00323548 8.0229 0.00323232 8.023C0.00328603 8.02107 0.00334765 8.01888 0.00340294 8.01694C0.003414 8.01655 0.00342822 8.01606 0.00343928 8.01567C0.00355144 8.0118 0.00368099 8.00739 0.00379632 8.00352C0.00380896 8.00312 0.00382317 8.00264 0.00383581 8.00225C0.00388637 8.00059 0.00394166 7.99875 0.0039938 7.99709C0.00400327 7.99675 0.00401433 7.99639 0.00402539 7.99604C0.00409332 7.99383 0.00414704 7.99213 0.00421813 7.98992C0.00421181 7.99012 0.00422445 7.98973 0.00421813 7.98992C0.00427026 7.98827 0.00436031 7.98545 0.00441403 7.98379C0.00442825 7.98335 0.00444089 7.983 0.0044551 7.98256C0.00458149 7.97869 0.00473157 7.97418 0.0048627 7.97032C0.00487534 7.96998 0.00488956 7.96955 0.00490219 7.9692C0.00495749 7.96755 0.005027 7.96555 0.00508545 7.9639C0.00509493 7.9636 0.00510757 7.96326 0.00511705 7.96297C0.00519446 7.96076 0.00525765 7.95897 0.00533665 7.95677C0.00533033 7.95692 0.00534139 7.95662 0.00533665 7.95677C0.00540458 7.95484 0.00548989 7.95252 0.0055594 7.95059C0.00557362 7.9502 0.00558468 7.9499 0.0055989 7.94951C0.00574108 7.94565 0.00590538 7.94125 0.00605073 7.93739C0.00606968 7.9369 0.00608864 7.93643 0.00610602 7.93594C0.00616921 7.93429 0.00624031 7.93247 0.00630508 7.93081C0.00631614 7.93052 0.00632878 7.93018 0.00633983 7.92988C0.00642672 7.92768 0.00649308 7.92596 0.00658155 7.92376C0.00657207 7.924 0.00659103 7.92351 0.00658155 7.92376C0.0066479 7.9221 0.00676323 7.91921 0.00682958 7.91755C0.0068438 7.91721 0.0068596 7.91681 0.00687381 7.91647C0.00703022 7.91261 0.00721664 7.90812 0.00737778 7.90427C0.00739674 7.90383 0.00741411 7.90341 0.00743307 7.90296C0.00750258 7.90131 0.0075879 7.89929 0.00765899 7.89764C0.00764793 7.89788 0.00767005 7.89739 0.00765899 7.89764C0.0077522 7.89544 0.00785962 7.89298 0.00795599 7.89078C0.00797021 7.89044 0.00798601 7.89009 0.00800181 7.88975C0.0080729 7.8881 0.00815031 7.88635 0.00822298 7.8847C0.0082451 7.88421 0.00826406 7.88377 0.00828618 7.88328C0.00845838 7.87943 0.0086527 7.87514 0.00882964 7.87129C0.00885175 7.8708 0.00887229 7.87038 0.00889441 7.86989C0.00897024 7.86824 0.00906029 7.86631 0.0091377 7.86466C0.00912348 7.86495 0.00915192 7.86436 0.0091377 7.86466C0.00924039 7.86246 0.00935888 7.85994 0.00946473 7.85774C0.00948052 7.8574 0.00949158 7.85716 0.00950896 7.85681C0.00958795 7.85516 0.00968116 7.85321 0.00976173 7.85156C0.00978069 7.85116 0.00979807 7.85078 0.00981861 7.85038C0.010005 7.84653 0.0102294 7.84197 0.0104221 7.83812C0.0104395 7.83778 0.0104569 7.83743 0.0104742 7.83708C0.0105564 7.83543 0.0106638 7.83332 0.0107475 7.83167C0.0107349 7.83192 0.0107602 7.83143 0.0107475 7.83167C0.0108597 7.82947 0.0109877 7.82694 0.0111014 7.82474C0.0110872 7.82503 0.0111172 7.82444 0.0111014 7.82474C0.0111867 7.82309 0.0113384 7.82018 0.0114253 7.81853C0.0114458 7.81814 0.0114616 7.81782 0.0114822 7.81743C0.0116844 7.81358 0.0119308 7.80897 0.0121378 7.80512C0.0121536 7.80483 0.0121694 7.80453 0.0121852 7.80424C0.0124079 7.80012 0.0126433 7.79584 0.0128724 7.79173C0.0128613 7.79192 0.0128819 7.79153 0.0128724 7.79173C0.012964 7.79008 0.0131331 7.78704 0.0132263 7.78539C0.0132121 7.78564 0.0132405 7.78515 0.0132263 7.78539C0.0134585 7.78128 0.0137445 7.77629 0.0139814 7.77217C0.0139988 7.77188 0.0140162 7.77159 0.0140336 7.7713C0.0142721 7.76718 0.0145202 7.76295 0.0147666 7.75884C0.0147524 7.75908 0.0147808 7.75859 0.0147666 7.75884C0.0148646 7.75719 0.0150415 7.75424 0.015141 7.75259C0.0151584 7.7523 0.015179 7.75196 0.0151963 7.75167C0.0154617 7.74728 0.0156845 7.74363 0.0159562 7.73925C0.015942 7.73949 0.015972 7.73901 0.0159562 7.73925C0.0162295 7.73487 0.0165155 7.73029 0.0167935 7.7259C0.0167809 7.7261 0.0168062 7.72571 0.0167935 7.7259C0.0169326 7.72371 0.0170668 7.72163 0.0172074 7.71944C0.0171948 7.71963 0.0172201 7.71924 0.0172074 7.71944C0.0174902 7.71505 0.0177746 7.71067 0.0180637 7.70629C0.0180511 7.70649 0.0180763 7.7061 0.0180637 7.70629C0.0183528 7.70191 0.0186593 7.69732 0.0189547 7.69294C0.0189516 7.69299 0.0189579 7.69289 0.0189547 7.69294C0.0191032 7.69075 0.0192407 7.68871 0.0193908 7.68653C0.0193844 7.68662 0.0193971 7.68643 0.0193908 7.68653C0.0196893 7.68215 0.0199832 7.67789 0.0202897 7.67352C0.0202755 7.67371 0.0203039 7.67332 0.0202897 7.67352C0.0205962 7.66914 0.02092 7.66455 0.0212328 7.66018C0.0212265 7.66028 0.0212407 7.66008 0.0212328 7.66018C0.021702 7.65362 0.0221744 7.64714 0.0226594 7.64058C0.0226484 7.64073 0.0226689 7.64043 0.0226594 7.64058C0.0229817 7.63621 0.0233119 7.6318 0.0236405 7.62743C0.0236294 7.62757 0.0236515 7.62728 0.0236405 7.62743C0.0238048 7.62525 0.0239549 7.62329 0.0241208 7.62111C0.0241065 7.6213 0.0241366 7.62091 0.0241208 7.62111C0.0244541 7.61674 0.0247969 7.6123 0.0251366 7.60793C0.0251224 7.60812 0.0251524 7.60774 0.0251366 7.60793C0.0254778 7.60356 0.0258301 7.59907 0.0261777 7.59471C0.026165 7.59485 0.0261887 7.59456 0.0261777 7.59471C0.0266974 7.58816 0.0272409 7.58143 0.0277765 7.57489C0.0281335 7.57053 0.0284905 7.56622 0.0288555 7.56186C0.0288523 7.56191 0.0288586 7.56181 0.0288555 7.56186C0.0294021 7.55532 0.0299519 7.54881 0.0305127 7.54228C0.030508 7.54232 0.0305175 7.54223 0.0305127 7.54228C0.0308871 7.53792 0.03126 7.53362 0.0316407 7.52927C0.0316281 7.52941 0.0316534 7.52912 0.0316407 7.52927C0.0320215 7.52491 0.0324133 7.52048 0.0328003 7.51613C0.0327956 7.51618 0.032805 7.51608 0.0328003 7.51613C0.0329946 7.51395 0.0331874 7.5118 0.0333833 7.50962C0.0333785 7.50967 0.033388 7.50958 0.0333833 7.50962C0.0337735 7.50527 0.0341716 7.50089 0.0345697 7.49654C0.034565 7.49659 0.0345745 7.4965 0.0345697 7.49654C0.0351669 7.49002 0.035772 7.48349 0.0363833 7.47697C0.0363786 7.47702 0.0363881 7.47692 0.0363833 7.47697C0.0367925 7.47262 0.0371954 7.46836 0.0376109 7.46402C0.0376014 7.46411 0.0376188 7.46392 0.0376109 7.46402C0.0392697 7.44664 0.0409806 7.42929 0.0427485 7.41194C0.0427437 7.41199 0.0427532 7.41189 0.0427485 7.41194C0.0431908 7.40761 0.0436316 7.4033 0.0440803 7.39896C0.0440645 7.39911 0.0440961 7.39882 0.0440803 7.39896C0.0445289 7.39463 0.0449981 7.39013 0.0454531 7.3858C0.0454468 7.38585 0.0454579 7.38575 0.0454531 7.3858C0.0472731 7.36847 0.0491452 7.3512 0.0510726 7.3339C0.0510678 7.33395 0.0510789 7.33386 0.0510726 7.3339C0.052278 7.32309 0.0534928 7.31239 0.0547409 7.30159C0.0547298 7.30168 0.054752 7.30149 0.0547409 7.30159C0.055989 7.29079 0.0572702 7.27987 0.0585593 7.26908C0.0590759 7.26477 0.0595925 7.26046 0.0601155 7.25615C0.062204 7.2389 0.0643494 7.22165 0.0665438 7.20443C0.0739547 7.14633 0.0819723 7.08839 0.0905887 7.03067C0.0912269 7.0264 0.091862 7.02216 0.0925066 7.01789C0.0928289 7.01575 0.0931401 7.0137 0.093464 7.01156C0.0934561 7.01161 0.0934703 7.01151 0.093464 7.01156C0.0941117 7.00729 0.0947263 7.00325 0.0953819 6.99898C0.0953455 6.99922 0.0954182 6.99874 0.0953819 6.99898C0.0960359 6.99471 0.0967421 6.99012 0.0974041 6.98585C0.0973977 6.9859 0.097412 6.98581 0.0974041 6.98585C0.0983962 6.97945 0.0993472 6.97336 0.100354 6.96696C0.100316 6.9672 0.100392 6.96672 0.100354 6.96696C0.101025 6.96269 0.101725 6.95827 0.102401 6.95401C0.102379 6.95415 0.102425 6.95386 0.102401 6.95401C0.102741 6.95187 0.103046 6.94995 0.103387 6.94782C0.103357 6.94801 0.103417 6.94763 0.103387 6.94782C0.103727 6.94569 0.104129 6.94317 0.104472 6.94104C0.104815 6.93891 0.105103 6.93712 0.105447 6.93499C0.105409 6.93523 0.105485 6.93475 0.105447 6.93499C0.106134 6.93073 0.106836 6.9264 0.107529 6.92215C0.107491 6.92238 0.107567 6.92191 0.107529 6.92215C0.107877 6.92002 0.108267 6.91762 0.108616 6.9155C0.108965 6.91337 0.109303 6.9113 0.109654 6.90917C0.109638 6.90927 0.10967 6.90908 0.109654 6.90917C0.10996 6.90731 0.110335 6.90505 0.110641 6.90318C0.110689 6.9029 0.110735 6.90263 0.11078 6.90234C0.111485 6.89809 0.112068 6.89458 0.112779 6.89033C0.112826 6.89005 0.112878 6.88973 0.112926 6.88945C0.113237 6.88759 0.113536 6.8858 0.113847 6.88394C0.113823 6.88408 0.113871 6.8838 0.113847 6.88394C0.114204 6.88182 0.114616 6.87936 0.114975 6.87724C0.114967 6.87729 0.114983 6.87719 0.114975 6.87724C0.115288 6.87538 0.115626 6.87339 0.11594 6.87153C0.116013 6.8711 0.116076 6.87073 0.116149 6.8703C0.116779 6.86658 0.11752 6.86223 0.118155 6.85851C0.118212 6.85818 0.118272 6.85783 0.118329 6.8575C0.118601 6.85591 0.118969 6.85377 0.119242 6.85218C0.119209 6.85237 0.119274 6.85199 0.119242 6.85218C0.119607 6.85006 0.119999 6.84777 0.120365 6.84565C0.120414 6.84537 0.120482 6.84498 0.120531 6.8447C0.120806 6.84311 0.121144 6.84115 0.121421 6.83956C0.121477 6.83923 0.121534 6.8389 0.121591 6.83857C0.122236 6.83486 0.122997 6.8305 0.123647 6.82679C0.123713 6.82641 0.123784 6.826 0.12385 6.82562C0.124128 6.82403 0.124444 6.82224 0.124724 6.82065C0.12479 6.82027 0.124839 6.81999 0.124906 6.81961C0.125278 6.81749 0.125544 6.81599 0.125918 6.81387C0.125985 6.81349 0.126038 6.81319 0.126105 6.81282C0.126386 6.81123 0.126675 6.8096 0.126956 6.80801C0.127032 6.80758 0.127125 6.80706 0.1272 6.80664C0.12753 6.80478 0.127893 6.80273 0.128225 6.80088C0.128207 6.80097 0.128241 6.80079 0.128225 6.80088C0.128555 6.79903 0.128879 6.79722 0.129211 6.79536C0.129329 6.7947 0.129443 6.79407 0.129561 6.79341C0.129847 6.79182 0.130057 6.79064 0.130343 6.78906C0.130411 6.78868 0.130495 6.78821 0.130563 6.78784C0.130896 6.78599 0.131225 6.78416 0.13156 6.78231C0.131663 6.78174 0.131756 6.78122 0.131858 6.78066C0.132146 6.77907 0.132323 6.77809 0.13261 6.77651C0.132723 6.77589 0.132821 6.77535 0.132931 6.77474C0.133268 6.77289 0.133598 6.77108 0.133934 6.76923C0.133986 6.76895 0.134037 6.76867 0.134089 6.76839C0.134378 6.7668 0.134667 6.76522 0.134958 6.76363C0.13508 6.76297 0.135186 6.76239 0.135306 6.76173C0.135549 6.76041 0.135814 6.75896 0.136058 6.75764C0.136162 6.75708 0.136261 6.75654 0.136366 6.75597C0.136656 6.75439 0.137034 6.75234 0.137326 6.75076C0.137465 6.75001 0.137604 6.74925 0.137745 6.7485C0.137939 6.74745 0.138141 6.74635 0.138337 6.7453C0.138495 6.74445 0.138653 6.7436 0.138811 6.74275C0.139056 6.74143 0.139339 6.73991 0.139585 6.73859C0.139769 6.7376 0.13995 6.73664 0.140134 6.73565C0.140331 6.73459 0.140573 6.7333 0.14077 6.73225C0.140928 6.7314 0.141086 6.73056 0.141246 6.72971C0.141443 6.72865 0.14165 6.72755 0.141849 6.7265C0.14199 6.72575 0.142143 6.72493 0.142284 6.72418C0.142582 6.72259 0.142895 6.72094 0.143194 6.71936C0.143371 6.71842 0.143541 6.71752 0.143718 6.71658C0.143919 6.71552 0.144056 6.7148 0.144255 6.71374C0.144424 6.71285 0.144598 6.71194 0.144767 6.71104C0.145018 6.70972 0.145213 6.7087 0.145464 6.70738C0.145706 6.70611 0.145936 6.7049 0.14618 6.70363C0.14633 6.70284 0.146574 6.70156 0.146726 6.70077C0.146905 6.69983 0.147075 6.69894 0.147255 6.698C0.147407 6.69721 0.147633 6.69603 0.147785 6.69524C0.148101 6.6936 0.148404 6.69202 0.14872 6.69038C0.148924 6.68932 0.149009 6.68888 0.149213 6.68782C0.149412 6.68679 0.1496 6.68581 0.149799 6.68478C0.149952 6.68399 0.15011 6.68318 0.150263 6.68239C0.150455 6.6814 0.150658 6.68034 0.15085 6.67936C0.151055 6.6783 0.15118 6.67766 0.151385 6.6766C0.151704 6.67496 0.152034 6.67327 0.152353 6.67163C0.152508 6.67084 0.15263 6.67021 0.152785 6.66942C0.152995 6.66834 0.153213 6.66722 0.153425 6.66615C0.153579 6.66536 0.153666 6.66491 0.153821 6.66412C0.154226 6.66206 0.154606 6.66012 0.155012 6.65805C0.155115 6.65753 0.155232 6.65694 0.155335 6.65641C0.155565 6.65524 0.155796 6.65408 0.156027 6.65291C0.156131 6.65238 0.156254 6.65175 0.156358 6.65123C0.157147 6.64724 0.157933 6.64327 0.158727 6.63929C0.158779 6.63903 0.158881 6.63852 0.158933 6.63825C0.159194 6.63694 0.159448 6.63567 0.159711 6.63436C0.159815 6.63383 0.159796 6.63393 0.1599 6.63341C0.160415 6.63083 0.160924 6.6283 0.161441 6.62572C0.161387 6.62599 0.161493 6.62546 0.161441 6.62572C0.161695 6.62446 0.162109 6.6224 0.162363 6.62114C0.162417 6.62087 0.162526 6.62033 0.162578 6.62007C0.163419 6.6159 0.164275 6.61168 0.165122 6.60751C0.165068 6.60777 0.165175 6.60725 0.165122 6.60751C0.16633 6.60157 0.16764 6.59516 0.168861 6.58922C0.215608 6.36193 0.271733 6.13802 0.336804 5.91796L1.92579 6.38474C1.74715 6.98892 1.65657 7.61847 1.65657 8.25591C1.65657 11.8978 4.6291 14.8606 8.28283 14.8606C11.9366 14.8606 14.9091 11.8978 14.9091 8.25591C14.9091 4.61406 11.9366 1.65118 8.28283 1.65118V0Z" fill="#00BE76"/>
</svg>
