<svg width="23" height="19" viewBox="0 0 23 19" fill="none" xmlns="http://www.w3.org/2000/svg">
<path d="M22.9407 2.57012C22.837 2.04786 22.6054 1.56993 22.282 1.17511C22.2138 1.08909 22.1426 1.01205 22.0654 0.935006C21.4924 0.359196 20.6882 0 19.8096 0H3.1904C2.31186 0 1.51055 0.359196 0.934871 0.935006C0.85783 1.01205 0.786584 1.08909 0.718212 1.17511C0.394639 1.56989 0.163067 2.04786 0.0622618 2.57012C0.0208438 2.77169 0 2.97999 0 3.19058V14.8628C0 15.3106 0.094965 15.741 0.264321 16.1297C0.421413 16.5008 0.653031 16.8365 0.934826 17.1181C1.00625 17.1893 1.07718 17.2548 1.15458 17.3199C1.7065 17.777 2.41891 18.0531 3.1904 18.0531H19.8096C20.5814 18.0531 21.2969 17.777 21.8456 17.3171C21.9228 17.2548 21.9941 17.1893 22.0654 17.1181C22.347 16.8365 22.5786 16.5008 22.7389 16.1297V16.1268C22.9082 15.7381 23 15.3106 23 14.8628V3.19058C23 2.97999 22.9795 2.77169 22.9407 2.57012ZM2.08928 2.08928C2.37431 1.80456 2.75709 1.63219 3.1904 1.63219H19.8096C20.243 1.63219 20.6291 1.80456 20.9108 2.08928C20.9612 2.13999 21.0087 2.1965 21.0506 2.25266L12.3399 9.84424C12.0996 10.0548 11.8029 10.1588 11.5 10.1588C11.2002 10.1588 10.9036 10.0548 10.6602 9.84424L1.95285 2.24942C1.99139 2.19327 2.03887 2.13999 2.08928 2.08928ZM1.63219 14.8628V3.93844L7.93582 9.43756L1.63538 14.9308C1.63219 14.91 1.63219 14.8866 1.63219 14.8628ZM19.8096 16.4205H3.1904C2.90825 16.4205 2.64424 16.3464 2.41891 16.2161L9.06638 10.423L9.68697 10.9628C10.2063 11.4141 10.8562 11.6427 11.5 11.6427C12.1472 11.6427 12.797 11.4141 13.3163 10.9628L13.9366 10.423L20.5814 16.2161C20.3558 16.3464 20.0918 16.4205 19.8096 16.4205ZM21.3679 14.8628C21.3679 14.8866 21.3679 14.91 21.3648 14.9308L15.0644 9.44075L21.3679 3.94136V14.8628Z" fill="#00BE76"/>
</svg>
